<?xml version="1.0" encoding="utf-8" standalone="no"?>
<!DOCTYPE svg PUBLIC "-//W3C//DTD SVG 1.1//EN"
  "http://www.w3.org/Graphics/SVG/1.1/DTD/svg11.dtd">
<svg xmlns:xlink="http://www.w3.org/1999/xlink" width="200.921447pt" height="444.547895pt" viewBox="0 0 200.921447 444.547895" xmlns="http://www.w3.org/2000/svg" version="1.1">
 <metadata>
  <rdf:RDF xmlns:dc="http://purl.org/dc/elements/1.1/" xmlns:cc="http://creativecommons.org/ns#" xmlns:rdf="http://www.w3.org/1999/02/22-rdf-syntax-ns#">
   <cc:Work>
    <dc:type rdf:resource="http://purl.org/dc/dcmitype/StillImage"/>
    <dc:date>2023-10-13T16:41:03.985823</dc:date>
    <dc:format>image/svg+xml</dc:format>
    <dc:creator>
     <cc:Agent>
      <dc:title>Matplotlib v3.6.3, https://matplotlib.org/</dc:title>
     </cc:Agent>
    </dc:creator>
   </cc:Work>
  </rdf:RDF>
 </metadata>
 <defs>
  <style type="text/css">*{stroke-linejoin: round; stroke-linecap: butt}</style>
 </defs>
 <g id="figure_1">
  <g id="patch_1">
   <path d="M 0 444.547895 
L 200.921447 444.547895 
L 200.921447 0 
L 0 0 
z
" style="fill: #ffffff"/>
  </g>
  <g id="axes_1">
   <g id="line2d_1">
    <path d="M 96.781403 352.320286 
L 108.372216 352.320286 
" clip-path="url(#p02dedf9097)" style="fill: none; stroke: #808080; stroke-width: 3; stroke-linecap: round"/>
   </g>
   <g id="line2d_2">
    <path d="M 96.781403 330.300123 
L 108.372216 330.300123 
" clip-path="url(#p02dedf9097)" style="fill: none; stroke: #808080; stroke-width: 3; stroke-linecap: round"/>
   </g>
   <g id="line2d_3">
    <path d="M 96.781403 308.279961 
L 108.372216 308.279961 
" clip-path="url(#p02dedf9097)" style="fill: none; stroke: #808080; stroke-width: 3; stroke-linecap: round"/>
   </g>
   <g id="line2d_4">
    <path d="M 96.781403 286.259798 
L 108.372216 286.259798 
" clip-path="url(#p02dedf9097)" style="fill: none; stroke: #808080; stroke-width: 3; stroke-linecap: round"/>
   </g>
   <g id="line2d_5">
    <path d="M 96.781403 264.239635 
L 108.372216 264.239635 
" clip-path="url(#p02dedf9097)" style="fill: none; stroke: #808080; stroke-width: 3; stroke-linecap: round"/>
   </g>
   <g id="line2d_6">
    <path d="M 97.124552 215.695186 
L 108.715365 215.695186 
" clip-path="url(#p02dedf9097)" style="fill: none; stroke: #808080; stroke-width: 3; stroke-linecap: round"/>
   </g>
   <g id="line2d_7">
    <path d="M 97.124552 193.675023 
L 108.715365 193.675023 
" clip-path="url(#p02dedf9097)" style="fill: none; stroke: #808080; stroke-width: 3; stroke-linecap: round"/>
   </g>
   <g id="line2d_8">
    <path d="M 97.124552 171.654861 
L 108.715365 171.654861 
" clip-path="url(#p02dedf9097)" style="fill: none; stroke: #808080; stroke-width: 3; stroke-linecap: round"/>
   </g>
   <g id="line2d_9">
    <path d="M 97.124552 149.634698 
L 108.715365 149.634698 
" clip-path="url(#p02dedf9097)" style="fill: none; stroke: #808080; stroke-width: 3; stroke-linecap: round"/>
   </g>
   <g id="line2d_10">
    <path d="M 97.124552 127.614535 
L 108.715365 127.614535 
" clip-path="url(#p02dedf9097)" style="fill: none; stroke: #808080; stroke-width: 3; stroke-linecap: round"/>
   </g>
   <g id="LineCollection_1">
    <path d="M 85.190591 352.320286 
L 85.190591 341.310205 
L 85.190591 330.300123 
L 85.190591 319.290042 
L 85.190591 308.279961 
L 85.190591 297.269879 
L 85.190591 286.259798 
L 85.190591 275.249717 
L 85.190591 264.239635 
L 82.90293 252.040966 
L 80.61527 239.842296 
L 83.074505 227.768741 
L 85.53374 215.695186 
L 85.53374 204.685105 
L 85.53374 193.675023 
L 85.53374 182.664942 
L 85.53374 171.654861 
L 85.53374 160.644779 
L 85.53374 149.634698 
L 85.53374 138.624617 
L 85.53374 127.614535 
L 102.919959 127.614535 
L 120.306178 127.614535 
L 120.306178 138.624617 
L 120.306178 149.634698 
L 120.306178 160.644779 
L 120.306178 171.654861 
L 120.306178 182.664942 
L 120.306178 193.675023 
L 120.306178 204.685105 
L 120.306178 215.695186 
L 120.134603 239.967411 
L 119.963028 264.239635 
L 119.963028 275.249717 
L 119.963028 286.259798 
L 119.963028 297.269879 
L 119.963028 308.279961 
L 119.963028 319.290042 
L 119.963028 330.300123 
L 119.963028 341.310205 
L 119.963028 352.320286 
" clip-path="url(#p02dedf9097)" style="fill: none; stroke: #808080; stroke-width: 3"/>
   </g>
   <g id="text_1">
    <text style="fill: #262626; font: 24px 'Arial', 'DejaVu Sans', 'Liberation Sans', 'Bitstream Vera Sans', sans-serif; text-anchor: middle" x="100.460724" y="72.344421" transform="rotate(-0 100.460724 72.344421)">6va4</text>
   </g>
   <g id="PathCollection_1">
    <defs>
     <path id="C0_0_9b16c7a10c" d="M 0 8 
C 2.121625 8 4.156639 7.15707 5.656854 5.656854 
C 7.15707 4.156639 8 2.121625 8 -0 
C 8 -2.121625 7.15707 -4.156639 5.656854 -5.656854 
C 4.156639 -7.15707 2.121625 -8 0 -8 
C -2.121625 -8 -4.156639 -7.15707 -5.656854 -5.656854 
C -7.15707 -4.156639 -8 -2.121625 -8 0 
C -8 2.121625 -7.15707 4.156639 -5.656854 5.656854 
C -4.156639 7.15707 -2.121625 8 0 8 
z
"/>
    </defs>
    <g clip-path="url(#p02dedf9097)">
     <use xlink:href="#C0_0_9b16c7a10c" x="85.190591" y="352.320286" style="fill: #ffffff; stroke: #ffffff; stroke-width: 2"/>
    </g>
    <g clip-path="url(#p02dedf9097)">
     <use xlink:href="#C0_0_9b16c7a10c" x="85.190591" y="330.300123" style="fill: #ffffff; stroke: #ffffff; stroke-width: 2"/>
    </g>
    <g clip-path="url(#p02dedf9097)">
     <use xlink:href="#C0_0_9b16c7a10c" x="85.190591" y="308.279961" style="fill: #ffffff; stroke: #ffffff; stroke-width: 2"/>
    </g>
    <g clip-path="url(#p02dedf9097)">
     <use xlink:href="#C0_0_9b16c7a10c" x="85.190591" y="286.259798" style="fill: #ffffff; stroke: #ffffff; stroke-width: 2"/>
    </g>
    <g clip-path="url(#p02dedf9097)">
     <use xlink:href="#C0_0_9b16c7a10c" x="85.190591" y="264.239635" style="fill: #f66c00; stroke: #f66c00; stroke-width: 2"/>
    </g>
    <g clip-path="url(#p02dedf9097)">
     <use xlink:href="#C0_0_9b16c7a10c" x="80.61527" y="239.842296" style="fill: #f66c00; stroke: #f66c00; stroke-width: 2"/>
    </g>
    <g clip-path="url(#p02dedf9097)">
     <use xlink:href="#C0_0_9b16c7a10c" x="85.53374" y="215.695186" style="fill: #f66c00; stroke: #f66c00; stroke-width: 2"/>
    </g>
    <g clip-path="url(#p02dedf9097)">
     <use xlink:href="#C0_0_9b16c7a10c" x="85.53374" y="193.675023" style="fill: #ffffff; stroke: #ffffff; stroke-width: 2"/>
    </g>
    <g clip-path="url(#p02dedf9097)">
     <use xlink:href="#C0_0_9b16c7a10c" x="85.53374" y="171.654861" style="fill: #ffffff; stroke: #ffffff; stroke-width: 2"/>
    </g>
    <g clip-path="url(#p02dedf9097)">
     <use xlink:href="#C0_0_9b16c7a10c" x="85.53374" y="149.634698" style="fill: #ffffff; stroke: #ffffff; stroke-width: 2"/>
    </g>
    <g clip-path="url(#p02dedf9097)">
     <use xlink:href="#C0_0_9b16c7a10c" x="85.53374" y="127.614535" style="fill: #ffffff; stroke: #ffffff; stroke-width: 2"/>
    </g>
    <g clip-path="url(#p02dedf9097)">
     <use xlink:href="#C0_0_9b16c7a10c" x="120.306178" y="127.614535" style="fill: #ffffff; stroke: #ffffff; stroke-width: 2"/>
    </g>
    <g clip-path="url(#p02dedf9097)">
     <use xlink:href="#C0_0_9b16c7a10c" x="120.306178" y="149.634698" style="fill: #ffffff; stroke: #ffffff; stroke-width: 2"/>
    </g>
    <g clip-path="url(#p02dedf9097)">
     <use xlink:href="#C0_0_9b16c7a10c" x="120.306178" y="171.654861" style="fill: #ffffff; stroke: #ffffff; stroke-width: 2"/>
    </g>
    <g clip-path="url(#p02dedf9097)">
     <use xlink:href="#C0_0_9b16c7a10c" x="120.306178" y="193.675023" style="fill: #ffffff; stroke: #ffffff; stroke-width: 2"/>
    </g>
    <g clip-path="url(#p02dedf9097)">
     <use xlink:href="#C0_0_9b16c7a10c" x="120.306178" y="215.695186" style="fill: #f66c00; stroke: #f66c00; stroke-width: 2"/>
    </g>
    <g clip-path="url(#p02dedf9097)">
     <use xlink:href="#C0_0_9b16c7a10c" x="119.963028" y="264.239635" style="fill: #f66c00; stroke: #f66c00; stroke-width: 2"/>
    </g>
    <g clip-path="url(#p02dedf9097)">
     <use xlink:href="#C0_0_9b16c7a10c" x="119.963028" y="286.259798" style="fill: #ffffff; stroke: #ffffff; stroke-width: 2"/>
    </g>
    <g clip-path="url(#p02dedf9097)">
     <use xlink:href="#C0_0_9b16c7a10c" x="119.963028" y="308.279961" style="fill: #ffffff; stroke: #ffffff; stroke-width: 2"/>
    </g>
    <g clip-path="url(#p02dedf9097)">
     <use xlink:href="#C0_0_9b16c7a10c" x="119.963028" y="330.300123" style="fill: #ffffff; stroke: #ffffff; stroke-width: 2"/>
    </g>
    <g clip-path="url(#p02dedf9097)">
     <use xlink:href="#C0_0_9b16c7a10c" x="119.963028" y="352.320286" style="fill: #ffffff; stroke: #ffffff; stroke-width: 2"/>
    </g>
   </g>
   <g id="PathCollection_2">
    <defs>
     <path id="C1_0_10612825ee" d="M 0 10 
C 2.652031 10 5.195799 8.946337 7.071068 7.071068 
C 8.946337 5.195799 10 2.652031 10 -0 
C 10 -2.652031 8.946337 -5.195799 7.071068 -7.071068 
C 5.195799 -8.946337 2.652031 -10 0 -10 
C -2.652031 -10 -5.195799 -8.946337 -7.071068 -7.071068 
C -8.946337 -5.195799 -10 -2.652031 -10 0 
C -10 2.652031 -8.946337 5.195799 -7.071068 7.071068 
C -5.195799 8.946337 -2.652031 10 0 10 
z
"/>
    </defs>
    <g clip-path="url(#p02dedf9097)">
     <use xlink:href="#C1_0_10612825ee" x="85.190591" y="352.320286" style="fill: #ffffff; stroke: #ffffff; stroke-width: 2"/>
    </g>
    <g clip-path="url(#p02dedf9097)">
     <use xlink:href="#C1_0_10612825ee" x="85.190591" y="330.300123" style="fill: #ffffff; stroke: #ffffff; stroke-width: 2"/>
    </g>
    <g clip-path="url(#p02dedf9097)">
     <use xlink:href="#C1_0_10612825ee" x="85.190591" y="308.279961" style="fill: #ffffff; stroke: #ffffff; stroke-width: 2"/>
    </g>
    <g clip-path="url(#p02dedf9097)">
     <use xlink:href="#C1_0_10612825ee" x="85.190591" y="286.259798" style="fill: #ffffff; stroke: #ffffff; stroke-width: 2"/>
    </g>
    <g clip-path="url(#p02dedf9097)">
     <use xlink:href="#C1_0_10612825ee" x="85.190591" y="264.239635" style="fill: #f66c00; stroke: #f66c00; stroke-width: 2"/>
    </g>
    <g clip-path="url(#p02dedf9097)">
     <use xlink:href="#C1_0_10612825ee" x="80.61527" y="239.842296" style="fill: #f66c00; stroke: #f66c00; stroke-width: 2"/>
    </g>
    <g clip-path="url(#p02dedf9097)">
     <use xlink:href="#C1_0_10612825ee" x="85.53374" y="215.695186" style="fill: #f66c00; stroke: #f66c00; stroke-width: 2"/>
    </g>
    <g clip-path="url(#p02dedf9097)">
     <use xlink:href="#C1_0_10612825ee" x="85.53374" y="193.675023" style="fill: #ffffff; stroke: #ffffff; stroke-width: 2"/>
    </g>
    <g clip-path="url(#p02dedf9097)">
     <use xlink:href="#C1_0_10612825ee" x="85.53374" y="171.654861" style="fill: #ffffff; stroke: #ffffff; stroke-width: 2"/>
    </g>
    <g clip-path="url(#p02dedf9097)">
     <use xlink:href="#C1_0_10612825ee" x="85.53374" y="149.634698" style="fill: #ffffff; stroke: #ffffff; stroke-width: 2"/>
    </g>
    <g clip-path="url(#p02dedf9097)">
     <use xlink:href="#C1_0_10612825ee" x="85.53374" y="127.614535" style="fill: #ffffff; stroke: #ffffff; stroke-width: 2"/>
    </g>
    <g clip-path="url(#p02dedf9097)">
     <use xlink:href="#C1_0_10612825ee" x="120.306178" y="127.614535" style="fill: #ffffff; stroke: #ffffff; stroke-width: 2"/>
    </g>
    <g clip-path="url(#p02dedf9097)">
     <use xlink:href="#C1_0_10612825ee" x="120.306178" y="149.634698" style="fill: #ffffff; stroke: #ffffff; stroke-width: 2"/>
    </g>
    <g clip-path="url(#p02dedf9097)">
     <use xlink:href="#C1_0_10612825ee" x="120.306178" y="171.654861" style="fill: #ffffff; stroke: #ffffff; stroke-width: 2"/>
    </g>
    <g clip-path="url(#p02dedf9097)">
     <use xlink:href="#C1_0_10612825ee" x="120.306178" y="193.675023" style="fill: #ffffff; stroke: #ffffff; stroke-width: 2"/>
    </g>
    <g clip-path="url(#p02dedf9097)">
     <use xlink:href="#C1_0_10612825ee" x="120.306178" y="215.695186" style="fill: #f66c00; stroke: #f66c00; stroke-width: 2"/>
    </g>
    <g clip-path="url(#p02dedf9097)">
     <use xlink:href="#C1_0_10612825ee" x="119.963028" y="264.239635" style="fill: #f66c00; stroke: #f66c00; stroke-width: 2"/>
    </g>
    <g clip-path="url(#p02dedf9097)">
     <use xlink:href="#C1_0_10612825ee" x="119.963028" y="286.259798" style="fill: #ffffff; stroke: #ffffff; stroke-width: 2"/>
    </g>
    <g clip-path="url(#p02dedf9097)">
     <use xlink:href="#C1_0_10612825ee" x="119.963028" y="308.279961" style="fill: #ffffff; stroke: #ffffff; stroke-width: 2"/>
    </g>
    <g clip-path="url(#p02dedf9097)">
     <use xlink:href="#C1_0_10612825ee" x="119.963028" y="330.300123" style="fill: #ffffff; stroke: #ffffff; stroke-width: 2"/>
    </g>
    <g clip-path="url(#p02dedf9097)">
     <use xlink:href="#C1_0_10612825ee" x="119.963028" y="352.320286" style="fill: #ffffff; stroke: #ffffff; stroke-width: 2"/>
    </g>
   </g>
   <g id="PathCollection_3">
    <defs>
     <path id="C2_0_de4083c61a" d="M 3.288577 3.436273 
L 3.288577 0.847965 
L 1.158851 0.847965 
L 1.158851 -0.224127 
L 4.579632 -0.224127 
L 4.579632 3.915513 
Q 3.825656 4.450527 2.914687 4.725263 
Q 2.005784 5 0.972939 5 
Q -1.286924 5 -2.56352 3.680025 
Q -3.83805 2.357984 -3.83805 0.003099 
Q -3.83805 -2.36005 -2.56352 -3.680025 
Q -1.286924 -5 0.972939 -5 
Q 1.914894 -5 2.763892 -4.766577 
Q 3.61289 -4.53522 4.329684 -4.082834 
L 4.329684 -2.694691 
Q 3.606693 -3.308201 2.792811 -3.618054 
Q 1.97893 -3.927907 1.082421 -3.927907 
Q -0.687874 -3.927907 -1.576121 -2.940508 
Q -2.462301 -1.953109 -2.462301 0.003099 
Q -2.462301 1.953109 -1.576121 2.940508 
Q -0.687874 3.927907 1.082421 3.927907 
Q 1.772361 3.927907 2.313572 3.808098 
Q 2.856848 3.688288 3.288577 3.436273 
z
"/>
    </defs>
    <g clip-path="url(#p02dedf9097)">
     <use xlink:href="#C2_0_de4083c61a" x="85.190591" y="308.279961" style="stroke: #000000"/>
    </g>
    <g clip-path="url(#p02dedf9097)">
     <use xlink:href="#C2_0_de4083c61a" x="85.190591" y="286.259798" style="stroke: #000000"/>
    </g>
    <g clip-path="url(#p02dedf9097)">
     <use xlink:href="#C2_0_de4083c61a" x="85.53374" y="215.695186" style="fill: #ffffff; stroke: #ffffff"/>
    </g>
    <g clip-path="url(#p02dedf9097)">
     <use xlink:href="#C2_0_de4083c61a" x="85.53374" y="171.654861" style="stroke: #000000"/>
    </g>
    <g clip-path="url(#p02dedf9097)">
     <use xlink:href="#C2_0_de4083c61a" x="85.53374" y="127.614535" style="stroke: #000000"/>
    </g>
    <g clip-path="url(#p02dedf9097)">
     <use xlink:href="#C2_0_de4083c61a" x="119.963028" y="264.239635" style="fill: #ffffff; stroke: #ffffff"/>
    </g>
    <g clip-path="url(#p02dedf9097)">
     <use xlink:href="#C2_0_de4083c61a" x="119.963028" y="330.300123" style="stroke: #000000"/>
    </g>
    <g clip-path="url(#p02dedf9097)">
     <use xlink:href="#C2_0_de4083c61a" x="119.963028" y="352.320286" style="stroke: #000000"/>
    </g>
   </g>
   <g id="PathCollection_4">
    <defs>
     <path id="C3_0_a0326c9ba3" d="M -3.170065 -5 
L -1.83519 -5 
L -1.83519 0.959638 
Q -1.83519 2.536262 -1.265503 3.229977 
Q -0.693715 3.921589 0.588606 3.921589 
Q 1.862518 3.921589 2.434307 3.229977 
Q 3.006096 2.536262 3.006096 0.959638 
L 3.006096 -5 
L 4.338869 -5 
L 4.338869 1.123607 
Q 4.338869 3.040782 3.38869 4.020391 
Q 2.440614 5 0.588606 5 
Q -1.27181 5 -2.221989 4.020391 
Q -3.170065 3.040782 -3.170065 1.123607 
L -3.170065 -5 
z
"/>
    </defs>
    <g clip-path="url(#p02dedf9097)">
     <use xlink:href="#C3_0_a0326c9ba3" x="85.53374" y="193.675023" style="stroke: #000000"/>
    </g>
    <g clip-path="url(#p02dedf9097)">
     <use xlink:href="#C3_0_a0326c9ba3" x="85.53374" y="149.634698" style="stroke: #000000"/>
    </g>
    <g clip-path="url(#p02dedf9097)">
     <use xlink:href="#C3_0_a0326c9ba3" x="119.963028" y="286.259798" style="stroke: #000000"/>
    </g>
   </g>
   <g id="PathCollection_5">
    <defs>
     <path id="C4_0_a3a6884352" d="M 0.054651 -3.666952 
L -1.78204 1.309473 
L 1.895628 1.309473 
L 0.054651 -3.666952 
z
M -0.710459 -5 
L 0.824046 -5 
L 4.634591 5 
L 3.228676 5 
L 2.317831 2.434634 
L -2.189241 2.434634 
L -3.100086 5 
L -4.527432 5 
L -0.710459 -5 
z
"/>
    </defs>
    <g clip-path="url(#p02dedf9097)">
     <use xlink:href="#C4_0_a3a6884352" x="80.61527" y="239.842296" style="fill: #ffffff; stroke: #ffffff"/>
    </g>
    <g clip-path="url(#p02dedf9097)">
     <use xlink:href="#C4_0_a3a6884352" x="120.306178" y="149.634698" style="stroke: #000000"/>
    </g>
    <g clip-path="url(#p02dedf9097)">
     <use xlink:href="#C4_0_a3a6884352" x="120.306178" y="193.675023" style="stroke: #000000"/>
    </g>
   </g>
   <g id="PathCollection_6">
    <defs>
     <path id="C5_0_cb92103b45" d="M 4.257385 -4.082834 
L 4.257385 -2.709151 
Q 3.59843 -3.322661 2.852716 -3.624251 
Q 2.107003 -3.927907 1.268333 -3.927907 
Q -0.384218 -3.927907 -1.262136 -2.917786 
Q -2.140054 -1.907664 -2.140054 0.003099 
Q -2.140054 1.907664 -1.262136 2.917786 
Q -0.384218 3.927907 1.268333 3.927907 
Q 2.107003 3.927907 2.852716 3.624251 
Q 3.59843 3.320595 4.257385 2.707085 
L 4.257385 4.07044 
Q 3.573642 4.53522 2.807271 4.768643 
Q 2.042966 5 1.191902 5 
Q -0.997728 5 -2.257798 3.661434 
Q -3.515803 2.320801 -3.515803 0.003099 
Q -3.515803 -2.320801 -2.257798 -3.659368 
Q -0.997728 -5 1.191902 -5 
Q 2.05536 -5 2.819665 -4.770709 
Q 3.586036 -4.541417 4.257385 -4.082834 
z
"/>
    </defs>
    <g clip-path="url(#p02dedf9097)">
     <use xlink:href="#C5_0_cb92103b45" x="85.190591" y="352.320286" style="stroke: #000000"/>
    </g>
    <g clip-path="url(#p02dedf9097)">
     <use xlink:href="#C5_0_cb92103b45" x="85.190591" y="330.300123" style="stroke: #000000"/>
    </g>
    <g clip-path="url(#p02dedf9097)">
     <use xlink:href="#C5_0_cb92103b45" x="85.190591" y="264.239635" style="fill: #ffffff; stroke: #ffffff"/>
    </g>
    <g clip-path="url(#p02dedf9097)">
     <use xlink:href="#C5_0_cb92103b45" x="120.306178" y="127.614535" style="stroke: #000000"/>
    </g>
    <g clip-path="url(#p02dedf9097)">
     <use xlink:href="#C5_0_cb92103b45" x="120.306178" y="171.654861" style="stroke: #000000"/>
    </g>
    <g clip-path="url(#p02dedf9097)">
     <use xlink:href="#C5_0_cb92103b45" x="120.306178" y="215.695186" style="fill: #ffffff; stroke: #ffffff"/>
    </g>
    <g clip-path="url(#p02dedf9097)">
     <use xlink:href="#C5_0_cb92103b45" x="119.963028" y="308.279961" style="stroke: #000000"/>
    </g>
   </g>
   <g id="PathCollection_7"/>
   <g id="PathCollection_8"/>
   <g id="PathCollection_9"/>
   <g id="PathCollection_10"/>
  </g>
 </g>
 <defs>
  <clipPath id="p02dedf9097">
   <rect x="43.858287" y="78.344421" width="113.204874" height="323.245979"/>
  </clipPath>
 </defs>
</svg>
