<?xml version="1.0" encoding="utf-8" standalone="no"?>
<!DOCTYPE svg PUBLIC "-//W3C//DTD SVG 1.1//EN"
  "http://www.w3.org/Graphics/SVG/1.1/DTD/svg11.dtd">
<svg xmlns:xlink="http://www.w3.org/1999/xlink" width="449.325143pt" height="468.636924pt" viewBox="0 0 449.325143 468.636924" xmlns="http://www.w3.org/2000/svg" version="1.1">
 <metadata>
  <rdf:RDF xmlns:dc="http://purl.org/dc/elements/1.1/" xmlns:cc="http://creativecommons.org/ns#" xmlns:rdf="http://www.w3.org/1999/02/22-rdf-syntax-ns#">
   <cc:Work>
    <dc:type rdf:resource="http://purl.org/dc/dcmitype/StillImage"/>
    <dc:date>2023-10-13T16:35:43.236241</dc:date>
    <dc:format>image/svg+xml</dc:format>
    <dc:creator>
     <cc:Agent>
      <dc:title>Matplotlib v3.6.3, https://matplotlib.org/</dc:title>
     </cc:Agent>
    </dc:creator>
   </cc:Work>
  </rdf:RDF>
 </metadata>
 <defs>
  <style type="text/css">*{stroke-linejoin: round; stroke-linecap: butt}</style>
 </defs>
 <g id="figure_1">
  <g id="patch_1">
   <path d="M 0 468.636924 
L 449.325143 468.636924 
L 449.325143 0 
L 0 0 
z
" style="fill: #ffffff"/>
  </g>
  <g id="axes_1">
   <g id="line2d_1">
    <path d="M 321.088259 375.52916 
L 334.32092 375.52916 
" clip-path="url(#p7da4a19462)" style="fill: none; stroke: #808080; stroke-width: 3; stroke-linecap: round"/>
   </g>
   <g id="line2d_2">
    <path d="M 321.088259 353.190602 
L 334.32092 353.190602 
" clip-path="url(#p7da4a19462)" style="fill: none; stroke: #808080; stroke-width: 3; stroke-linecap: round"/>
   </g>
   <g id="line2d_3">
    <path d="M 321.088259 330.852043 
L 334.32092 330.852043 
" clip-path="url(#p7da4a19462)" style="fill: none; stroke: #808080; stroke-width: 3; stroke-linecap: round"/>
   </g>
   <g id="line2d_4">
    <path d="M 321.088259 308.513485 
L 334.32092 308.513485 
" clip-path="url(#p7da4a19462)" style="fill: none; stroke: #808080; stroke-width: 3; stroke-linecap: round"/>
   </g>
   <g id="line2d_5">
    <path d="M 321.088259 286.174926 
L 334.32092 286.174926 
" clip-path="url(#p7da4a19462)" style="fill: none; stroke: #808080; stroke-width: 3; stroke-linecap: round"/>
   </g>
   <g id="line2d_6">
    <path d="M 321.088259 263.836368 
L 334.32092 263.836368 
" clip-path="url(#p7da4a19462)" style="fill: none; stroke: #808080; stroke-width: 3; stroke-linecap: round"/>
   </g>
   <g id="line2d_7">
    <path d="M 299.606931 215.010392 
L 308.769572 206.057779 
" clip-path="url(#p7da4a19462)" style="fill: none; stroke: #808080; stroke-width: 3; stroke-linecap: round"/>
   </g>
   <g id="line2d_8">
    <path d="M 283.929372 199.745711 
L 293.092014 190.793098 
" clip-path="url(#p7da4a19462)" style="fill: none; stroke: #808080; stroke-width: 3; stroke-linecap: round"/>
   </g>
   <g id="line2d_9">
    <path d="M 220.532462 174.151193 
L 220.448174 161.409941 
" clip-path="url(#p7da4a19462)" style="fill: none; stroke: #808080; stroke-width: 3; stroke-linecap: round"/>
   </g>
   <g id="line2d_10">
    <path d="M 199.039035 174.151193 
L 198.954747 161.409941 
" clip-path="url(#p7da4a19462)" style="fill: none; stroke: #808080; stroke-width: 3; stroke-linecap: round"/>
   </g>
   <g id="line2d_11">
    <path d="M 177.545608 174.151193 
L 177.46132 161.409941 
" clip-path="url(#p7da4a19462)" style="fill: none; stroke: #808080; stroke-width: 3; stroke-linecap: round"/>
   </g>
   <g id="line2d_12">
    <path d="M 156.051907 174.027092 
L 155.968168 161.409939 
" clip-path="url(#p7da4a19462)" style="fill: none; stroke: #808080; stroke-width: 3; stroke-linecap: round"/>
   </g>
   <g id="line2d_13">
    <path d="M 134.55848 174.151195 
L 134.474741 161.534043 
" clip-path="url(#p7da4a19462)" style="fill: none; stroke: #808080; stroke-width: 3; stroke-linecap: round"/>
   </g>
   <g id="LineCollection_1">
    <path d="M 308.107641 375.52916 
L 308.107641 364.359881 
L 308.107641 353.190602 
L 308.107641 342.021322 
L 308.107641 330.852043 
L 308.107641 319.682764 
L 308.107641 308.513485 
L 308.107641 297.344206 
L 308.107641 286.174926 
L 308.107641 275.005647 
L 308.107641 263.836368 
L 299.257407 243.91782 
L 290.407172 223.999272 
L 282.568393 216.366932 
L 274.729613 208.734591 
L 259.937078 206.252529 
L 245.144543 203.770467 
L 232.880647 195.331456 
L 220.61675 186.892445 
L 209.870037 186.892445 
L 199.123323 186.892445 
L 188.37661 186.892445 
L 177.629896 186.892445 
L 166.883183 186.830393 
L 156.136469 186.768342 
L 145.389756 186.830393 
L 134.643042 186.892445 
L 122.948089 190.553486 
L 111.253136 194.214528 
L 101.391446 187.140651 
L 91.529756 180.066774 
L 91.46654 168.090825 
L 91.403324 156.114875 
L 101.201798 148.916896 
L 111.000272 141.718916 
L 122.695225 145.255854 
L 134.390178 148.792792 
L 145.136892 148.730741 
L 155.883605 148.668689 
L 166.630319 148.668689 
L 177.377032 148.668689 
L 188.123746 148.668689 
L 198.870459 148.668689 
L 209.617173 148.668689 
L 220.363886 148.668689 
L 230.731304 140.974297 
L 241.098722 133.279905 
L 252.604027 130.921946 
L 264.109332 128.563987 
L 274.919261 132.907595 
L 285.729191 137.251204 
L 292.177219 146.931246 
L 298.625247 156.611288 
L 300.45851 169.207753 
L 302.291773 181.804218 
L 310.130552 189.436558 
L 317.969331 197.068899 
L 329.095341 200.047374 
L 340.22135 203.025848 
L 348.755505 211.340756 
L 357.28966 219.655664 
L 357.605739 231.445458 
L 357.921819 243.235253 
L 352.611678 253.535811 
L 347.301538 263.836368 
L 347.301538 275.005647 
L 347.301538 286.174926 
L 347.301538 297.344206 
L 347.301538 308.513485 
L 347.301538 319.682764 
L 347.301538 330.852043 
L 347.301538 342.021322 
L 347.301538 353.190602 
L 347.301538 364.359881 
L 347.301538 375.52916 
" clip-path="url(#p7da4a19462)" style="fill: none; stroke: #808080; stroke-width: 3"/>
   </g>
   <g id="text_1">
    <text style="fill: #262626; font: 24px 'Arial', 'DejaVu Sans', 'Liberation Sans', 'Bitstream Vera Sans', sans-serif; text-anchor: middle" x="224.662572" y="71.991167" transform="rotate(-0 224.662572 71.991167)">1q8n</text>
   </g>
   <g id="PathCollection_1">
    <defs>
     <path id="C0_0_dee1cace01" d="M 0 8 
C 2.121625 8 4.156639 7.15707 5.656854 5.656854 
C 7.15707 4.156639 8 2.121625 8 -0 
C 8 -2.121625 7.15707 -4.156639 5.656854 -5.656854 
C 4.156639 -7.15707 2.121625 -8 0 -8 
C -2.121625 -8 -4.156639 -7.15707 -5.656854 -5.656854 
C -7.15707 -4.156639 -8 -2.121625 -8 0 
C -8 2.121625 -7.15707 4.156639 -5.656854 5.656854 
C -4.156639 7.15707 -2.121625 8 0 8 
z
"/>
    </defs>
    <g clip-path="url(#p7da4a19462)">
     <use xlink:href="#C0_0_dee1cace01" x="308.107641" y="375.52916" style="fill: #1c6f2e; stroke: #1c6f2e; stroke-width: 2"/>
    </g>
    <g clip-path="url(#p7da4a19462)">
     <use xlink:href="#C0_0_dee1cace01" x="308.107641" y="353.190602" style="fill: #1c6f2e; stroke: #1c6f2e; stroke-width: 2"/>
    </g>
    <g clip-path="url(#p7da4a19462)">
     <use xlink:href="#C0_0_dee1cace01" x="308.107641" y="330.852043" style="fill: #1c6f2e; stroke: #1c6f2e; stroke-width: 2"/>
    </g>
    <g clip-path="url(#p7da4a19462)">
     <use xlink:href="#C0_0_dee1cace01" x="308.107641" y="308.513485" style="fill: #1c6f2e; stroke: #1c6f2e; stroke-width: 2"/>
    </g>
    <g clip-path="url(#p7da4a19462)">
     <use xlink:href="#C0_0_dee1cace01" x="308.107641" y="286.174926" style="fill: #1c6f2e; stroke: #1c6f2e; stroke-width: 2"/>
    </g>
    <g clip-path="url(#p7da4a19462)">
     <use xlink:href="#C0_0_dee1cace01" x="308.107641" y="263.836368" style="fill: #ffffff; stroke: #ffffff; stroke-width: 2"/>
    </g>
    <g clip-path="url(#p7da4a19462)">
     <use xlink:href="#C0_0_dee1cace01" x="290.407172" y="223.999272" style="fill: #f66c00; stroke: #f66c00; stroke-width: 2"/>
    </g>
    <g clip-path="url(#p7da4a19462)">
     <use xlink:href="#C0_0_dee1cace01" x="274.729613" y="208.734591" style="fill: #f66c00; stroke: #f66c00; stroke-width: 2"/>
    </g>
    <g clip-path="url(#p7da4a19462)">
     <use xlink:href="#C0_0_dee1cace01" x="245.144543" y="203.770467" style="fill: #f66c00; stroke: #f66c00; stroke-width: 2"/>
    </g>
    <g clip-path="url(#p7da4a19462)">
     <use xlink:href="#C0_0_dee1cace01" x="220.61675" y="186.892445" style="fill: #f66c00; stroke: #f66c00; stroke-width: 2"/>
    </g>
    <g clip-path="url(#p7da4a19462)">
     <use xlink:href="#C0_0_dee1cace01" x="199.123323" y="186.892445" style="fill: #ffffff; stroke: #ffffff; stroke-width: 2"/>
    </g>
    <g clip-path="url(#p7da4a19462)">
     <use xlink:href="#C0_0_dee1cace01" x="177.629896" y="186.892445" style="fill: #ffffff; stroke: #ffffff; stroke-width: 2"/>
    </g>
    <g clip-path="url(#p7da4a19462)">
     <use xlink:href="#C0_0_dee1cace01" x="156.136469" y="186.768342" style="fill: #ffffff; stroke: #ffffff; stroke-width: 2"/>
    </g>
    <g clip-path="url(#p7da4a19462)">
     <use xlink:href="#C0_0_dee1cace01" x="134.643042" y="186.892445" style="fill: #ffffff; stroke: #ffffff; stroke-width: 2"/>
    </g>
    <g clip-path="url(#p7da4a19462)">
     <use xlink:href="#C0_0_dee1cace01" x="111.253136" y="194.214528" style="fill: #ffffff; stroke: #ffffff; stroke-width: 2"/>
    </g>
    <g clip-path="url(#p7da4a19462)">
     <use xlink:href="#C0_0_dee1cace01" x="91.529756" y="180.066774" style="fill: #ffffff; stroke: #ffffff; stroke-width: 2"/>
    </g>
    <g clip-path="url(#p7da4a19462)">
     <use xlink:href="#C0_0_dee1cace01" x="91.403324" y="156.114875" style="fill: #ffffff; stroke: #ffffff; stroke-width: 2"/>
    </g>
    <g clip-path="url(#p7da4a19462)">
     <use xlink:href="#C0_0_dee1cace01" x="111.000272" y="141.718916" style="fill: #ffffff; stroke: #ffffff; stroke-width: 2"/>
    </g>
    <g clip-path="url(#p7da4a19462)">
     <use xlink:href="#C0_0_dee1cace01" x="134.390178" y="148.792792" style="fill: #ffffff; stroke: #ffffff; stroke-width: 2"/>
    </g>
    <g clip-path="url(#p7da4a19462)">
     <use xlink:href="#C0_0_dee1cace01" x="155.883605" y="148.668689" style="fill: #ffffff; stroke: #ffffff; stroke-width: 2"/>
    </g>
    <g clip-path="url(#p7da4a19462)">
     <use xlink:href="#C0_0_dee1cace01" x="177.377032" y="148.668689" style="fill: #ffffff; stroke: #ffffff; stroke-width: 2"/>
    </g>
    <g clip-path="url(#p7da4a19462)">
     <use xlink:href="#C0_0_dee1cace01" x="198.870459" y="148.668689" style="fill: #ffffff; stroke: #ffffff; stroke-width: 2"/>
    </g>
    <g clip-path="url(#p7da4a19462)">
     <use xlink:href="#C0_0_dee1cace01" x="220.363886" y="148.668689" style="fill: #f66c00; stroke: #f66c00; stroke-width: 2"/>
    </g>
    <g clip-path="url(#p7da4a19462)">
     <use xlink:href="#C0_0_dee1cace01" x="241.098722" y="133.279905" style="fill: #f66c00; stroke: #f66c00; stroke-width: 2"/>
    </g>
    <g clip-path="url(#p7da4a19462)">
     <use xlink:href="#C0_0_dee1cace01" x="264.109332" y="128.563987" style="fill: #f66c00; stroke: #f66c00; stroke-width: 2"/>
    </g>
    <g clip-path="url(#p7da4a19462)">
     <use xlink:href="#C0_0_dee1cace01" x="285.729191" y="137.251204" style="fill: #ffffff; stroke: #ffffff; stroke-width: 2"/>
    </g>
    <g clip-path="url(#p7da4a19462)">
     <use xlink:href="#C0_0_dee1cace01" x="298.625247" y="156.611288" style="fill: #ffffff; stroke: #ffffff; stroke-width: 2"/>
    </g>
    <g clip-path="url(#p7da4a19462)">
     <use xlink:href="#C0_0_dee1cace01" x="302.291773" y="181.804218" style="fill: #f66c00; stroke: #f66c00; stroke-width: 2"/>
    </g>
    <g clip-path="url(#p7da4a19462)">
     <use xlink:href="#C0_0_dee1cace01" x="317.969331" y="197.068899" style="fill: #f66c00; stroke: #f66c00; stroke-width: 2"/>
    </g>
    <g clip-path="url(#p7da4a19462)">
     <use xlink:href="#C0_0_dee1cace01" x="340.22135" y="203.025848" style="fill: #f66c00; stroke: #f66c00; stroke-width: 2"/>
    </g>
    <g clip-path="url(#p7da4a19462)">
     <use xlink:href="#C0_0_dee1cace01" x="357.28966" y="219.655664" style="fill: #f66c00; stroke: #f66c00; stroke-width: 2"/>
    </g>
    <g clip-path="url(#p7da4a19462)">
     <use xlink:href="#C0_0_dee1cace01" x="357.921819" y="243.235253" style="fill: #ffffff; stroke: #ffffff; stroke-width: 2"/>
    </g>
    <g clip-path="url(#p7da4a19462)">
     <use xlink:href="#C0_0_dee1cace01" x="347.301538" y="263.836368" style="fill: #1c6f2e; stroke: #1c6f2e; stroke-width: 2"/>
    </g>
    <g clip-path="url(#p7da4a19462)">
     <use xlink:href="#C0_0_dee1cace01" x="347.301538" y="286.174926" style="fill: #1c6f2e; stroke: #1c6f2e; stroke-width: 2"/>
    </g>
    <g clip-path="url(#p7da4a19462)">
     <use xlink:href="#C0_0_dee1cace01" x="347.301538" y="308.513485" style="fill: #1c6f2e; stroke: #1c6f2e; stroke-width: 2"/>
    </g>
    <g clip-path="url(#p7da4a19462)">
     <use xlink:href="#C0_0_dee1cace01" x="347.301538" y="330.852043" style="fill: #1c6f2e; stroke: #1c6f2e; stroke-width: 2"/>
    </g>
    <g clip-path="url(#p7da4a19462)">
     <use xlink:href="#C0_0_dee1cace01" x="347.301538" y="353.190602" style="fill: #1c6f2e; stroke: #1c6f2e; stroke-width: 2"/>
    </g>
    <g clip-path="url(#p7da4a19462)">
     <use xlink:href="#C0_0_dee1cace01" x="347.301538" y="375.52916" style="fill: #1c6f2e; stroke: #1c6f2e; stroke-width: 2"/>
    </g>
   </g>
   <g id="PathCollection_2">
    <defs>
     <path id="C1_0_e32e6d5fd5" d="M 0 10 
C 2.652031 10 5.195799 8.946337 7.071068 7.071068 
C 8.946337 5.195799 10 2.652031 10 -0 
C 10 -2.652031 8.946337 -5.195799 7.071068 -7.071068 
C 5.195799 -8.946337 2.652031 -10 0 -10 
C -2.652031 -10 -5.195799 -8.946337 -7.071068 -7.071068 
C -8.946337 -5.195799 -10 -2.652031 -10 0 
C -10 2.652031 -8.946337 5.195799 -7.071068 7.071068 
C -5.195799 8.946337 -2.652031 10 0 10 
z
"/>
    </defs>
    <g clip-path="url(#p7da4a19462)">
     <use xlink:href="#C1_0_e32e6d5fd5" x="308.107641" y="375.52916" style="fill: #1c6f2e; stroke: #1c6f2e; stroke-width: 2"/>
    </g>
    <g clip-path="url(#p7da4a19462)">
     <use xlink:href="#C1_0_e32e6d5fd5" x="308.107641" y="353.190602" style="fill: #1c6f2e; stroke: #1c6f2e; stroke-width: 2"/>
    </g>
    <g clip-path="url(#p7da4a19462)">
     <use xlink:href="#C1_0_e32e6d5fd5" x="308.107641" y="330.852043" style="fill: #1c6f2e; stroke: #1c6f2e; stroke-width: 2"/>
    </g>
    <g clip-path="url(#p7da4a19462)">
     <use xlink:href="#C1_0_e32e6d5fd5" x="308.107641" y="308.513485" style="fill: #1c6f2e; stroke: #1c6f2e; stroke-width: 2"/>
    </g>
    <g clip-path="url(#p7da4a19462)">
     <use xlink:href="#C1_0_e32e6d5fd5" x="308.107641" y="286.174926" style="fill: #1c6f2e; stroke: #1c6f2e; stroke-width: 2"/>
    </g>
    <g clip-path="url(#p7da4a19462)">
     <use xlink:href="#C1_0_e32e6d5fd5" x="308.107641" y="263.836368" style="fill: #ffffff; stroke: #ffffff; stroke-width: 2"/>
    </g>
    <g clip-path="url(#p7da4a19462)">
     <use xlink:href="#C1_0_e32e6d5fd5" x="290.407172" y="223.999272" style="fill: #f66c00; stroke: #f66c00; stroke-width: 2"/>
    </g>
    <g clip-path="url(#p7da4a19462)">
     <use xlink:href="#C1_0_e32e6d5fd5" x="274.729613" y="208.734591" style="fill: #f66c00; stroke: #f66c00; stroke-width: 2"/>
    </g>
    <g clip-path="url(#p7da4a19462)">
     <use xlink:href="#C1_0_e32e6d5fd5" x="245.144543" y="203.770467" style="fill: #f66c00; stroke: #f66c00; stroke-width: 2"/>
    </g>
    <g clip-path="url(#p7da4a19462)">
     <use xlink:href="#C1_0_e32e6d5fd5" x="220.61675" y="186.892445" style="fill: #f66c00; stroke: #f66c00; stroke-width: 2"/>
    </g>
    <g clip-path="url(#p7da4a19462)">
     <use xlink:href="#C1_0_e32e6d5fd5" x="199.123323" y="186.892445" style="fill: #ffffff; stroke: #ffffff; stroke-width: 2"/>
    </g>
    <g clip-path="url(#p7da4a19462)">
     <use xlink:href="#C1_0_e32e6d5fd5" x="177.629896" y="186.892445" style="fill: #ffffff; stroke: #ffffff; stroke-width: 2"/>
    </g>
    <g clip-path="url(#p7da4a19462)">
     <use xlink:href="#C1_0_e32e6d5fd5" x="156.136469" y="186.768342" style="fill: #ffffff; stroke: #ffffff; stroke-width: 2"/>
    </g>
    <g clip-path="url(#p7da4a19462)">
     <use xlink:href="#C1_0_e32e6d5fd5" x="134.643042" y="186.892445" style="fill: #ffffff; stroke: #ffffff; stroke-width: 2"/>
    </g>
    <g clip-path="url(#p7da4a19462)">
     <use xlink:href="#C1_0_e32e6d5fd5" x="111.253136" y="194.214528" style="fill: #ffffff; stroke: #ffffff; stroke-width: 2"/>
    </g>
    <g clip-path="url(#p7da4a19462)">
     <use xlink:href="#C1_0_e32e6d5fd5" x="91.529756" y="180.066774" style="fill: #ffffff; stroke: #ffffff; stroke-width: 2"/>
    </g>
    <g clip-path="url(#p7da4a19462)">
     <use xlink:href="#C1_0_e32e6d5fd5" x="91.403324" y="156.114875" style="fill: #ffffff; stroke: #ffffff; stroke-width: 2"/>
    </g>
    <g clip-path="url(#p7da4a19462)">
     <use xlink:href="#C1_0_e32e6d5fd5" x="111.000272" y="141.718916" style="fill: #ffffff; stroke: #ffffff; stroke-width: 2"/>
    </g>
    <g clip-path="url(#p7da4a19462)">
     <use xlink:href="#C1_0_e32e6d5fd5" x="134.390178" y="148.792792" style="fill: #ffffff; stroke: #ffffff; stroke-width: 2"/>
    </g>
    <g clip-path="url(#p7da4a19462)">
     <use xlink:href="#C1_0_e32e6d5fd5" x="155.883605" y="148.668689" style="fill: #ffffff; stroke: #ffffff; stroke-width: 2"/>
    </g>
    <g clip-path="url(#p7da4a19462)">
     <use xlink:href="#C1_0_e32e6d5fd5" x="177.377032" y="148.668689" style="fill: #ffffff; stroke: #ffffff; stroke-width: 2"/>
    </g>
    <g clip-path="url(#p7da4a19462)">
     <use xlink:href="#C1_0_e32e6d5fd5" x="198.870459" y="148.668689" style="fill: #ffffff; stroke: #ffffff; stroke-width: 2"/>
    </g>
    <g clip-path="url(#p7da4a19462)">
     <use xlink:href="#C1_0_e32e6d5fd5" x="220.363886" y="148.668689" style="fill: #f66c00; stroke: #f66c00; stroke-width: 2"/>
    </g>
    <g clip-path="url(#p7da4a19462)">
     <use xlink:href="#C1_0_e32e6d5fd5" x="241.098722" y="133.279905" style="fill: #f66c00; stroke: #f66c00; stroke-width: 2"/>
    </g>
    <g clip-path="url(#p7da4a19462)">
     <use xlink:href="#C1_0_e32e6d5fd5" x="264.109332" y="128.563987" style="fill: #f66c00; stroke: #f66c00; stroke-width: 2"/>
    </g>
    <g clip-path="url(#p7da4a19462)">
     <use xlink:href="#C1_0_e32e6d5fd5" x="285.729191" y="137.251204" style="fill: #ffffff; stroke: #ffffff; stroke-width: 2"/>
    </g>
    <g clip-path="url(#p7da4a19462)">
     <use xlink:href="#C1_0_e32e6d5fd5" x="298.625247" y="156.611288" style="fill: #ffffff; stroke: #ffffff; stroke-width: 2"/>
    </g>
    <g clip-path="url(#p7da4a19462)">
     <use xlink:href="#C1_0_e32e6d5fd5" x="302.291773" y="181.804218" style="fill: #f66c00; stroke: #f66c00; stroke-width: 2"/>
    </g>
    <g clip-path="url(#p7da4a19462)">
     <use xlink:href="#C1_0_e32e6d5fd5" x="317.969331" y="197.068899" style="fill: #f66c00; stroke: #f66c00; stroke-width: 2"/>
    </g>
    <g clip-path="url(#p7da4a19462)">
     <use xlink:href="#C1_0_e32e6d5fd5" x="340.22135" y="203.025848" style="fill: #f66c00; stroke: #f66c00; stroke-width: 2"/>
    </g>
    <g clip-path="url(#p7da4a19462)">
     <use xlink:href="#C1_0_e32e6d5fd5" x="357.28966" y="219.655664" style="fill: #f66c00; stroke: #f66c00; stroke-width: 2"/>
    </g>
    <g clip-path="url(#p7da4a19462)">
     <use xlink:href="#C1_0_e32e6d5fd5" x="357.921819" y="243.235253" style="fill: #ffffff; stroke: #ffffff; stroke-width: 2"/>
    </g>
    <g clip-path="url(#p7da4a19462)">
     <use xlink:href="#C1_0_e32e6d5fd5" x="347.301538" y="263.836368" style="fill: #1c6f2e; stroke: #1c6f2e; stroke-width: 2"/>
    </g>
    <g clip-path="url(#p7da4a19462)">
     <use xlink:href="#C1_0_e32e6d5fd5" x="347.301538" y="286.174926" style="fill: #1c6f2e; stroke: #1c6f2e; stroke-width: 2"/>
    </g>
    <g clip-path="url(#p7da4a19462)">
     <use xlink:href="#C1_0_e32e6d5fd5" x="347.301538" y="308.513485" style="fill: #1c6f2e; stroke: #1c6f2e; stroke-width: 2"/>
    </g>
    <g clip-path="url(#p7da4a19462)">
     <use xlink:href="#C1_0_e32e6d5fd5" x="347.301538" y="330.852043" style="fill: #1c6f2e; stroke: #1c6f2e; stroke-width: 2"/>
    </g>
    <g clip-path="url(#p7da4a19462)">
     <use xlink:href="#C1_0_e32e6d5fd5" x="347.301538" y="353.190602" style="fill: #1c6f2e; stroke: #1c6f2e; stroke-width: 2"/>
    </g>
    <g clip-path="url(#p7da4a19462)">
     <use xlink:href="#C1_0_e32e6d5fd5" x="347.301538" y="375.52916" style="fill: #1c6f2e; stroke: #1c6f2e; stroke-width: 2"/>
    </g>
   </g>
   <g id="PathCollection_3">
    <defs>
     <path id="C2_0_db7c35c421" d="M 3.288577 3.436273 
L 3.288577 0.847965 
L 1.158851 0.847965 
L 1.158851 -0.224127 
L 4.579632 -0.224127 
L 4.579632 3.915513 
Q 3.825656 4.450527 2.914687 4.725263 
Q 2.005784 5 0.972939 5 
Q -1.286924 5 -2.56352 3.680025 
Q -3.83805 2.357984 -3.83805 0.003099 
Q -3.83805 -2.36005 -2.56352 -3.680025 
Q -1.286924 -5 0.972939 -5 
Q 1.914894 -5 2.763892 -4.766577 
Q 3.61289 -4.53522 4.329684 -4.082834 
L 4.329684 -2.694691 
Q 3.606693 -3.308201 2.792811 -3.618054 
Q 1.97893 -3.927907 1.082421 -3.927907 
Q -0.687874 -3.927907 -1.576121 -2.940508 
Q -2.462301 -1.953109 -2.462301 0.003099 
Q -2.462301 1.953109 -1.576121 2.940508 
Q -0.687874 3.927907 1.082421 3.927907 
Q 1.772361 3.927907 2.313572 3.808098 
Q 2.856848 3.688288 3.288577 3.436273 
z
"/>
    </defs>
    <g clip-path="url(#p7da4a19462)">
     <use xlink:href="#C2_0_db7c35c421" x="308.107641" y="375.52916" style="fill: #ffffff; stroke: #ffffff"/>
    </g>
    <g clip-path="url(#p7da4a19462)">
     <use xlink:href="#C2_0_db7c35c421" x="308.107641" y="353.190602" style="fill: #ffffff; stroke: #ffffff"/>
    </g>
    <g clip-path="url(#p7da4a19462)">
     <use xlink:href="#C2_0_db7c35c421" x="274.729613" y="208.734591" style="fill: #ffffff; stroke: #ffffff"/>
    </g>
    <g clip-path="url(#p7da4a19462)">
     <use xlink:href="#C2_0_db7c35c421" x="177.629896" y="186.892445" style="stroke: #000000"/>
    </g>
    <g clip-path="url(#p7da4a19462)">
     <use xlink:href="#C2_0_db7c35c421" x="156.136469" y="186.768342" style="stroke: #000000"/>
    </g>
    <g clip-path="url(#p7da4a19462)">
     <use xlink:href="#C2_0_db7c35c421" x="111.253136" y="194.214528" style="stroke: #000000"/>
    </g>
    <g clip-path="url(#p7da4a19462)">
     <use xlink:href="#C2_0_db7c35c421" x="91.403324" y="156.114875" style="stroke: #000000"/>
    </g>
    <g clip-path="url(#p7da4a19462)">
     <use xlink:href="#C2_0_db7c35c421" x="134.390178" y="148.792792" style="stroke: #000000"/>
    </g>
    <g clip-path="url(#p7da4a19462)">
     <use xlink:href="#C2_0_db7c35c421" x="220.363886" y="148.668689" style="fill: #ffffff; stroke: #ffffff"/>
    </g>
    <g clip-path="url(#p7da4a19462)">
     <use xlink:href="#C2_0_db7c35c421" x="241.098722" y="133.279905" style="fill: #ffffff; stroke: #ffffff"/>
    </g>
    <g clip-path="url(#p7da4a19462)">
     <use xlink:href="#C2_0_db7c35c421" x="317.969331" y="197.068899" style="fill: #ffffff; stroke: #ffffff"/>
    </g>
    <g clip-path="url(#p7da4a19462)">
     <use xlink:href="#C2_0_db7c35c421" x="347.301538" y="263.836368" style="fill: #ffffff; stroke: #ffffff"/>
    </g>
    <g clip-path="url(#p7da4a19462)">
     <use xlink:href="#C2_0_db7c35c421" x="347.301538" y="286.174926" style="fill: #ffffff; stroke: #ffffff"/>
    </g>
   </g>
   <g id="PathCollection_4">
    <defs>
     <path id="C3_0_e81504c52f" d="M -3.170065 -5 
L -1.83519 -5 
L -1.83519 0.959638 
Q -1.83519 2.536262 -1.265503 3.229977 
Q -0.693715 3.921589 0.588606 3.921589 
Q 1.862518 3.921589 2.434307 3.229977 
Q 3.006096 2.536262 3.006096 0.959638 
L 3.006096 -5 
L 4.338869 -5 
L 4.338869 1.123607 
Q 4.338869 3.040782 3.38869 4.020391 
Q 2.440614 5 0.588606 5 
Q -1.27181 5 -2.221989 4.020391 
Q -3.170065 3.040782 -3.170065 1.123607 
L -3.170065 -5 
z
"/>
    </defs>
    <g clip-path="url(#p7da4a19462)">
     <use xlink:href="#C3_0_e81504c52f" x="308.107641" y="308.513485" style="fill: #ffffff; stroke: #ffffff"/>
    </g>
    <g clip-path="url(#p7da4a19462)">
     <use xlink:href="#C3_0_e81504c52f" x="199.123323" y="186.892445" style="stroke: #000000"/>
    </g>
    <g clip-path="url(#p7da4a19462)">
     <use xlink:href="#C3_0_e81504c52f" x="264.109332" y="128.563987" style="fill: #ffffff; stroke: #ffffff"/>
    </g>
    <g clip-path="url(#p7da4a19462)">
     <use xlink:href="#C3_0_e81504c52f" x="357.921819" y="243.235253" style="stroke: #000000"/>
    </g>
    <g clip-path="url(#p7da4a19462)">
     <use xlink:href="#C3_0_e81504c52f" x="347.301538" y="330.852043" style="fill: #ffffff; stroke: #ffffff"/>
    </g>
   </g>
   <g id="PathCollection_5">
    <defs>
     <path id="C4_0_98a281e798" d="M 0.054651 -3.666952 
L -1.78204 1.309473 
L 1.895628 1.309473 
L 0.054651 -3.666952 
z
M -0.710459 -5 
L 0.824046 -5 
L 4.634591 5 
L 3.228676 5 
L 2.317831 2.434634 
L -2.189241 2.434634 
L -3.100086 5 
L -4.527432 5 
L -0.710459 -5 
z
"/>
    </defs>
    <g clip-path="url(#p7da4a19462)">
     <use xlink:href="#C4_0_98a281e798" x="308.107641" y="330.852043" style="fill: #ffffff; stroke: #ffffff"/>
    </g>
    <g clip-path="url(#p7da4a19462)">
     <use xlink:href="#C4_0_98a281e798" x="245.144543" y="203.770467" style="fill: #ffffff; stroke: #ffffff"/>
    </g>
    <g clip-path="url(#p7da4a19462)">
     <use xlink:href="#C4_0_98a281e798" x="91.529756" y="180.066774" style="stroke: #000000"/>
    </g>
    <g clip-path="url(#p7da4a19462)">
     <use xlink:href="#C4_0_98a281e798" x="111.000272" y="141.718916" style="stroke: #000000"/>
    </g>
    <g clip-path="url(#p7da4a19462)">
     <use xlink:href="#C4_0_98a281e798" x="198.870459" y="148.668689" style="stroke: #000000"/>
    </g>
    <g clip-path="url(#p7da4a19462)">
     <use xlink:href="#C4_0_98a281e798" x="285.729191" y="137.251204" style="stroke: #000000"/>
    </g>
    <g clip-path="url(#p7da4a19462)">
     <use xlink:href="#C4_0_98a281e798" x="298.625247" y="156.611288" style="stroke: #000000"/>
    </g>
    <g clip-path="url(#p7da4a19462)">
     <use xlink:href="#C4_0_98a281e798" x="340.22135" y="203.025848" style="fill: #ffffff; stroke: #ffffff"/>
    </g>
    <g clip-path="url(#p7da4a19462)">
     <use xlink:href="#C4_0_98a281e798" x="357.28966" y="219.655664" style="fill: #ffffff; stroke: #ffffff"/>
    </g>
    <g clip-path="url(#p7da4a19462)">
     <use xlink:href="#C4_0_98a281e798" x="347.301538" y="308.513485" style="fill: #ffffff; stroke: #ffffff"/>
    </g>
   </g>
   <g id="PathCollection_6">
    <defs>
     <path id="C5_0_3b762bceb4" d="M 4.257385 -4.082834 
L 4.257385 -2.709151 
Q 3.59843 -3.322661 2.852716 -3.624251 
Q 2.107003 -3.927907 1.268333 -3.927907 
Q -0.384218 -3.927907 -1.262136 -2.917786 
Q -2.140054 -1.907664 -2.140054 0.003099 
Q -2.140054 1.907664 -1.262136 2.917786 
Q -0.384218 3.927907 1.268333 3.927907 
Q 2.107003 3.927907 2.852716 3.624251 
Q 3.59843 3.320595 4.257385 2.707085 
L 4.257385 4.07044 
Q 3.573642 4.53522 2.807271 4.768643 
Q 2.042966 5 1.191902 5 
Q -0.997728 5 -2.257798 3.661434 
Q -3.515803 2.320801 -3.515803 0.003099 
Q -3.515803 -2.320801 -2.257798 -3.659368 
Q -0.997728 -5 1.191902 -5 
Q 2.05536 -5 2.819665 -4.770709 
Q 3.586036 -4.541417 4.257385 -4.082834 
z
"/>
    </defs>
    <g clip-path="url(#p7da4a19462)">
     <use xlink:href="#C5_0_3b762bceb4" x="308.107641" y="286.174926" style="fill: #ffffff; stroke: #ffffff"/>
    </g>
    <g clip-path="url(#p7da4a19462)">
     <use xlink:href="#C5_0_3b762bceb4" x="308.107641" y="263.836368" style="stroke: #000000"/>
    </g>
    <g clip-path="url(#p7da4a19462)">
     <use xlink:href="#C5_0_3b762bceb4" x="290.407172" y="223.999272" style="fill: #ffffff; stroke: #ffffff"/>
    </g>
    <g clip-path="url(#p7da4a19462)">
     <use xlink:href="#C5_0_3b762bceb4" x="220.61675" y="186.892445" style="fill: #ffffff; stroke: #ffffff"/>
    </g>
    <g clip-path="url(#p7da4a19462)">
     <use xlink:href="#C5_0_3b762bceb4" x="134.643042" y="186.892445" style="stroke: #000000"/>
    </g>
    <g clip-path="url(#p7da4a19462)">
     <use xlink:href="#C5_0_3b762bceb4" x="155.883605" y="148.668689" style="stroke: #000000"/>
    </g>
    <g clip-path="url(#p7da4a19462)">
     <use xlink:href="#C5_0_3b762bceb4" x="177.377032" y="148.668689" style="stroke: #000000"/>
    </g>
    <g clip-path="url(#p7da4a19462)">
     <use xlink:href="#C5_0_3b762bceb4" x="302.291773" y="181.804218" style="fill: #ffffff; stroke: #ffffff"/>
    </g>
    <g clip-path="url(#p7da4a19462)">
     <use xlink:href="#C5_0_3b762bceb4" x="347.301538" y="353.190602" style="fill: #ffffff; stroke: #ffffff"/>
    </g>
    <g clip-path="url(#p7da4a19462)">
     <use xlink:href="#C5_0_3b762bceb4" x="347.301538" y="375.52916" style="fill: #ffffff; stroke: #ffffff"/>
    </g>
   </g>
   <g id="PathCollection_7"/>
   <g id="PathCollection_8"/>
   <g id="PathCollection_9"/>
   <g id="PathCollection_10"/>
  </g>
 </g>
 <defs>
  <clipPath id="p7da4a19462">
   <rect x="39.135546" y="77.991167" width="371.054051" height="348.110813"/>
  </clipPath>
 </defs>
</svg>
