<?xml version="1.0" encoding="utf-8" standalone="no"?>
<!DOCTYPE svg PUBLIC "-//W3C//DTD SVG 1.1//EN"
  "http://www.w3.org/Graphics/SVG/1.1/DTD/svg11.dtd">
<svg xmlns:xlink="http://www.w3.org/1999/xlink" width="274.306959pt" height="425.170148pt" viewBox="0 0 274.306959 425.170148" xmlns="http://www.w3.org/2000/svg" version="1.1">
 <metadata>
  <rdf:RDF xmlns:dc="http://purl.org/dc/elements/1.1/" xmlns:cc="http://creativecommons.org/ns#" xmlns:rdf="http://www.w3.org/1999/02/22-rdf-syntax-ns#">
   <cc:Work>
    <dc:type rdf:resource="http://purl.org/dc/dcmitype/StillImage"/>
    <dc:date>2023-10-13T16:35:08.528060</dc:date>
    <dc:format>image/svg+xml</dc:format>
    <dc:creator>
     <cc:Agent>
      <dc:title>Matplotlib v3.6.3, https://matplotlib.org/</dc:title>
     </cc:Agent>
    </dc:creator>
   </cc:Work>
  </rdf:RDF>
 </metadata>
 <defs>
  <style type="text/css">*{stroke-linejoin: round; stroke-linecap: butt}</style>
 </defs>
 <g id="figure_1">
  <g id="patch_1">
   <path d="M 0 425.170148 
L 274.306959 425.170148 
L 274.306959 0 
L 0 0 
z
" style="fill: #ffffff"/>
  </g>
  <g id="axes_1">
   <g id="line2d_1">
    <path d="M 96.812709 127.29171 
L 111.425906 127.247645 
" clip-path="url(#p1f731e19cb)" style="fill: none; stroke: #808080; stroke-width: 3; stroke-linecap: round"/>
   </g>
   <g id="line2d_2">
    <path d="M 96.812765 147.984258 
L 111.425851 147.984258 
" clip-path="url(#p1f731e19cb)" style="fill: none; stroke: #808080; stroke-width: 3; stroke-linecap: round"/>
   </g>
   <g id="line2d_3">
    <path d="M 96.812264 168.884332 
L 111.426352 168.752129 
" clip-path="url(#p1f731e19cb)" style="fill: none; stroke: #808080; stroke-width: 3; stroke-linecap: round"/>
   </g>
   <g id="line2d_4">
    <path d="M 96.930059 189.6205 
L 111.426746 189.445122 
" clip-path="url(#p1f731e19cb)" style="fill: none; stroke: #808080; stroke-width: 3; stroke-linecap: round"/>
   </g>
   <g id="line2d_5">
    <path d="M 96.694352 210.231761 
L 111.307883 210.143629 
" clip-path="url(#p1f731e19cb)" style="fill: none; stroke: #808080; stroke-width: 3; stroke-linecap: round"/>
   </g>
   <g id="line2d_6">
    <path d="M 136.28731 333.241449 
L 148.77496 333.082274 
" clip-path="url(#p1f731e19cb)" style="fill: none; stroke: #808080; stroke-width: 3; stroke-linecap: round"/>
   </g>
   <g id="line2d_7">
    <path d="M 136.28731 312.705958 
L 148.77496 312.546782 
" clip-path="url(#p1f731e19cb)" style="fill: none; stroke: #808080; stroke-width: 3; stroke-linecap: round"/>
   </g>
   <g id="line2d_8">
    <path d="M 136.28731 292.170466 
L 148.77496 292.01129 
" clip-path="url(#p1f731e19cb)" style="fill: none; stroke: #808080; stroke-width: 3; stroke-linecap: round"/>
   </g>
   <g id="line2d_9">
    <path d="M 136.28731 271.634974 
L 148.77496 271.475798 
" clip-path="url(#p1f731e19cb)" style="fill: none; stroke: #808080; stroke-width: 3; stroke-linecap: round"/>
   </g>
   <g id="line2d_10">
    <path d="M 136.28731 251.099482 
L 148.77496 250.940306 
" clip-path="url(#p1f731e19cb)" style="fill: none; stroke: #808080; stroke-width: 3; stroke-linecap: round"/>
   </g>
   <g id="line2d_11">
    <path d="M 136.286751 230.5242 
L 148.775519 230.325213 
" clip-path="url(#p1f731e19cb)" style="fill: none; stroke: #808080; stroke-width: 3; stroke-linecap: round"/>
   </g>
   <g id="LineCollection_1">
    <path d="M 84.322443 127.329373 
L 84.322443 137.656816 
L 84.322443 147.984258 
L 84.322443 158.490788 
L 84.322443 168.997319 
L 84.381538 179.384458 
L 84.440633 189.771596 
L 84.322443 200.039342 
L 84.204253 210.307088 
L 84.381538 220.933011 
L 84.558823 231.558934 
L 84.499728 282.599183 
L 84.440633 333.639431 
L 104.119308 333.520039 
L 123.797982 333.400646 
L 123.797982 323.132901 
L 123.797982 312.865155 
L 123.797982 302.597409 
L 123.797982 292.329663 
L 123.797982 282.061917 
L 123.797982 271.794171 
L 123.797982 261.526425 
L 123.797982 251.258679 
L 123.797982 240.990933 
L 123.797982 230.723187 
L 123.797982 220.395745 
L 123.797982 210.068303 
L 123.857078 199.681165 
L 123.916173 189.294026 
L 123.916173 178.966584 
L 123.916173 168.639142 
L 123.916173 158.3117 
L 123.916173 147.984258 
L 123.916173 137.597119 
L 123.916173 127.209981 
L 135.08515 127.030892 
L 146.254128 126.851804 
L 156.595774 131.209626 
L 166.937419 135.567449 
L 174.67888 143.686132 
L 182.420341 151.804814 
L 186.261523 162.430737 
L 190.102706 173.056661 
L 189.393565 184.339242 
L 188.684423 195.621823 
L 183.602243 205.710481 
L 178.520063 215.799138 
L 169.892175 222.962682 
L 161.264288 230.126225 
L 161.264288 240.453667 
L 161.264288 250.781109 
L 161.264288 261.048855 
L 161.264288 271.316601 
L 161.264288 281.584347 
L 161.264288 291.852093 
L 161.264288 302.119839 
L 161.264288 312.387585 
L 161.264288 322.655331 
L 161.264288 332.923077 
" clip-path="url(#p1f731e19cb)" style="fill: none; stroke: #808080; stroke-width: 3"/>
   </g>
   <g id="text_1">
    <text style="fill: #262626; font: 24px 'Arial', 'DejaVu Sans', 'Liberation Sans', 'Bitstream Vera Sans', sans-serif; text-anchor: middle" x="137.153479" y="72.660326" transform="rotate(-0 137.153479 72.660326)">1f27</text>
   </g>
   <g id="PathCollection_1">
    <defs>
     <path id="C0_0_0e3cc86ab4" d="M 0 8 
C 2.121625 8 4.156639 7.15707 5.656854 5.656854 
C 7.15707 4.156639 8 2.121625 8 -0 
C 8 -2.121625 7.15707 -4.156639 5.656854 -5.656854 
C 4.156639 -7.15707 2.121625 -8 0 -8 
C -2.121625 -8 -4.156639 -7.15707 -5.656854 -5.656854 
C -7.15707 -4.156639 -8 -2.121625 -8 0 
C -8 2.121625 -7.15707 4.156639 -5.656854 5.656854 
C -4.156639 7.15707 -2.121625 8 0 8 
z
"/>
    </defs>
    <g clip-path="url(#p1f731e19cb)">
     <use xlink:href="#C0_0_0e3cc86ab4" x="84.322443" y="127.329373" style="fill: #ffffff; stroke: #ffffff; stroke-width: 2"/>
    </g>
    <g clip-path="url(#p1f731e19cb)">
     <use xlink:href="#C0_0_0e3cc86ab4" x="84.322443" y="147.984258" style="fill: #ffffff; stroke: #ffffff; stroke-width: 2"/>
    </g>
    <g clip-path="url(#p1f731e19cb)">
     <use xlink:href="#C0_0_0e3cc86ab4" x="84.322443" y="168.997319" style="fill: #ffffff; stroke: #ffffff; stroke-width: 2"/>
    </g>
    <g clip-path="url(#p1f731e19cb)">
     <use xlink:href="#C0_0_0e3cc86ab4" x="84.440633" y="189.771596" style="fill: #f66c00; stroke: #f66c00; stroke-width: 2"/>
    </g>
    <g clip-path="url(#p1f731e19cb)">
     <use xlink:href="#C0_0_0e3cc86ab4" x="84.204253" y="210.307088" style="fill: #f66c00; stroke: #f66c00; stroke-width: 2"/>
    </g>
    <g clip-path="url(#p1f731e19cb)">
     <use xlink:href="#C0_0_0e3cc86ab4" x="84.558823" y="231.558934" style="fill: #f66c00; stroke: #f66c00; stroke-width: 2"/>
    </g>
    <g clip-path="url(#p1f731e19cb)">
     <use xlink:href="#C0_0_0e3cc86ab4" x="84.440633" y="333.639431" style="fill: #ffffff; stroke: #ffffff; stroke-width: 2"/>
    </g>
    <g clip-path="url(#p1f731e19cb)">
     <use xlink:href="#C0_0_0e3cc86ab4" x="123.797982" y="333.400646" style="fill: #ffffff; stroke: #ffffff; stroke-width: 2"/>
    </g>
    <g clip-path="url(#p1f731e19cb)">
     <use xlink:href="#C0_0_0e3cc86ab4" x="123.797982" y="312.865155" style="fill: #ffffff; stroke: #ffffff; stroke-width: 2"/>
    </g>
    <g clip-path="url(#p1f731e19cb)">
     <use xlink:href="#C0_0_0e3cc86ab4" x="123.797982" y="292.329663" style="fill: #ffffff; stroke: #ffffff; stroke-width: 2"/>
    </g>
    <g clip-path="url(#p1f731e19cb)">
     <use xlink:href="#C0_0_0e3cc86ab4" x="123.797982" y="271.794171" style="fill: #ffffff; stroke: #ffffff; stroke-width: 2"/>
    </g>
    <g clip-path="url(#p1f731e19cb)">
     <use xlink:href="#C0_0_0e3cc86ab4" x="123.797982" y="251.258679" style="fill: #ffffff; stroke: #ffffff; stroke-width: 2"/>
    </g>
    <g clip-path="url(#p1f731e19cb)">
     <use xlink:href="#C0_0_0e3cc86ab4" x="123.797982" y="230.723187" style="fill: #ffffff; stroke: #ffffff; stroke-width: 2"/>
    </g>
    <g clip-path="url(#p1f731e19cb)">
     <use xlink:href="#C0_0_0e3cc86ab4" x="123.797982" y="210.068303" style="fill: #f66c00; stroke: #f66c00; stroke-width: 2"/>
    </g>
    <g clip-path="url(#p1f731e19cb)">
     <use xlink:href="#C0_0_0e3cc86ab4" x="123.916173" y="189.294026" style="fill: #f66c00; stroke: #f66c00; stroke-width: 2"/>
    </g>
    <g clip-path="url(#p1f731e19cb)">
     <use xlink:href="#C0_0_0e3cc86ab4" x="123.916173" y="168.639142" style="fill: #ffffff; stroke: #ffffff; stroke-width: 2"/>
    </g>
    <g clip-path="url(#p1f731e19cb)">
     <use xlink:href="#C0_0_0e3cc86ab4" x="123.916173" y="147.984258" style="fill: #ffffff; stroke: #ffffff; stroke-width: 2"/>
    </g>
    <g clip-path="url(#p1f731e19cb)">
     <use xlink:href="#C0_0_0e3cc86ab4" x="123.916173" y="127.209981" style="fill: #ffffff; stroke: #ffffff; stroke-width: 2"/>
    </g>
    <g clip-path="url(#p1f731e19cb)">
     <use xlink:href="#C0_0_0e3cc86ab4" x="146.254128" y="126.851804" style="fill: #ffffff; stroke: #ffffff; stroke-width: 2"/>
    </g>
    <g clip-path="url(#p1f731e19cb)">
     <use xlink:href="#C0_0_0e3cc86ab4" x="166.937419" y="135.567449" style="fill: #ffffff; stroke: #ffffff; stroke-width: 2"/>
    </g>
    <g clip-path="url(#p1f731e19cb)">
     <use xlink:href="#C0_0_0e3cc86ab4" x="182.420341" y="151.804814" style="fill: #ffffff; stroke: #ffffff; stroke-width: 2"/>
    </g>
    <g clip-path="url(#p1f731e19cb)">
     <use xlink:href="#C0_0_0e3cc86ab4" x="190.102706" y="173.056661" style="fill: #ffffff; stroke: #ffffff; stroke-width: 2"/>
    </g>
    <g clip-path="url(#p1f731e19cb)">
     <use xlink:href="#C0_0_0e3cc86ab4" x="188.684423" y="195.621823" style="fill: #ffffff; stroke: #ffffff; stroke-width: 2"/>
    </g>
    <g clip-path="url(#p1f731e19cb)">
     <use xlink:href="#C0_0_0e3cc86ab4" x="178.520063" y="215.799138" style="fill: #f66c00; stroke: #f66c00; stroke-width: 2"/>
    </g>
    <g clip-path="url(#p1f731e19cb)">
     <use xlink:href="#C0_0_0e3cc86ab4" x="161.264288" y="230.126225" style="fill: #f66c00; stroke: #f66c00; stroke-width: 2"/>
    </g>
    <g clip-path="url(#p1f731e19cb)">
     <use xlink:href="#C0_0_0e3cc86ab4" x="161.264288" y="250.781109" style="fill: #ffffff; stroke: #ffffff; stroke-width: 2"/>
    </g>
    <g clip-path="url(#p1f731e19cb)">
     <use xlink:href="#C0_0_0e3cc86ab4" x="161.264288" y="271.316601" style="fill: #ffffff; stroke: #ffffff; stroke-width: 2"/>
    </g>
    <g clip-path="url(#p1f731e19cb)">
     <use xlink:href="#C0_0_0e3cc86ab4" x="161.264288" y="291.852093" style="fill: #ffffff; stroke: #ffffff; stroke-width: 2"/>
    </g>
    <g clip-path="url(#p1f731e19cb)">
     <use xlink:href="#C0_0_0e3cc86ab4" x="161.264288" y="312.387585" style="fill: #ffffff; stroke: #ffffff; stroke-width: 2"/>
    </g>
    <g clip-path="url(#p1f731e19cb)">
     <use xlink:href="#C0_0_0e3cc86ab4" x="161.264288" y="332.923077" style="fill: #ffffff; stroke: #ffffff; stroke-width: 2"/>
    </g>
   </g>
   <g id="PathCollection_2">
    <defs>
     <path id="C1_0_3af5e2c1a0" d="M 0 10 
C 2.652031 10 5.195799 8.946337 7.071068 7.071068 
C 8.946337 5.195799 10 2.652031 10 -0 
C 10 -2.652031 8.946337 -5.195799 7.071068 -7.071068 
C 5.195799 -8.946337 2.652031 -10 0 -10 
C -2.652031 -10 -5.195799 -8.946337 -7.071068 -7.071068 
C -8.946337 -5.195799 -10 -2.652031 -10 0 
C -10 2.652031 -8.946337 5.195799 -7.071068 7.071068 
C -5.195799 8.946337 -2.652031 10 0 10 
z
"/>
    </defs>
    <g clip-path="url(#p1f731e19cb)">
     <use xlink:href="#C1_0_3af5e2c1a0" x="84.322443" y="127.329373" style="fill: #ffffff; stroke: #ffffff; stroke-width: 2"/>
    </g>
    <g clip-path="url(#p1f731e19cb)">
     <use xlink:href="#C1_0_3af5e2c1a0" x="84.322443" y="147.984258" style="fill: #ffffff; stroke: #ffffff; stroke-width: 2"/>
    </g>
    <g clip-path="url(#p1f731e19cb)">
     <use xlink:href="#C1_0_3af5e2c1a0" x="84.322443" y="168.997319" style="fill: #ffffff; stroke: #ffffff; stroke-width: 2"/>
    </g>
    <g clip-path="url(#p1f731e19cb)">
     <use xlink:href="#C1_0_3af5e2c1a0" x="84.440633" y="189.771596" style="fill: #f66c00; stroke: #f66c00; stroke-width: 2"/>
    </g>
    <g clip-path="url(#p1f731e19cb)">
     <use xlink:href="#C1_0_3af5e2c1a0" x="84.204253" y="210.307088" style="fill: #f66c00; stroke: #f66c00; stroke-width: 2"/>
    </g>
    <g clip-path="url(#p1f731e19cb)">
     <use xlink:href="#C1_0_3af5e2c1a0" x="84.558823" y="231.558934" style="fill: #f66c00; stroke: #f66c00; stroke-width: 2"/>
    </g>
    <g clip-path="url(#p1f731e19cb)">
     <use xlink:href="#C1_0_3af5e2c1a0" x="84.440633" y="333.639431" style="fill: #ffffff; stroke: #ffffff; stroke-width: 2"/>
    </g>
    <g clip-path="url(#p1f731e19cb)">
     <use xlink:href="#C1_0_3af5e2c1a0" x="123.797982" y="333.400646" style="fill: #ffffff; stroke: #ffffff; stroke-width: 2"/>
    </g>
    <g clip-path="url(#p1f731e19cb)">
     <use xlink:href="#C1_0_3af5e2c1a0" x="123.797982" y="312.865155" style="fill: #ffffff; stroke: #ffffff; stroke-width: 2"/>
    </g>
    <g clip-path="url(#p1f731e19cb)">
     <use xlink:href="#C1_0_3af5e2c1a0" x="123.797982" y="292.329663" style="fill: #ffffff; stroke: #ffffff; stroke-width: 2"/>
    </g>
    <g clip-path="url(#p1f731e19cb)">
     <use xlink:href="#C1_0_3af5e2c1a0" x="123.797982" y="271.794171" style="fill: #ffffff; stroke: #ffffff; stroke-width: 2"/>
    </g>
    <g clip-path="url(#p1f731e19cb)">
     <use xlink:href="#C1_0_3af5e2c1a0" x="123.797982" y="251.258679" style="fill: #ffffff; stroke: #ffffff; stroke-width: 2"/>
    </g>
    <g clip-path="url(#p1f731e19cb)">
     <use xlink:href="#C1_0_3af5e2c1a0" x="123.797982" y="230.723187" style="fill: #ffffff; stroke: #ffffff; stroke-width: 2"/>
    </g>
    <g clip-path="url(#p1f731e19cb)">
     <use xlink:href="#C1_0_3af5e2c1a0" x="123.797982" y="210.068303" style="fill: #f66c00; stroke: #f66c00; stroke-width: 2"/>
    </g>
    <g clip-path="url(#p1f731e19cb)">
     <use xlink:href="#C1_0_3af5e2c1a0" x="123.916173" y="189.294026" style="fill: #f66c00; stroke: #f66c00; stroke-width: 2"/>
    </g>
    <g clip-path="url(#p1f731e19cb)">
     <use xlink:href="#C1_0_3af5e2c1a0" x="123.916173" y="168.639142" style="fill: #ffffff; stroke: #ffffff; stroke-width: 2"/>
    </g>
    <g clip-path="url(#p1f731e19cb)">
     <use xlink:href="#C1_0_3af5e2c1a0" x="123.916173" y="147.984258" style="fill: #ffffff; stroke: #ffffff; stroke-width: 2"/>
    </g>
    <g clip-path="url(#p1f731e19cb)">
     <use xlink:href="#C1_0_3af5e2c1a0" x="123.916173" y="127.209981" style="fill: #ffffff; stroke: #ffffff; stroke-width: 2"/>
    </g>
    <g clip-path="url(#p1f731e19cb)">
     <use xlink:href="#C1_0_3af5e2c1a0" x="146.254128" y="126.851804" style="fill: #ffffff; stroke: #ffffff; stroke-width: 2"/>
    </g>
    <g clip-path="url(#p1f731e19cb)">
     <use xlink:href="#C1_0_3af5e2c1a0" x="166.937419" y="135.567449" style="fill: #ffffff; stroke: #ffffff; stroke-width: 2"/>
    </g>
    <g clip-path="url(#p1f731e19cb)">
     <use xlink:href="#C1_0_3af5e2c1a0" x="182.420341" y="151.804814" style="fill: #ffffff; stroke: #ffffff; stroke-width: 2"/>
    </g>
    <g clip-path="url(#p1f731e19cb)">
     <use xlink:href="#C1_0_3af5e2c1a0" x="190.102706" y="173.056661" style="fill: #ffffff; stroke: #ffffff; stroke-width: 2"/>
    </g>
    <g clip-path="url(#p1f731e19cb)">
     <use xlink:href="#C1_0_3af5e2c1a0" x="188.684423" y="195.621823" style="fill: #ffffff; stroke: #ffffff; stroke-width: 2"/>
    </g>
    <g clip-path="url(#p1f731e19cb)">
     <use xlink:href="#C1_0_3af5e2c1a0" x="178.520063" y="215.799138" style="fill: #f66c00; stroke: #f66c00; stroke-width: 2"/>
    </g>
    <g clip-path="url(#p1f731e19cb)">
     <use xlink:href="#C1_0_3af5e2c1a0" x="161.264288" y="230.126225" style="fill: #f66c00; stroke: #f66c00; stroke-width: 2"/>
    </g>
    <g clip-path="url(#p1f731e19cb)">
     <use xlink:href="#C1_0_3af5e2c1a0" x="161.264288" y="250.781109" style="fill: #ffffff; stroke: #ffffff; stroke-width: 2"/>
    </g>
    <g clip-path="url(#p1f731e19cb)">
     <use xlink:href="#C1_0_3af5e2c1a0" x="161.264288" y="271.316601" style="fill: #ffffff; stroke: #ffffff; stroke-width: 2"/>
    </g>
    <g clip-path="url(#p1f731e19cb)">
     <use xlink:href="#C1_0_3af5e2c1a0" x="161.264288" y="291.852093" style="fill: #ffffff; stroke: #ffffff; stroke-width: 2"/>
    </g>
    <g clip-path="url(#p1f731e19cb)">
     <use xlink:href="#C1_0_3af5e2c1a0" x="161.264288" y="312.387585" style="fill: #ffffff; stroke: #ffffff; stroke-width: 2"/>
    </g>
    <g clip-path="url(#p1f731e19cb)">
     <use xlink:href="#C1_0_3af5e2c1a0" x="161.264288" y="332.923077" style="fill: #ffffff; stroke: #ffffff; stroke-width: 2"/>
    </g>
   </g>
   <g id="PathCollection_3">
    <defs>
     <path id="C2_0_f418ef5225" d="M 3.288577 3.436273 
L 3.288577 0.847965 
L 1.158851 0.847965 
L 1.158851 -0.224127 
L 4.579632 -0.224127 
L 4.579632 3.915513 
Q 3.825656 4.450527 2.914687 4.725263 
Q 2.005784 5 0.972939 5 
Q -1.286924 5 -2.56352 3.680025 
Q -3.83805 2.357984 -3.83805 0.003099 
Q -3.83805 -2.36005 -2.56352 -3.680025 
Q -1.286924 -5 0.972939 -5 
Q 1.914894 -5 2.763892 -4.766577 
Q 3.61289 -4.53522 4.329684 -4.082834 
L 4.329684 -2.694691 
Q 3.606693 -3.308201 2.792811 -3.618054 
Q 1.97893 -3.927907 1.082421 -3.927907 
Q -0.687874 -3.927907 -1.576121 -2.940508 
Q -2.462301 -1.953109 -2.462301 0.003099 
Q -2.462301 1.953109 -1.576121 2.940508 
Q -0.687874 3.927907 1.082421 3.927907 
Q 1.772361 3.927907 2.313572 3.808098 
Q 2.856848 3.688288 3.288577 3.436273 
z
"/>
    </defs>
    <g clip-path="url(#p1f731e19cb)">
     <use xlink:href="#C2_0_f418ef5225" x="84.440633" y="189.771596" style="fill: #ffffff; stroke: #ffffff"/>
    </g>
    <g clip-path="url(#p1f731e19cb)">
     <use xlink:href="#C2_0_f418ef5225" x="123.797982" y="333.400646" style="stroke: #000000"/>
    </g>
    <g clip-path="url(#p1f731e19cb)">
     <use xlink:href="#C2_0_f418ef5225" x="123.797982" y="292.329663" style="stroke: #000000"/>
    </g>
    <g clip-path="url(#p1f731e19cb)">
     <use xlink:href="#C2_0_f418ef5225" x="123.797982" y="271.794171" style="stroke: #000000"/>
    </g>
    <g clip-path="url(#p1f731e19cb)">
     <use xlink:href="#C2_0_f418ef5225" x="123.916173" y="168.639142" style="stroke: #000000"/>
    </g>
    <g clip-path="url(#p1f731e19cb)">
     <use xlink:href="#C2_0_f418ef5225" x="123.916173" y="147.984258" style="stroke: #000000"/>
    </g>
    <g clip-path="url(#p1f731e19cb)">
     <use xlink:href="#C2_0_f418ef5225" x="161.264288" y="230.126225" style="fill: #ffffff; stroke: #ffffff"/>
    </g>
   </g>
   <g id="PathCollection_4">
    <defs>
     <path id="C3_0_4c3ddd9226" d="M -3.170065 -5 
L -1.83519 -5 
L -1.83519 0.959638 
Q -1.83519 2.536262 -1.265503 3.229977 
Q -0.693715 3.921589 0.588606 3.921589 
Q 1.862518 3.921589 2.434307 3.229977 
Q 3.006096 2.536262 3.006096 0.959638 
L 3.006096 -5 
L 4.338869 -5 
L 4.338869 1.123607 
Q 4.338869 3.040782 3.38869 4.020391 
Q 2.440614 5 0.588606 5 
Q -1.27181 5 -2.221989 4.020391 
Q -3.170065 3.040782 -3.170065 1.123607 
L -3.170065 -5 
z
"/>
    </defs>
    <g clip-path="url(#p1f731e19cb)">
     <use xlink:href="#C3_0_4c3ddd9226" x="84.204253" y="210.307088" style="fill: #ffffff; stroke: #ffffff"/>
    </g>
    <g clip-path="url(#p1f731e19cb)">
     <use xlink:href="#C3_0_4c3ddd9226" x="123.916173" y="127.209981" style="stroke: #000000"/>
    </g>
    <g clip-path="url(#p1f731e19cb)">
     <use xlink:href="#C3_0_4c3ddd9226" x="146.254128" y="126.851804" style="stroke: #000000"/>
    </g>
    <g clip-path="url(#p1f731e19cb)">
     <use xlink:href="#C3_0_4c3ddd9226" x="161.264288" y="250.781109" style="stroke: #000000"/>
    </g>
    <g clip-path="url(#p1f731e19cb)">
     <use xlink:href="#C3_0_4c3ddd9226" x="161.264288" y="312.387585" style="stroke: #000000"/>
    </g>
   </g>
   <g id="PathCollection_5">
    <defs>
     <path id="C4_0_bc8a24da68" d="M 0.054651 -3.666952 
L -1.78204 1.309473 
L 1.895628 1.309473 
L 0.054651 -3.666952 
z
M -0.710459 -5 
L 0.824046 -5 
L 4.634591 5 
L 3.228676 5 
L 2.317831 2.434634 
L -2.189241 2.434634 
L -3.100086 5 
L -4.527432 5 
L -0.710459 -5 
z
"/>
    </defs>
    <g clip-path="url(#p1f731e19cb)">
     <use xlink:href="#C4_0_bc8a24da68" x="84.322443" y="127.329373" style="stroke: #000000"/>
    </g>
    <g clip-path="url(#p1f731e19cb)">
     <use xlink:href="#C4_0_bc8a24da68" x="84.440633" y="333.639431" style="stroke: #000000"/>
    </g>
    <g clip-path="url(#p1f731e19cb)">
     <use xlink:href="#C4_0_bc8a24da68" x="123.797982" y="312.865155" style="stroke: #000000"/>
    </g>
    <g clip-path="url(#p1f731e19cb)">
     <use xlink:href="#C4_0_bc8a24da68" x="123.797982" y="251.258679" style="stroke: #000000"/>
    </g>
    <g clip-path="url(#p1f731e19cb)">
     <use xlink:href="#C4_0_bc8a24da68" x="123.797982" y="210.068303" style="fill: #ffffff; stroke: #ffffff"/>
    </g>
    <g clip-path="url(#p1f731e19cb)">
     <use xlink:href="#C4_0_bc8a24da68" x="166.937419" y="135.567449" style="stroke: #000000"/>
    </g>
    <g clip-path="url(#p1f731e19cb)">
     <use xlink:href="#C4_0_bc8a24da68" x="182.420341" y="151.804814" style="stroke: #000000"/>
    </g>
    <g clip-path="url(#p1f731e19cb)">
     <use xlink:href="#C4_0_bc8a24da68" x="190.102706" y="173.056661" style="stroke: #000000"/>
    </g>
    <g clip-path="url(#p1f731e19cb)">
     <use xlink:href="#C4_0_bc8a24da68" x="188.684423" y="195.621823" style="stroke: #000000"/>
    </g>
    <g clip-path="url(#p1f731e19cb)">
     <use xlink:href="#C4_0_bc8a24da68" x="178.520063" y="215.799138" style="fill: #ffffff; stroke: #ffffff"/>
    </g>
   </g>
   <g id="PathCollection_6">
    <defs>
     <path id="C5_0_92fed8a89d" d="M 4.257385 -4.082834 
L 4.257385 -2.709151 
Q 3.59843 -3.322661 2.852716 -3.624251 
Q 2.107003 -3.927907 1.268333 -3.927907 
Q -0.384218 -3.927907 -1.262136 -2.917786 
Q -2.140054 -1.907664 -2.140054 0.003099 
Q -2.140054 1.907664 -1.262136 2.917786 
Q -0.384218 3.927907 1.268333 3.927907 
Q 2.107003 3.927907 2.852716 3.624251 
Q 3.59843 3.320595 4.257385 2.707085 
L 4.257385 4.07044 
Q 3.573642 4.53522 2.807271 4.768643 
Q 2.042966 5 1.191902 5 
Q -0.997728 5 -2.257798 3.661434 
Q -3.515803 2.320801 -3.515803 0.003099 
Q -3.515803 -2.320801 -2.257798 -3.659368 
Q -0.997728 -5 1.191902 -5 
Q 2.05536 -5 2.819665 -4.770709 
Q 3.586036 -4.541417 4.257385 -4.082834 
z
"/>
    </defs>
    <g clip-path="url(#p1f731e19cb)">
     <use xlink:href="#C5_0_92fed8a89d" x="84.322443" y="147.984258" style="stroke: #000000"/>
    </g>
    <g clip-path="url(#p1f731e19cb)">
     <use xlink:href="#C5_0_92fed8a89d" x="84.322443" y="168.997319" style="stroke: #000000"/>
    </g>
    <g clip-path="url(#p1f731e19cb)">
     <use xlink:href="#C5_0_92fed8a89d" x="84.558823" y="231.558934" style="fill: #ffffff; stroke: #ffffff"/>
    </g>
    <g clip-path="url(#p1f731e19cb)">
     <use xlink:href="#C5_0_92fed8a89d" x="123.797982" y="230.723187" style="stroke: #000000"/>
    </g>
    <g clip-path="url(#p1f731e19cb)">
     <use xlink:href="#C5_0_92fed8a89d" x="123.916173" y="189.294026" style="fill: #ffffff; stroke: #ffffff"/>
    </g>
    <g clip-path="url(#p1f731e19cb)">
     <use xlink:href="#C5_0_92fed8a89d" x="161.264288" y="271.316601" style="stroke: #000000"/>
    </g>
    <g clip-path="url(#p1f731e19cb)">
     <use xlink:href="#C5_0_92fed8a89d" x="161.264288" y="291.852093" style="stroke: #000000"/>
    </g>
    <g clip-path="url(#p1f731e19cb)">
     <use xlink:href="#C5_0_92fed8a89d" x="161.264288" y="332.923077" style="stroke: #000000"/>
    </g>
   </g>
   <g id="PathCollection_7"/>
   <g id="PathCollection_8"/>
   <g id="PathCollection_9"/>
   <g id="PathCollection_10"/>
  </g>
 </g>
 <defs>
  <clipPath id="p1f731e19cb">
   <rect x="41.438364" y="78.660326" width="191.430231" height="303.170583"/>
  </clipPath>
 </defs>
</svg>
