<?xml version="1.0" encoding="utf-8" standalone="no"?>
<!DOCTYPE svg PUBLIC "-//W3C//DTD SVG 1.1//EN"
  "http://www.w3.org/Graphics/SVG/1.1/DTD/svg11.dtd">
<svg xmlns:xlink="http://www.w3.org/1999/xlink" width="291.920687pt" height="585.602186pt" viewBox="0 0 291.920687 585.602186" xmlns="http://www.w3.org/2000/svg" version="1.1">
 <metadata>
  <rdf:RDF xmlns:dc="http://purl.org/dc/elements/1.1/" xmlns:cc="http://creativecommons.org/ns#" xmlns:rdf="http://www.w3.org/1999/02/22-rdf-syntax-ns#">
   <cc:Work>
    <dc:type rdf:resource="http://purl.org/dc/dcmitype/StillImage"/>
    <dc:date>2023-10-13T16:37:50.696137</dc:date>
    <dc:format>image/svg+xml</dc:format>
    <dc:creator>
     <cc:Agent>
      <dc:title>Matplotlib v3.6.3, https://matplotlib.org/</dc:title>
     </cc:Agent>
    </dc:creator>
   </cc:Work>
  </rdf:RDF>
 </metadata>
 <defs>
  <style type="text/css">*{stroke-linejoin: round; stroke-linecap: butt}</style>
 </defs>
 <g id="figure_1">
  <g id="patch_1">
   <path d="M 0 585.602186 
L 291.920687 585.602186 
L 291.920687 0 
L 0 0 
z
" style="fill: #ffffff"/>
  </g>
  <g id="axes_1">
   <g id="line2d_1">
    <path d="M 120.224368 487.564154 
L 132.816394 487.606135 
" clip-path="url(#pef20757645)" style="fill: none; stroke: #808080; stroke-width: 3; stroke-linecap: round"/>
   </g>
   <g id="line2d_2">
    <path d="M 120.224368 465.902029 
L 132.816394 465.94401 
" clip-path="url(#pef20757645)" style="fill: none; stroke: #808080; stroke-width: 3; stroke-linecap: round"/>
   </g>
   <g id="line2d_3">
    <path d="M 120.224368 444.239904 
L 132.816394 444.281885 
" clip-path="url(#pef20757645)" style="fill: none; stroke: #808080; stroke-width: 3; stroke-linecap: round"/>
   </g>
   <g id="line2d_4">
    <path d="M 120.224368 422.577779 
L 132.816394 422.619759 
" clip-path="url(#pef20757645)" style="fill: none; stroke: #808080; stroke-width: 3; stroke-linecap: round"/>
   </g>
   <g id="line2d_5">
    <path d="M 120.224368 400.915653 
L 132.816394 400.957634 
" clip-path="url(#pef20757645)" style="fill: none; stroke: #808080; stroke-width: 3; stroke-linecap: round"/>
   </g>
   <g id="line2d_6">
    <path d="M 120.224368 379.253528 
L 132.816394 379.295509 
" clip-path="url(#pef20757645)" style="fill: none; stroke: #808080; stroke-width: 3; stroke-linecap: round"/>
   </g>
   <g id="line2d_7">
    <path d="M 120.101785 287.273458 
L 132.693678 287.273458 
" clip-path="url(#pef20757645)" style="fill: none; stroke: #808080; stroke-width: 3; stroke-linecap: round"/>
   </g>
   <g id="line2d_8">
    <path d="M 181.058639 157.048823 
L 193.773182 157.048823 
" clip-path="url(#pef20757645)" style="fill: none; stroke: #808080; stroke-width: 3; stroke-linecap: round"/>
   </g>
   <g id="line2d_9">
    <path d="M 181.181288 178.081235 
L 193.895831 178.081235 
" clip-path="url(#pef20757645)" style="fill: none; stroke: #808080; stroke-width: 3; stroke-linecap: round"/>
   </g>
   <g id="line2d_10">
    <path d="M 181.42632 199.029413 
L 193.896099 198.945996 
" clip-path="url(#pef20757645)" style="fill: none; stroke: #808080; stroke-width: 3; stroke-linecap: round"/>
   </g>
   <g id="line2d_11">
    <path d="M 181.671887 241.052529 
L 194.018481 241.052529 
" clip-path="url(#pef20757645)" style="fill: none; stroke: #808080; stroke-width: 3; stroke-linecap: round"/>
   </g>
   <g id="line2d_12">
    <path d="M 181.794269 262.000707 
L 194.264047 261.917289 
" clip-path="url(#pef20757645)" style="fill: none; stroke: #808080; stroke-width: 3; stroke-linecap: round"/>
   </g>
   <g id="LineCollection_1">
    <path d="M 107.632342 487.522173 
L 107.632342 476.69111 
L 107.632342 465.860048 
L 107.632342 455.028985 
L 107.632342 444.197923 
L 107.632342 433.36686 
L 107.632342 422.535798 
L 107.632342 411.704735 
L 107.632342 400.873673 
L 107.632342 390.04261 
L 107.632342 379.211547 
L 96.287253 364.539236 
L 84.942165 349.866925 
L 85.187464 332.675761 
L 85.432763 315.484598 
L 96.471227 301.379028 
L 107.509692 287.273458 
L 107.632342 222.287083 
L 107.754991 157.300708 
L 138.110769 157.174765 
L 168.466546 157.048823 
L 168.527871 167.565029 
L 168.589196 178.081235 
L 168.711845 188.597441 
L 168.834495 199.113647 
L 163.131288 209.566882 
L 157.428082 220.020116 
L 163.253938 230.536323 
L 169.079794 241.052529 
L 169.141119 251.568735 
L 169.202444 262.084941 
L 157.428082 262.084941 
L 145.653719 262.084941 
L 145.469745 274.6792 
L 145.285771 287.273458 
L 156.814834 301.693885 
L 168.343897 316.114311 
L 168.098597 333.809245 
L 167.853298 351.504178 
L 156.630859 365.420834 
L 145.40842 379.33749 
L 145.40842 390.168553 
L 145.40842 400.999615 
L 145.40842 411.830678 
L 145.40842 422.66174 
L 145.40842 433.492803 
L 145.40842 444.323865 
L 145.40842 455.154928 
L 145.40842 465.98599 
L 145.40842 476.817053 
L 145.40842 487.648116 
L 176.070822 487.837029 
L 206.733223 488.025943 
L 206.794548 401.881213 
L 206.855873 315.736483 
L 206.917198 301.630913 
L 206.978522 287.525344 
L 206.917198 274.6792 
L 206.855873 261.833056 
L 206.733223 251.442792 
L 206.610574 241.052529 
L 206.549249 219.957145 
L 206.487924 198.861762 
L 206.487924 188.471498 
L 206.487924 178.081235 
L 206.426599 167.565029 
L 206.365274 157.048823 
L 206.242625 145.147248 
L 206.119975 133.245673 
" clip-path="url(#pef20757645)" style="fill: none; stroke: #808080; stroke-width: 3"/>
   </g>
   <g id="text_1">
    <text style="fill: #262626; font: 24px 'Arial', 'DejaVu Sans', 'Liberation Sans', 'Bitstream Vera Sans', sans-serif; text-anchor: middle" x="145.960343" y="70.716138" transform="rotate(-0 145.960343 70.716138)">6yl5</text>
   </g>
   <g id="PathCollection_1">
    <defs>
     <path id="C0_0_21abd3b167" d="M 0 8 
C 2.121625 8 4.156639 7.15707 5.656854 5.656854 
C 7.15707 4.156639 8 2.121625 8 -0 
C 8 -2.121625 7.15707 -4.156639 5.656854 -5.656854 
C 4.156639 -7.15707 2.121625 -8 0 -8 
C -2.121625 -8 -4.156639 -7.15707 -5.656854 -5.656854 
C -7.15707 -4.156639 -8 -2.121625 -8 0 
C -8 2.121625 -7.15707 4.156639 -5.656854 5.656854 
C -4.156639 7.15707 -2.121625 8 0 8 
z
"/>
    </defs>
    <g clip-path="url(#pef20757645)">
     <use xlink:href="#C0_0_21abd3b167" x="107.632342" y="487.522173" style="fill: #1c6f2e; stroke: #1c6f2e; stroke-width: 2"/>
    </g>
    <g clip-path="url(#pef20757645)">
     <use xlink:href="#C0_0_21abd3b167" x="107.632342" y="465.860048" style="fill: #1c6f2e; stroke: #1c6f2e; stroke-width: 2"/>
    </g>
    <g clip-path="url(#pef20757645)">
     <use xlink:href="#C0_0_21abd3b167" x="107.632342" y="444.197923" style="fill: #1c6f2e; stroke: #1c6f2e; stroke-width: 2"/>
    </g>
    <g clip-path="url(#pef20757645)">
     <use xlink:href="#C0_0_21abd3b167" x="107.632342" y="422.535798" style="fill: #1c6f2e; stroke: #1c6f2e; stroke-width: 2"/>
    </g>
    <g clip-path="url(#pef20757645)">
     <use xlink:href="#C0_0_21abd3b167" x="107.632342" y="400.873673" style="fill: #bf5ca3; stroke: #bf5ca3; stroke-width: 2"/>
    </g>
    <g clip-path="url(#pef20757645)">
     <use xlink:href="#C0_0_21abd3b167" x="107.632342" y="379.211547" style="fill: #bf5ca3; stroke: #bf5ca3; stroke-width: 2"/>
    </g>
    <g clip-path="url(#pef20757645)">
     <use xlink:href="#C0_0_21abd3b167" x="84.942165" y="349.866925" style="fill: #ffffff; stroke: #ffffff; stroke-width: 2"/>
    </g>
    <g clip-path="url(#pef20757645)">
     <use xlink:href="#C0_0_21abd3b167" x="85.432763" y="315.484598" style="fill: #ffffff; stroke: #ffffff; stroke-width: 2"/>
    </g>
    <g clip-path="url(#pef20757645)">
     <use xlink:href="#C0_0_21abd3b167" x="107.509692" y="287.273458" style="fill: #ffffff; stroke: #ffffff; stroke-width: 2"/>
    </g>
    <g clip-path="url(#pef20757645)">
     <use xlink:href="#C0_0_21abd3b167" x="107.754991" y="157.300708" style="fill: #ffffff; stroke: #ffffff; stroke-width: 2"/>
    </g>
    <g clip-path="url(#pef20757645)">
     <use xlink:href="#C0_0_21abd3b167" x="168.466546" y="157.048823" style="fill: #ffffff; stroke: #ffffff; stroke-width: 2"/>
    </g>
    <g clip-path="url(#pef20757645)">
     <use xlink:href="#C0_0_21abd3b167" x="168.589196" y="178.081235" style="fill: #ffffff; stroke: #ffffff; stroke-width: 2"/>
    </g>
    <g clip-path="url(#pef20757645)">
     <use xlink:href="#C0_0_21abd3b167" x="168.834495" y="199.113647" style="fill: #426fab; stroke: #426fab; stroke-width: 2"/>
    </g>
    <g clip-path="url(#pef20757645)">
     <use xlink:href="#C0_0_21abd3b167" x="157.428082" y="220.020116" style="fill: #426fab; stroke: #426fab; stroke-width: 2"/>
    </g>
    <g clip-path="url(#pef20757645)">
     <use xlink:href="#C0_0_21abd3b167" x="169.079794" y="241.052529" style="fill: #426fab; stroke: #426fab; stroke-width: 2"/>
    </g>
    <g clip-path="url(#pef20757645)">
     <use xlink:href="#C0_0_21abd3b167" x="169.202444" y="262.084941" style="fill: #ffffff; stroke: #ffffff; stroke-width: 2"/>
    </g>
    <g clip-path="url(#pef20757645)">
     <use xlink:href="#C0_0_21abd3b167" x="145.653719" y="262.084941" style="fill: #ffffff; stroke: #ffffff; stroke-width: 2"/>
    </g>
    <g clip-path="url(#pef20757645)">
     <use xlink:href="#C0_0_21abd3b167" x="145.285771" y="287.273458" style="fill: #ffffff; stroke: #ffffff; stroke-width: 2"/>
    </g>
    <g clip-path="url(#pef20757645)">
     <use xlink:href="#C0_0_21abd3b167" x="168.343897" y="316.114311" style="fill: #ffffff; stroke: #ffffff; stroke-width: 2"/>
    </g>
    <g clip-path="url(#pef20757645)">
     <use xlink:href="#C0_0_21abd3b167" x="167.853298" y="351.504178" style="fill: #ffffff; stroke: #ffffff; stroke-width: 2"/>
    </g>
    <g clip-path="url(#pef20757645)">
     <use xlink:href="#C0_0_21abd3b167" x="145.40842" y="379.33749" style="fill: #bf5ca3; stroke: #bf5ca3; stroke-width: 2"/>
    </g>
    <g clip-path="url(#pef20757645)">
     <use xlink:href="#C0_0_21abd3b167" x="145.40842" y="400.999615" style="fill: #bf5ca3; stroke: #bf5ca3; stroke-width: 2"/>
    </g>
    <g clip-path="url(#pef20757645)">
     <use xlink:href="#C0_0_21abd3b167" x="145.40842" y="422.66174" style="fill: #bf5ca3; stroke: #bf5ca3; stroke-width: 2"/>
    </g>
    <g clip-path="url(#pef20757645)">
     <use xlink:href="#C0_0_21abd3b167" x="145.40842" y="444.323865" style="fill: #1c6f2e; stroke: #1c6f2e; stroke-width: 2"/>
    </g>
    <g clip-path="url(#pef20757645)">
     <use xlink:href="#C0_0_21abd3b167" x="145.40842" y="465.98599" style="fill: #1c6f2e; stroke: #1c6f2e; stroke-width: 2"/>
    </g>
    <g clip-path="url(#pef20757645)">
     <use xlink:href="#C0_0_21abd3b167" x="145.40842" y="487.648116" style="fill: #1c6f2e; stroke: #1c6f2e; stroke-width: 2"/>
    </g>
    <g clip-path="url(#pef20757645)">
     <use xlink:href="#C0_0_21abd3b167" x="206.733223" y="488.025943" style="fill: #ffffff; stroke: #ffffff; stroke-width: 2"/>
    </g>
    <g clip-path="url(#pef20757645)">
     <use xlink:href="#C0_0_21abd3b167" x="206.855873" y="315.736483" style="fill: #ffffff; stroke: #ffffff; stroke-width: 2"/>
    </g>
    <g clip-path="url(#pef20757645)">
     <use xlink:href="#C0_0_21abd3b167" x="206.978522" y="287.525344" style="fill: #ffffff; stroke: #ffffff; stroke-width: 2"/>
    </g>
    <g clip-path="url(#pef20757645)">
     <use xlink:href="#C0_0_21abd3b167" x="206.855873" y="261.833056" style="fill: #ffffff; stroke: #ffffff; stroke-width: 2"/>
    </g>
    <g clip-path="url(#pef20757645)">
     <use xlink:href="#C0_0_21abd3b167" x="206.610574" y="241.052529" style="fill: #ffffff; stroke: #ffffff; stroke-width: 2"/>
    </g>
    <g clip-path="url(#pef20757645)">
     <use xlink:href="#C0_0_21abd3b167" x="206.487924" y="198.861762" style="fill: #426fab; stroke: #426fab; stroke-width: 2"/>
    </g>
    <g clip-path="url(#pef20757645)">
     <use xlink:href="#C0_0_21abd3b167" x="206.487924" y="178.081235" style="fill: #426fab; stroke: #426fab; stroke-width: 2"/>
    </g>
    <g clip-path="url(#pef20757645)">
     <use xlink:href="#C0_0_21abd3b167" x="206.365274" y="157.048823" style="fill: #426fab; stroke: #426fab; stroke-width: 2"/>
    </g>
    <g clip-path="url(#pef20757645)">
     <use xlink:href="#C0_0_21abd3b167" x="206.119975" y="133.245673" style="fill: #ffffff; stroke: #ffffff; stroke-width: 2"/>
    </g>
   </g>
   <g id="PathCollection_2">
    <defs>
     <path id="C1_0_bc1bf04d1c" d="M 0 10 
C 2.652031 10 5.195799 8.946337 7.071068 7.071068 
C 8.946337 5.195799 10 2.652031 10 -0 
C 10 -2.652031 8.946337 -5.195799 7.071068 -7.071068 
C 5.195799 -8.946337 2.652031 -10 0 -10 
C -2.652031 -10 -5.195799 -8.946337 -7.071068 -7.071068 
C -8.946337 -5.195799 -10 -2.652031 -10 0 
C -10 2.652031 -8.946337 5.195799 -7.071068 7.071068 
C -5.195799 8.946337 -2.652031 10 0 10 
z
"/>
    </defs>
    <g clip-path="url(#pef20757645)">
     <use xlink:href="#C1_0_bc1bf04d1c" x="107.632342" y="487.522173" style="fill: #1c6f2e; stroke: #1c6f2e; stroke-width: 2"/>
    </g>
    <g clip-path="url(#pef20757645)">
     <use xlink:href="#C1_0_bc1bf04d1c" x="107.632342" y="465.860048" style="fill: #1c6f2e; stroke: #1c6f2e; stroke-width: 2"/>
    </g>
    <g clip-path="url(#pef20757645)">
     <use xlink:href="#C1_0_bc1bf04d1c" x="107.632342" y="444.197923" style="fill: #1c6f2e; stroke: #1c6f2e; stroke-width: 2"/>
    </g>
    <g clip-path="url(#pef20757645)">
     <use xlink:href="#C1_0_bc1bf04d1c" x="107.632342" y="422.535798" style="fill: #1c6f2e; stroke: #1c6f2e; stroke-width: 2"/>
    </g>
    <g clip-path="url(#pef20757645)">
     <use xlink:href="#C1_0_bc1bf04d1c" x="107.632342" y="400.873673" style="fill: #bf5ca3; stroke: #bf5ca3; stroke-width: 2"/>
    </g>
    <g clip-path="url(#pef20757645)">
     <use xlink:href="#C1_0_bc1bf04d1c" x="107.632342" y="379.211547" style="fill: #bf5ca3; stroke: #bf5ca3; stroke-width: 2"/>
    </g>
    <g clip-path="url(#pef20757645)">
     <use xlink:href="#C1_0_bc1bf04d1c" x="84.942165" y="349.866925" style="fill: #ffffff; stroke: #ffffff; stroke-width: 2"/>
    </g>
    <g clip-path="url(#pef20757645)">
     <use xlink:href="#C1_0_bc1bf04d1c" x="85.432763" y="315.484598" style="fill: #ffffff; stroke: #ffffff; stroke-width: 2"/>
    </g>
    <g clip-path="url(#pef20757645)">
     <use xlink:href="#C1_0_bc1bf04d1c" x="107.509692" y="287.273458" style="fill: #ffffff; stroke: #ffffff; stroke-width: 2"/>
    </g>
    <g clip-path="url(#pef20757645)">
     <use xlink:href="#C1_0_bc1bf04d1c" x="107.754991" y="157.300708" style="fill: #ffffff; stroke: #ffffff; stroke-width: 2"/>
    </g>
    <g clip-path="url(#pef20757645)">
     <use xlink:href="#C1_0_bc1bf04d1c" x="168.466546" y="157.048823" style="fill: #ffffff; stroke: #ffffff; stroke-width: 2"/>
    </g>
    <g clip-path="url(#pef20757645)">
     <use xlink:href="#C1_0_bc1bf04d1c" x="168.589196" y="178.081235" style="fill: #ffffff; stroke: #ffffff; stroke-width: 2"/>
    </g>
    <g clip-path="url(#pef20757645)">
     <use xlink:href="#C1_0_bc1bf04d1c" x="168.834495" y="199.113647" style="fill: #426fab; stroke: #426fab; stroke-width: 2"/>
    </g>
    <g clip-path="url(#pef20757645)">
     <use xlink:href="#C1_0_bc1bf04d1c" x="157.428082" y="220.020116" style="fill: #426fab; stroke: #426fab; stroke-width: 2"/>
    </g>
    <g clip-path="url(#pef20757645)">
     <use xlink:href="#C1_0_bc1bf04d1c" x="169.079794" y="241.052529" style="fill: #426fab; stroke: #426fab; stroke-width: 2"/>
    </g>
    <g clip-path="url(#pef20757645)">
     <use xlink:href="#C1_0_bc1bf04d1c" x="169.202444" y="262.084941" style="fill: #ffffff; stroke: #ffffff; stroke-width: 2"/>
    </g>
    <g clip-path="url(#pef20757645)">
     <use xlink:href="#C1_0_bc1bf04d1c" x="145.653719" y="262.084941" style="fill: #ffffff; stroke: #ffffff; stroke-width: 2"/>
    </g>
    <g clip-path="url(#pef20757645)">
     <use xlink:href="#C1_0_bc1bf04d1c" x="145.285771" y="287.273458" style="fill: #ffffff; stroke: #ffffff; stroke-width: 2"/>
    </g>
    <g clip-path="url(#pef20757645)">
     <use xlink:href="#C1_0_bc1bf04d1c" x="168.343897" y="316.114311" style="fill: #ffffff; stroke: #ffffff; stroke-width: 2"/>
    </g>
    <g clip-path="url(#pef20757645)">
     <use xlink:href="#C1_0_bc1bf04d1c" x="167.853298" y="351.504178" style="fill: #ffffff; stroke: #ffffff; stroke-width: 2"/>
    </g>
    <g clip-path="url(#pef20757645)">
     <use xlink:href="#C1_0_bc1bf04d1c" x="145.40842" y="379.33749" style="fill: #bf5ca3; stroke: #bf5ca3; stroke-width: 2"/>
    </g>
    <g clip-path="url(#pef20757645)">
     <use xlink:href="#C1_0_bc1bf04d1c" x="145.40842" y="400.999615" style="fill: #bf5ca3; stroke: #bf5ca3; stroke-width: 2"/>
    </g>
    <g clip-path="url(#pef20757645)">
     <use xlink:href="#C1_0_bc1bf04d1c" x="145.40842" y="422.66174" style="fill: #bf5ca3; stroke: #bf5ca3; stroke-width: 2"/>
    </g>
    <g clip-path="url(#pef20757645)">
     <use xlink:href="#C1_0_bc1bf04d1c" x="145.40842" y="444.323865" style="fill: #1c6f2e; stroke: #1c6f2e; stroke-width: 2"/>
    </g>
    <g clip-path="url(#pef20757645)">
     <use xlink:href="#C1_0_bc1bf04d1c" x="145.40842" y="465.98599" style="fill: #1c6f2e; stroke: #1c6f2e; stroke-width: 2"/>
    </g>
    <g clip-path="url(#pef20757645)">
     <use xlink:href="#C1_0_bc1bf04d1c" x="145.40842" y="487.648116" style="fill: #1c6f2e; stroke: #1c6f2e; stroke-width: 2"/>
    </g>
    <g clip-path="url(#pef20757645)">
     <use xlink:href="#C1_0_bc1bf04d1c" x="206.733223" y="488.025943" style="fill: #ffffff; stroke: #ffffff; stroke-width: 2"/>
    </g>
    <g clip-path="url(#pef20757645)">
     <use xlink:href="#C1_0_bc1bf04d1c" x="206.855873" y="315.736483" style="fill: #ffffff; stroke: #ffffff; stroke-width: 2"/>
    </g>
    <g clip-path="url(#pef20757645)">
     <use xlink:href="#C1_0_bc1bf04d1c" x="206.978522" y="287.525344" style="fill: #ffffff; stroke: #ffffff; stroke-width: 2"/>
    </g>
    <g clip-path="url(#pef20757645)">
     <use xlink:href="#C1_0_bc1bf04d1c" x="206.855873" y="261.833056" style="fill: #ffffff; stroke: #ffffff; stroke-width: 2"/>
    </g>
    <g clip-path="url(#pef20757645)">
     <use xlink:href="#C1_0_bc1bf04d1c" x="206.610574" y="241.052529" style="fill: #ffffff; stroke: #ffffff; stroke-width: 2"/>
    </g>
    <g clip-path="url(#pef20757645)">
     <use xlink:href="#C1_0_bc1bf04d1c" x="206.487924" y="198.861762" style="fill: #426fab; stroke: #426fab; stroke-width: 2"/>
    </g>
    <g clip-path="url(#pef20757645)">
     <use xlink:href="#C1_0_bc1bf04d1c" x="206.487924" y="178.081235" style="fill: #426fab; stroke: #426fab; stroke-width: 2"/>
    </g>
    <g clip-path="url(#pef20757645)">
     <use xlink:href="#C1_0_bc1bf04d1c" x="206.365274" y="157.048823" style="fill: #426fab; stroke: #426fab; stroke-width: 2"/>
    </g>
    <g clip-path="url(#pef20757645)">
     <use xlink:href="#C1_0_bc1bf04d1c" x="206.119975" y="133.245673" style="fill: #ffffff; stroke: #ffffff; stroke-width: 2"/>
    </g>
   </g>
   <g id="PathCollection_3">
    <defs>
     <path id="C2_0_1c9f8bf6ea" d="M 3.288577 3.436273 
L 3.288577 0.847965 
L 1.158851 0.847965 
L 1.158851 -0.224127 
L 4.579632 -0.224127 
L 4.579632 3.915513 
Q 3.825656 4.450527 2.914687 4.725263 
Q 2.005784 5 0.972939 5 
Q -1.286924 5 -2.56352 3.680025 
Q -3.83805 2.357984 -3.83805 0.003099 
Q -3.83805 -2.36005 -2.56352 -3.680025 
Q -1.286924 -5 0.972939 -5 
Q 1.914894 -5 2.763892 -4.766577 
Q 3.61289 -4.53522 4.329684 -4.082834 
L 4.329684 -2.694691 
Q 3.606693 -3.308201 2.792811 -3.618054 
Q 1.97893 -3.927907 1.082421 -3.927907 
Q -0.687874 -3.927907 -1.576121 -2.940508 
Q -2.462301 -1.953109 -2.462301 0.003099 
Q -2.462301 1.953109 -1.576121 2.940508 
Q -0.687874 3.927907 1.082421 3.927907 
Q 1.772361 3.927907 2.313572 3.808098 
Q 2.856848 3.688288 3.288577 3.436273 
z
"/>
    </defs>
    <g clip-path="url(#pef20757645)">
     <use xlink:href="#C2_0_1c9f8bf6ea" x="107.632342" y="487.522173" style="fill: #ffffff; stroke: #ffffff"/>
    </g>
    <g clip-path="url(#pef20757645)">
     <use xlink:href="#C2_0_1c9f8bf6ea" x="107.632342" y="465.860048" style="fill: #ffffff; stroke: #ffffff"/>
    </g>
    <g clip-path="url(#pef20757645)">
     <use xlink:href="#C2_0_1c9f8bf6ea" x="107.754991" y="157.300708" style="stroke: #000000"/>
    </g>
    <g clip-path="url(#pef20757645)">
     <use xlink:href="#C2_0_1c9f8bf6ea" x="168.466546" y="157.048823" style="stroke: #000000"/>
    </g>
    <g clip-path="url(#pef20757645)">
     <use xlink:href="#C2_0_1c9f8bf6ea" x="145.285771" y="287.273458" style="stroke: #000000"/>
    </g>
    <g clip-path="url(#pef20757645)">
     <use xlink:href="#C2_0_1c9f8bf6ea" x="168.343897" y="316.114311" style="stroke: #000000"/>
    </g>
    <g clip-path="url(#pef20757645)">
     <use xlink:href="#C2_0_1c9f8bf6ea" x="145.40842" y="379.33749" style="fill: #ffffff; stroke: #ffffff"/>
    </g>
    <g clip-path="url(#pef20757645)">
     <use xlink:href="#C2_0_1c9f8bf6ea" x="145.40842" y="422.66174" style="fill: #ffffff; stroke: #ffffff"/>
    </g>
    <g clip-path="url(#pef20757645)">
     <use xlink:href="#C2_0_1c9f8bf6ea" x="206.855873" y="261.833056" style="stroke: #000000"/>
    </g>
    <g clip-path="url(#pef20757645)">
     <use xlink:href="#C2_0_1c9f8bf6ea" x="206.610574" y="241.052529" style="stroke: #000000"/>
    </g>
    <g clip-path="url(#pef20757645)">
     <use xlink:href="#C2_0_1c9f8bf6ea" x="206.487924" y="178.081235" style="fill: #ffffff; stroke: #ffffff"/>
    </g>
   </g>
   <g id="PathCollection_4">
    <defs>
     <path id="C3_0_da42407157" d="M -3.170065 -5 
L -1.83519 -5 
L -1.83519 0.959638 
Q -1.83519 2.536262 -1.265503 3.229977 
Q -0.693715 3.921589 0.588606 3.921589 
Q 1.862518 3.921589 2.434307 3.229977 
Q 3.006096 2.536262 3.006096 0.959638 
L 3.006096 -5 
L 4.338869 -5 
L 4.338869 1.123607 
Q 4.338869 3.040782 3.38869 4.020391 
Q 2.440614 5 0.588606 5 
Q -1.27181 5 -2.221989 4.020391 
Q -3.170065 3.040782 -3.170065 1.123607 
L -3.170065 -5 
z
"/>
    </defs>
    <g clip-path="url(#pef20757645)">
     <use xlink:href="#C3_0_da42407157" x="107.632342" y="444.197923" style="fill: #ffffff; stroke: #ffffff"/>
    </g>
    <g clip-path="url(#pef20757645)">
     <use xlink:href="#C3_0_da42407157" x="168.834495" y="199.113647" style="fill: #ffffff; stroke: #ffffff"/>
    </g>
    <g clip-path="url(#pef20757645)">
     <use xlink:href="#C3_0_da42407157" x="157.428082" y="220.020116" style="fill: #ffffff; stroke: #ffffff"/>
    </g>
    <g clip-path="url(#pef20757645)">
     <use xlink:href="#C3_0_da42407157" x="145.653719" y="262.084941" style="stroke: #000000"/>
    </g>
    <g clip-path="url(#pef20757645)">
     <use xlink:href="#C3_0_da42407157" x="145.40842" y="400.999615" style="fill: #ffffff; stroke: #ffffff"/>
    </g>
    <g clip-path="url(#pef20757645)">
     <use xlink:href="#C3_0_da42407157" x="206.855873" y="315.736483" style="stroke: #000000"/>
    </g>
    <g clip-path="url(#pef20757645)">
     <use xlink:href="#C3_0_da42407157" x="206.978522" y="287.525344" style="stroke: #000000"/>
    </g>
   </g>
   <g id="PathCollection_5">
    <defs>
     <path id="C4_0_efe4864377" d="M 0.054651 -3.666952 
L -1.78204 1.309473 
L 1.895628 1.309473 
L 0.054651 -3.666952 
z
M -0.710459 -5 
L 0.824046 -5 
L 4.634591 5 
L 3.228676 5 
L 2.317831 2.434634 
L -2.189241 2.434634 
L -3.100086 5 
L -4.527432 5 
L -0.710459 -5 
z
"/>
    </defs>
    <g clip-path="url(#pef20757645)">
     <use xlink:href="#C4_0_efe4864377" x="107.632342" y="400.873673" style="fill: #ffffff; stroke: #ffffff"/>
    </g>
    <g clip-path="url(#pef20757645)">
     <use xlink:href="#C4_0_efe4864377" x="84.942165" y="349.866925" style="stroke: #000000"/>
    </g>
    <g clip-path="url(#pef20757645)">
     <use xlink:href="#C4_0_efe4864377" x="85.432763" y="315.484598" style="stroke: #000000"/>
    </g>
    <g clip-path="url(#pef20757645)">
     <use xlink:href="#C4_0_efe4864377" x="145.40842" y="444.323865" style="fill: #ffffff; stroke: #ffffff"/>
    </g>
    <g clip-path="url(#pef20757645)">
     <use xlink:href="#C4_0_efe4864377" x="206.733223" y="488.025943" style="stroke: #000000"/>
    </g>
    <g clip-path="url(#pef20757645)">
     <use xlink:href="#C4_0_efe4864377" x="206.487924" y="198.861762" style="fill: #ffffff; stroke: #ffffff"/>
    </g>
    <g clip-path="url(#pef20757645)">
     <use xlink:href="#C4_0_efe4864377" x="206.119975" y="133.245673" style="stroke: #000000"/>
    </g>
   </g>
   <g id="PathCollection_6">
    <defs>
     <path id="C5_0_897456a0c1" d="M 4.257385 -4.082834 
L 4.257385 -2.709151 
Q 3.59843 -3.322661 2.852716 -3.624251 
Q 2.107003 -3.927907 1.268333 -3.927907 
Q -0.384218 -3.927907 -1.262136 -2.917786 
Q -2.140054 -1.907664 -2.140054 0.003099 
Q -2.140054 1.907664 -1.262136 2.917786 
Q -0.384218 3.927907 1.268333 3.927907 
Q 2.107003 3.927907 2.852716 3.624251 
Q 3.59843 3.320595 4.257385 2.707085 
L 4.257385 4.07044 
Q 3.573642 4.53522 2.807271 4.768643 
Q 2.042966 5 1.191902 5 
Q -0.997728 5 -2.257798 3.661434 
Q -3.515803 2.320801 -3.515803 0.003099 
Q -3.515803 -2.320801 -2.257798 -3.659368 
Q -0.997728 -5 1.191902 -5 
Q 2.05536 -5 2.819665 -4.770709 
Q 3.586036 -4.541417 4.257385 -4.082834 
z
"/>
    </defs>
    <g clip-path="url(#pef20757645)">
     <use xlink:href="#C5_0_897456a0c1" x="107.632342" y="422.535798" style="fill: #ffffff; stroke: #ffffff"/>
    </g>
    <g clip-path="url(#pef20757645)">
     <use xlink:href="#C5_0_897456a0c1" x="107.632342" y="379.211547" style="fill: #ffffff; stroke: #ffffff"/>
    </g>
    <g clip-path="url(#pef20757645)">
     <use xlink:href="#C5_0_897456a0c1" x="107.509692" y="287.273458" style="stroke: #000000"/>
    </g>
    <g clip-path="url(#pef20757645)">
     <use xlink:href="#C5_0_897456a0c1" x="168.589196" y="178.081235" style="stroke: #000000"/>
    </g>
    <g clip-path="url(#pef20757645)">
     <use xlink:href="#C5_0_897456a0c1" x="169.079794" y="241.052529" style="fill: #ffffff; stroke: #ffffff"/>
    </g>
    <g clip-path="url(#pef20757645)">
     <use xlink:href="#C5_0_897456a0c1" x="169.202444" y="262.084941" style="stroke: #000000"/>
    </g>
    <g clip-path="url(#pef20757645)">
     <use xlink:href="#C5_0_897456a0c1" x="167.853298" y="351.504178" style="stroke: #000000"/>
    </g>
    <g clip-path="url(#pef20757645)">
     <use xlink:href="#C5_0_897456a0c1" x="145.40842" y="465.98599" style="fill: #ffffff; stroke: #ffffff"/>
    </g>
    <g clip-path="url(#pef20757645)">
     <use xlink:href="#C5_0_897456a0c1" x="145.40842" y="487.648116" style="fill: #ffffff; stroke: #ffffff"/>
    </g>
    <g clip-path="url(#pef20757645)">
     <use xlink:href="#C5_0_897456a0c1" x="206.365274" y="157.048823" style="fill: #ffffff; stroke: #ffffff"/>
    </g>
   </g>
   <g id="PathCollection_7"/>
   <g id="PathCollection_8"/>
   <g id="PathCollection_9"/>
   <g id="PathCollection_10"/>
  </g>
 </g>
 <defs>
  <clipPath id="pef20757645">
   <rect x="41.064069" y="76.716138" width="209.792549" height="467.83934"/>
  </clipPath>
 </defs>
</svg>
