<?xml version="1.0" encoding="utf-8" standalone="no"?>
<!DOCTYPE svg PUBLIC "-//W3C//DTD SVG 1.1//EN"
  "http://www.w3.org/Graphics/SVG/1.1/DTD/svg11.dtd">
<svg xmlns:xlink="http://www.w3.org/1999/xlink" width="269.557105pt" height="780.991579pt" viewBox="0 0 269.557105 780.991579" xmlns="http://www.w3.org/2000/svg" version="1.1">
 <metadata>
  <rdf:RDF xmlns:dc="http://purl.org/dc/elements/1.1/" xmlns:cc="http://creativecommons.org/ns#" xmlns:rdf="http://www.w3.org/1999/02/22-rdf-syntax-ns#">
   <cc:Work>
    <dc:type rdf:resource="http://purl.org/dc/dcmitype/StillImage"/>
    <dc:date>2023-10-13T16:35:27.888090</dc:date>
    <dc:format>image/svg+xml</dc:format>
    <dc:creator>
     <cc:Agent>
      <dc:title>Matplotlib v3.6.3, https://matplotlib.org/</dc:title>
     </cc:Agent>
    </dc:creator>
   </cc:Work>
  </rdf:RDF>
 </metadata>
 <defs>
  <style type="text/css">*{stroke-linejoin: round; stroke-linecap: butt}</style>
 </defs>
 <g id="figure_1">
  <g id="patch_1">
   <path d="M 0 780.991579 
L 269.557105 780.991579 
L 269.557105 0 
L 0 0 
z
" style="fill: #ffffff"/>
  </g>
  <g id="axes_1">
   <g id="line2d_1">
    <path d="M 138.139064 649.674737 
L 150.597543 649.674737 
" clip-path="url(#p285c26bf96)" style="fill: none; stroke: #808080; stroke-width: 3; stroke-linecap: round"/>
   </g>
   <g id="line2d_2">
    <path d="M 138.139064 626.991489 
L 150.597543 626.991489 
" clip-path="url(#p285c26bf96)" style="fill: none; stroke: #808080; stroke-width: 3; stroke-linecap: round"/>
   </g>
   <g id="line2d_3">
    <path d="M 138.139064 604.30824 
L 150.597543 604.30824 
" clip-path="url(#p285c26bf96)" style="fill: none; stroke: #808080; stroke-width: 3; stroke-linecap: round"/>
   </g>
   <g id="line2d_4">
    <path d="M 138.139064 581.624992 
L 150.597543 581.624992 
" clip-path="url(#p285c26bf96)" style="fill: none; stroke: #808080; stroke-width: 3; stroke-linecap: round"/>
   </g>
   <g id="line2d_5">
    <path d="M 138.139064 558.941743 
L 150.597543 558.941743 
" clip-path="url(#p285c26bf96)" style="fill: none; stroke: #808080; stroke-width: 3; stroke-linecap: round"/>
   </g>
   <g id="line2d_6">
    <path d="M 138.139064 430.575178 
L 150.597543 430.575178 
" clip-path="url(#p285c26bf96)" style="fill: none; stroke: #808080; stroke-width: 3; stroke-linecap: round"/>
   </g>
   <g id="line2d_7">
    <path d="M 138.139064 407.89193 
L 150.597543 407.89193 
" clip-path="url(#p285c26bf96)" style="fill: none; stroke: #808080; stroke-width: 3; stroke-linecap: round"/>
   </g>
   <g id="line2d_8">
    <path d="M 138.139064 385.208681 
L 150.597543 385.208681 
" clip-path="url(#p285c26bf96)" style="fill: none; stroke: #808080; stroke-width: 3; stroke-linecap: round"/>
   </g>
   <g id="line2d_9">
    <path d="M 138.139064 298.728796 
L 150.597543 298.728796 
" clip-path="url(#p285c26bf96)" style="fill: none; stroke: #808080; stroke-width: 3; stroke-linecap: round"/>
   </g>
   <g id="line2d_10">
    <path d="M 138.139064 276.045548 
L 150.597543 276.045548 
" clip-path="url(#p285c26bf96)" style="fill: none; stroke: #808080; stroke-width: 3; stroke-linecap: round"/>
   </g>
   <g id="line2d_11">
    <path d="M 138.139064 253.3623 
L 150.597543 253.3623 
" clip-path="url(#p285c26bf96)" style="fill: none; stroke: #808080; stroke-width: 3; stroke-linecap: round"/>
   </g>
   <g id="line2d_12">
    <path d="M 138.139064 230.679051 
L 150.597543 230.679051 
" clip-path="url(#p285c26bf96)" style="fill: none; stroke: #808080; stroke-width: 3; stroke-linecap: round"/>
   </g>
   <g id="line2d_13">
    <path d="M 138.139064 207.995803 
L 150.597543 207.995803 
" clip-path="url(#p285c26bf96)" style="fill: none; stroke: #808080; stroke-width: 3; stroke-linecap: round"/>
   </g>
   <g id="line2d_14">
    <path d="M 138.139064 185.312554 
L 150.597543 185.312554 
" clip-path="url(#p285c26bf96)" style="fill: none; stroke: #808080; stroke-width: 3; stroke-linecap: round"/>
   </g>
   <g id="LineCollection_1">
    <path d="M 125.680584 649.674737 
L 125.680584 638.333113 
L 125.680584 626.991489 
L 125.680584 615.649865 
L 125.680584 604.30824 
L 125.680584 592.966616 
L 125.680584 581.624992 
L 125.680584 570.283368 
L 125.680584 558.941743 
L 116.213779 552.239875 
L 106.746974 545.538006 
L 99.370243 536.838464 
L 91.993511 528.138923 
L 87.997782 517.248386 
L 84.002052 506.357849 
L 84.002052 494.758461 
L 84.002052 483.159072 
L 87.997782 472.268535 
L 91.993511 461.377999 
L 99.370243 452.678457 
L 106.746974 443.978916 
L 116.213779 437.277047 
L 125.680584 430.575178 
L 125.680584 419.233554 
L 125.680584 407.89193 
L 125.680584 396.550305 
L 125.680584 385.208681 
L 125.680584 363.55649 
L 125.680584 341.904298 
L 125.680584 320.316547 
L 125.680584 298.728796 
L 125.680584 287.387172 
L 125.680584 276.045548 
L 125.680584 264.703924 
L 125.680584 253.3623 
L 125.680584 242.020675 
L 125.680584 230.679051 
L 125.680584 219.337427 
L 125.680584 207.995803 
L 125.680584 196.654178 
L 125.680584 185.312554 
L 122.053691 173.39096 
L 118.426798 161.469367 
L 125.434693 151.416563 
L 132.442588 141.36376 
L 144.306831 141.36376 
L 156.171073 141.36376 
L 163.178968 151.416563 
L 170.186863 161.469367 
L 166.621443 173.39096 
L 163.056022 185.312554 
L 163.056022 196.654178 
L 163.056022 207.995803 
L 163.056022 219.337427 
L 163.056022 230.679051 
L 163.056022 242.020675 
L 163.056022 253.3623 
L 163.056022 264.703924 
L 163.056022 276.045548 
L 163.056022 287.387172 
L 163.056022 298.728796 
L 171.108954 308.7816 
L 179.161886 318.834403 
L 182.358469 330.36935 
L 185.555053 341.904298 
L 182.358469 353.503686 
L 179.161886 365.103075 
L 171.108954 375.155878 
L 163.056022 385.208681 
L 163.056022 396.550305 
L 163.056022 407.89193 
L 163.056022 419.233554 
L 163.056022 430.575178 
L 163.056022 451.969606 
L 163.056022 473.364033 
L 163.056022 494.758461 
L 163.056022 516.152888 
L 163.056022 537.547316 
L 163.056022 558.941743 
L 163.056022 570.283368 
L 163.056022 581.624992 
L 163.056022 592.966616 
L 163.056022 604.30824 
L 163.056022 615.649865 
L 163.056022 626.991489 
L 163.056022 638.333113 
L 163.056022 649.674737 
L 163.056022 662.562947 
L 163.056022 675.451156 
" clip-path="url(#p285c26bf96)" style="fill: none; stroke: #808080; stroke-width: 3"/>
   </g>
   <g id="text_1">
    <text style="fill: #262626; font: 24px 'Arial', 'DejaVu Sans', 'Liberation Sans', 'Bitstream Vera Sans', sans-serif; text-anchor: middle" x="134.778553" y="69.479234" transform="rotate(-0 134.778553 69.479234)">7elr</text>
   </g>
   <g id="PathCollection_1">
    <defs>
     <path id="C0_0_5bfc11b176" d="M 0 8 
C 2.121625 8 4.156639 7.15707 5.656854 5.656854 
C 7.15707 4.156639 8 2.121625 8 -0 
C 8 -2.121625 7.15707 -4.156639 5.656854 -5.656854 
C 4.156639 -7.15707 2.121625 -8 0 -8 
C -2.121625 -8 -4.156639 -7.15707 -5.656854 -5.656854 
C -7.15707 -4.156639 -8 -2.121625 -8 0 
C -8 2.121625 -7.15707 4.156639 -5.656854 5.656854 
C -4.156639 7.15707 -2.121625 8 0 8 
z
"/>
    </defs>
    <g clip-path="url(#p285c26bf96)">
     <use xlink:href="#C0_0_5bfc11b176" x="125.680584" y="649.674737" style="fill: #ffffff; stroke: #ffffff; stroke-width: 2"/>
    </g>
    <g clip-path="url(#p285c26bf96)">
     <use xlink:href="#C0_0_5bfc11b176" x="125.680584" y="626.991489" style="fill: #ffffff; stroke: #ffffff; stroke-width: 2"/>
    </g>
    <g clip-path="url(#p285c26bf96)">
     <use xlink:href="#C0_0_5bfc11b176" x="125.680584" y="604.30824" style="fill: #ffffff; stroke: #ffffff; stroke-width: 2"/>
    </g>
    <g clip-path="url(#p285c26bf96)">
     <use xlink:href="#C0_0_5bfc11b176" x="125.680584" y="581.624992" style="fill: #ffffff; stroke: #ffffff; stroke-width: 2"/>
    </g>
    <g clip-path="url(#p285c26bf96)">
     <use xlink:href="#C0_0_5bfc11b176" x="125.680584" y="558.941743" style="fill: #f66c00; stroke: #f66c00; stroke-width: 2"/>
    </g>
    <g clip-path="url(#p285c26bf96)">
     <use xlink:href="#C0_0_5bfc11b176" x="106.746974" y="545.538006" style="fill: #f66c00; stroke: #f66c00; stroke-width: 2"/>
    </g>
    <g clip-path="url(#p285c26bf96)">
     <use xlink:href="#C0_0_5bfc11b176" x="91.993511" y="528.138923" style="fill: #ffffff; stroke: #ffffff; stroke-width: 2"/>
    </g>
    <g clip-path="url(#p285c26bf96)">
     <use xlink:href="#C0_0_5bfc11b176" x="84.002052" y="506.357849" style="fill: #ffffff; stroke: #ffffff; stroke-width: 2"/>
    </g>
    <g clip-path="url(#p285c26bf96)">
     <use xlink:href="#C0_0_5bfc11b176" x="84.002052" y="483.159072" style="fill: #f66c00; stroke: #f66c00; stroke-width: 2"/>
    </g>
    <g clip-path="url(#p285c26bf96)">
     <use xlink:href="#C0_0_5bfc11b176" x="91.993511" y="461.377999" style="fill: #ffffff; stroke: #ffffff; stroke-width: 2"/>
    </g>
    <g clip-path="url(#p285c26bf96)">
     <use xlink:href="#C0_0_5bfc11b176" x="106.746974" y="443.978916" style="fill: #ffffff; stroke: #ffffff; stroke-width: 2"/>
    </g>
    <g clip-path="url(#p285c26bf96)">
     <use xlink:href="#C0_0_5bfc11b176" x="125.680584" y="430.575178" style="fill: #ffffff; stroke: #ffffff; stroke-width: 2"/>
    </g>
    <g clip-path="url(#p285c26bf96)">
     <use xlink:href="#C0_0_5bfc11b176" x="125.680584" y="407.89193" style="fill: #ffffff; stroke: #ffffff; stroke-width: 2"/>
    </g>
    <g clip-path="url(#p285c26bf96)">
     <use xlink:href="#C0_0_5bfc11b176" x="125.680584" y="385.208681" style="fill: #ffffff; stroke: #ffffff; stroke-width: 2"/>
    </g>
    <g clip-path="url(#p285c26bf96)">
     <use xlink:href="#C0_0_5bfc11b176" x="125.680584" y="341.904298" style="fill: #ffffff; stroke: #ffffff; stroke-width: 2"/>
    </g>
    <g clip-path="url(#p285c26bf96)">
     <use xlink:href="#C0_0_5bfc11b176" x="125.680584" y="298.728796" style="fill: #ffffff; stroke: #ffffff; stroke-width: 2"/>
    </g>
    <g clip-path="url(#p285c26bf96)">
     <use xlink:href="#C0_0_5bfc11b176" x="125.680584" y="276.045548" style="fill: #ffffff; stroke: #ffffff; stroke-width: 2"/>
    </g>
    <g clip-path="url(#p285c26bf96)">
     <use xlink:href="#C0_0_5bfc11b176" x="125.680584" y="253.3623" style="fill: #ffffff; stroke: #ffffff; stroke-width: 2"/>
    </g>
    <g clip-path="url(#p285c26bf96)">
     <use xlink:href="#C0_0_5bfc11b176" x="125.680584" y="230.679051" style="fill: #ffffff; stroke: #ffffff; stroke-width: 2"/>
    </g>
    <g clip-path="url(#p285c26bf96)">
     <use xlink:href="#C0_0_5bfc11b176" x="125.680584" y="207.995803" style="fill: #ffffff; stroke: #ffffff; stroke-width: 2"/>
    </g>
    <g clip-path="url(#p285c26bf96)">
     <use xlink:href="#C0_0_5bfc11b176" x="125.680584" y="185.312554" style="fill: #ffffff; stroke: #ffffff; stroke-width: 2"/>
    </g>
    <g clip-path="url(#p285c26bf96)">
     <use xlink:href="#C0_0_5bfc11b176" x="118.426798" y="161.469367" style="fill: #ffffff; stroke: #ffffff; stroke-width: 2"/>
    </g>
    <g clip-path="url(#p285c26bf96)">
     <use xlink:href="#C0_0_5bfc11b176" x="132.442588" y="141.36376" style="fill: #ffffff; stroke: #ffffff; stroke-width: 2"/>
    </g>
    <g clip-path="url(#p285c26bf96)">
     <use xlink:href="#C0_0_5bfc11b176" x="156.171073" y="141.36376" style="fill: #ffffff; stroke: #ffffff; stroke-width: 2"/>
    </g>
    <g clip-path="url(#p285c26bf96)">
     <use xlink:href="#C0_0_5bfc11b176" x="170.186863" y="161.469367" style="fill: #ffffff; stroke: #ffffff; stroke-width: 2"/>
    </g>
    <g clip-path="url(#p285c26bf96)">
     <use xlink:href="#C0_0_5bfc11b176" x="163.056022" y="185.312554" style="fill: #ffffff; stroke: #ffffff; stroke-width: 2"/>
    </g>
    <g clip-path="url(#p285c26bf96)">
     <use xlink:href="#C0_0_5bfc11b176" x="163.056022" y="207.995803" style="fill: #ffffff; stroke: #ffffff; stroke-width: 2"/>
    </g>
    <g clip-path="url(#p285c26bf96)">
     <use xlink:href="#C0_0_5bfc11b176" x="163.056022" y="230.679051" style="fill: #ffffff; stroke: #ffffff; stroke-width: 2"/>
    </g>
    <g clip-path="url(#p285c26bf96)">
     <use xlink:href="#C0_0_5bfc11b176" x="163.056022" y="253.3623" style="fill: #ffffff; stroke: #ffffff; stroke-width: 2"/>
    </g>
    <g clip-path="url(#p285c26bf96)">
     <use xlink:href="#C0_0_5bfc11b176" x="163.056022" y="276.045548" style="fill: #ffffff; stroke: #ffffff; stroke-width: 2"/>
    </g>
    <g clip-path="url(#p285c26bf96)">
     <use xlink:href="#C0_0_5bfc11b176" x="163.056022" y="298.728796" style="fill: #ffffff; stroke: #ffffff; stroke-width: 2"/>
    </g>
    <g clip-path="url(#p285c26bf96)">
     <use xlink:href="#C0_0_5bfc11b176" x="179.161886" y="318.834403" style="fill: #ffffff; stroke: #ffffff; stroke-width: 2"/>
    </g>
    <g clip-path="url(#p285c26bf96)">
     <use xlink:href="#C0_0_5bfc11b176" x="185.555053" y="341.904298" style="fill: #ffffff; stroke: #ffffff; stroke-width: 2"/>
    </g>
    <g clip-path="url(#p285c26bf96)">
     <use xlink:href="#C0_0_5bfc11b176" x="179.161886" y="365.103075" style="fill: #f66c00; stroke: #f66c00; stroke-width: 2"/>
    </g>
    <g clip-path="url(#p285c26bf96)">
     <use xlink:href="#C0_0_5bfc11b176" x="163.056022" y="385.208681" style="fill: #f66c00; stroke: #f66c00; stroke-width: 2"/>
    </g>
    <g clip-path="url(#p285c26bf96)">
     <use xlink:href="#C0_0_5bfc11b176" x="163.056022" y="407.89193" style="fill: #f66c00; stroke: #f66c00; stroke-width: 2"/>
    </g>
    <g clip-path="url(#p285c26bf96)">
     <use xlink:href="#C0_0_5bfc11b176" x="163.056022" y="430.575178" style="fill: #f66c00; stroke: #f66c00; stroke-width: 2"/>
    </g>
    <g clip-path="url(#p285c26bf96)">
     <use xlink:href="#C0_0_5bfc11b176" x="163.056022" y="473.364033" style="fill: #f66c00; stroke: #f66c00; stroke-width: 2"/>
    </g>
    <g clip-path="url(#p285c26bf96)">
     <use xlink:href="#C0_0_5bfc11b176" x="163.056022" y="516.152888" style="fill: #f66c00; stroke: #f66c00; stroke-width: 2"/>
    </g>
    <g clip-path="url(#p285c26bf96)">
     <use xlink:href="#C0_0_5bfc11b176" x="163.056022" y="558.941743" style="fill: #f66c00; stroke: #f66c00; stroke-width: 2"/>
    </g>
    <g clip-path="url(#p285c26bf96)">
     <use xlink:href="#C0_0_5bfc11b176" x="163.056022" y="581.624992" style="fill: #ffffff; stroke: #ffffff; stroke-width: 2"/>
    </g>
    <g clip-path="url(#p285c26bf96)">
     <use xlink:href="#C0_0_5bfc11b176" x="163.056022" y="604.30824" style="fill: #ffffff; stroke: #ffffff; stroke-width: 2"/>
    </g>
    <g clip-path="url(#p285c26bf96)">
     <use xlink:href="#C0_0_5bfc11b176" x="163.056022" y="626.991489" style="fill: #ffffff; stroke: #ffffff; stroke-width: 2"/>
    </g>
    <g clip-path="url(#p285c26bf96)">
     <use xlink:href="#C0_0_5bfc11b176" x="163.056022" y="649.674737" style="fill: #ffffff; stroke: #ffffff; stroke-width: 2"/>
    </g>
    <g clip-path="url(#p285c26bf96)">
     <use xlink:href="#C0_0_5bfc11b176" x="163.056022" y="675.451156" style="fill: #ffffff; stroke: #ffffff; stroke-width: 2"/>
    </g>
   </g>
   <g id="PathCollection_2">
    <defs>
     <path id="C1_0_1e4f7c8282" d="M 0 10 
C 2.652031 10 5.195799 8.946337 7.071068 7.071068 
C 8.946337 5.195799 10 2.652031 10 -0 
C 10 -2.652031 8.946337 -5.195799 7.071068 -7.071068 
C 5.195799 -8.946337 2.652031 -10 0 -10 
C -2.652031 -10 -5.195799 -8.946337 -7.071068 -7.071068 
C -8.946337 -5.195799 -10 -2.652031 -10 0 
C -10 2.652031 -8.946337 5.195799 -7.071068 7.071068 
C -5.195799 8.946337 -2.652031 10 0 10 
z
"/>
    </defs>
    <g clip-path="url(#p285c26bf96)">
     <use xlink:href="#C1_0_1e4f7c8282" x="125.680584" y="649.674737" style="fill: #ffffff; stroke: #ffffff; stroke-width: 2"/>
    </g>
    <g clip-path="url(#p285c26bf96)">
     <use xlink:href="#C1_0_1e4f7c8282" x="125.680584" y="626.991489" style="fill: #ffffff; stroke: #ffffff; stroke-width: 2"/>
    </g>
    <g clip-path="url(#p285c26bf96)">
     <use xlink:href="#C1_0_1e4f7c8282" x="125.680584" y="604.30824" style="fill: #ffffff; stroke: #ffffff; stroke-width: 2"/>
    </g>
    <g clip-path="url(#p285c26bf96)">
     <use xlink:href="#C1_0_1e4f7c8282" x="125.680584" y="581.624992" style="fill: #ffffff; stroke: #ffffff; stroke-width: 2"/>
    </g>
    <g clip-path="url(#p285c26bf96)">
     <use xlink:href="#C1_0_1e4f7c8282" x="125.680584" y="558.941743" style="fill: #f66c00; stroke: #f66c00; stroke-width: 2"/>
    </g>
    <g clip-path="url(#p285c26bf96)">
     <use xlink:href="#C1_0_1e4f7c8282" x="106.746974" y="545.538006" style="fill: #f66c00; stroke: #f66c00; stroke-width: 2"/>
    </g>
    <g clip-path="url(#p285c26bf96)">
     <use xlink:href="#C1_0_1e4f7c8282" x="91.993511" y="528.138923" style="fill: #ffffff; stroke: #ffffff; stroke-width: 2"/>
    </g>
    <g clip-path="url(#p285c26bf96)">
     <use xlink:href="#C1_0_1e4f7c8282" x="84.002052" y="506.357849" style="fill: #ffffff; stroke: #ffffff; stroke-width: 2"/>
    </g>
    <g clip-path="url(#p285c26bf96)">
     <use xlink:href="#C1_0_1e4f7c8282" x="84.002052" y="483.159072" style="fill: #f66c00; stroke: #f66c00; stroke-width: 2"/>
    </g>
    <g clip-path="url(#p285c26bf96)">
     <use xlink:href="#C1_0_1e4f7c8282" x="91.993511" y="461.377999" style="fill: #ffffff; stroke: #ffffff; stroke-width: 2"/>
    </g>
    <g clip-path="url(#p285c26bf96)">
     <use xlink:href="#C1_0_1e4f7c8282" x="106.746974" y="443.978916" style="fill: #ffffff; stroke: #ffffff; stroke-width: 2"/>
    </g>
    <g clip-path="url(#p285c26bf96)">
     <use xlink:href="#C1_0_1e4f7c8282" x="125.680584" y="430.575178" style="fill: #ffffff; stroke: #ffffff; stroke-width: 2"/>
    </g>
    <g clip-path="url(#p285c26bf96)">
     <use xlink:href="#C1_0_1e4f7c8282" x="125.680584" y="407.89193" style="fill: #ffffff; stroke: #ffffff; stroke-width: 2"/>
    </g>
    <g clip-path="url(#p285c26bf96)">
     <use xlink:href="#C1_0_1e4f7c8282" x="125.680584" y="385.208681" style="fill: #ffffff; stroke: #ffffff; stroke-width: 2"/>
    </g>
    <g clip-path="url(#p285c26bf96)">
     <use xlink:href="#C1_0_1e4f7c8282" x="125.680584" y="341.904298" style="fill: #ffffff; stroke: #ffffff; stroke-width: 2"/>
    </g>
    <g clip-path="url(#p285c26bf96)">
     <use xlink:href="#C1_0_1e4f7c8282" x="125.680584" y="298.728796" style="fill: #ffffff; stroke: #ffffff; stroke-width: 2"/>
    </g>
    <g clip-path="url(#p285c26bf96)">
     <use xlink:href="#C1_0_1e4f7c8282" x="125.680584" y="276.045548" style="fill: #ffffff; stroke: #ffffff; stroke-width: 2"/>
    </g>
    <g clip-path="url(#p285c26bf96)">
     <use xlink:href="#C1_0_1e4f7c8282" x="125.680584" y="253.3623" style="fill: #ffffff; stroke: #ffffff; stroke-width: 2"/>
    </g>
    <g clip-path="url(#p285c26bf96)">
     <use xlink:href="#C1_0_1e4f7c8282" x="125.680584" y="230.679051" style="fill: #ffffff; stroke: #ffffff; stroke-width: 2"/>
    </g>
    <g clip-path="url(#p285c26bf96)">
     <use xlink:href="#C1_0_1e4f7c8282" x="125.680584" y="207.995803" style="fill: #ffffff; stroke: #ffffff; stroke-width: 2"/>
    </g>
    <g clip-path="url(#p285c26bf96)">
     <use xlink:href="#C1_0_1e4f7c8282" x="125.680584" y="185.312554" style="fill: #ffffff; stroke: #ffffff; stroke-width: 2"/>
    </g>
    <g clip-path="url(#p285c26bf96)">
     <use xlink:href="#C1_0_1e4f7c8282" x="118.426798" y="161.469367" style="fill: #ffffff; stroke: #ffffff; stroke-width: 2"/>
    </g>
    <g clip-path="url(#p285c26bf96)">
     <use xlink:href="#C1_0_1e4f7c8282" x="132.442588" y="141.36376" style="fill: #ffffff; stroke: #ffffff; stroke-width: 2"/>
    </g>
    <g clip-path="url(#p285c26bf96)">
     <use xlink:href="#C1_0_1e4f7c8282" x="156.171073" y="141.36376" style="fill: #ffffff; stroke: #ffffff; stroke-width: 2"/>
    </g>
    <g clip-path="url(#p285c26bf96)">
     <use xlink:href="#C1_0_1e4f7c8282" x="170.186863" y="161.469367" style="fill: #ffffff; stroke: #ffffff; stroke-width: 2"/>
    </g>
    <g clip-path="url(#p285c26bf96)">
     <use xlink:href="#C1_0_1e4f7c8282" x="163.056022" y="185.312554" style="fill: #ffffff; stroke: #ffffff; stroke-width: 2"/>
    </g>
    <g clip-path="url(#p285c26bf96)">
     <use xlink:href="#C1_0_1e4f7c8282" x="163.056022" y="207.995803" style="fill: #ffffff; stroke: #ffffff; stroke-width: 2"/>
    </g>
    <g clip-path="url(#p285c26bf96)">
     <use xlink:href="#C1_0_1e4f7c8282" x="163.056022" y="230.679051" style="fill: #ffffff; stroke: #ffffff; stroke-width: 2"/>
    </g>
    <g clip-path="url(#p285c26bf96)">
     <use xlink:href="#C1_0_1e4f7c8282" x="163.056022" y="253.3623" style="fill: #ffffff; stroke: #ffffff; stroke-width: 2"/>
    </g>
    <g clip-path="url(#p285c26bf96)">
     <use xlink:href="#C1_0_1e4f7c8282" x="163.056022" y="276.045548" style="fill: #ffffff; stroke: #ffffff; stroke-width: 2"/>
    </g>
    <g clip-path="url(#p285c26bf96)">
     <use xlink:href="#C1_0_1e4f7c8282" x="163.056022" y="298.728796" style="fill: #ffffff; stroke: #ffffff; stroke-width: 2"/>
    </g>
    <g clip-path="url(#p285c26bf96)">
     <use xlink:href="#C1_0_1e4f7c8282" x="179.161886" y="318.834403" style="fill: #ffffff; stroke: #ffffff; stroke-width: 2"/>
    </g>
    <g clip-path="url(#p285c26bf96)">
     <use xlink:href="#C1_0_1e4f7c8282" x="185.555053" y="341.904298" style="fill: #ffffff; stroke: #ffffff; stroke-width: 2"/>
    </g>
    <g clip-path="url(#p285c26bf96)">
     <use xlink:href="#C1_0_1e4f7c8282" x="179.161886" y="365.103075" style="fill: #f66c00; stroke: #f66c00; stroke-width: 2"/>
    </g>
    <g clip-path="url(#p285c26bf96)">
     <use xlink:href="#C1_0_1e4f7c8282" x="163.056022" y="385.208681" style="fill: #f66c00; stroke: #f66c00; stroke-width: 2"/>
    </g>
    <g clip-path="url(#p285c26bf96)">
     <use xlink:href="#C1_0_1e4f7c8282" x="163.056022" y="407.89193" style="fill: #f66c00; stroke: #f66c00; stroke-width: 2"/>
    </g>
    <g clip-path="url(#p285c26bf96)">
     <use xlink:href="#C1_0_1e4f7c8282" x="163.056022" y="430.575178" style="fill: #f66c00; stroke: #f66c00; stroke-width: 2"/>
    </g>
    <g clip-path="url(#p285c26bf96)">
     <use xlink:href="#C1_0_1e4f7c8282" x="163.056022" y="473.364033" style="fill: #f66c00; stroke: #f66c00; stroke-width: 2"/>
    </g>
    <g clip-path="url(#p285c26bf96)">
     <use xlink:href="#C1_0_1e4f7c8282" x="163.056022" y="516.152888" style="fill: #f66c00; stroke: #f66c00; stroke-width: 2"/>
    </g>
    <g clip-path="url(#p285c26bf96)">
     <use xlink:href="#C1_0_1e4f7c8282" x="163.056022" y="558.941743" style="fill: #f66c00; stroke: #f66c00; stroke-width: 2"/>
    </g>
    <g clip-path="url(#p285c26bf96)">
     <use xlink:href="#C1_0_1e4f7c8282" x="163.056022" y="581.624992" style="fill: #ffffff; stroke: #ffffff; stroke-width: 2"/>
    </g>
    <g clip-path="url(#p285c26bf96)">
     <use xlink:href="#C1_0_1e4f7c8282" x="163.056022" y="604.30824" style="fill: #ffffff; stroke: #ffffff; stroke-width: 2"/>
    </g>
    <g clip-path="url(#p285c26bf96)">
     <use xlink:href="#C1_0_1e4f7c8282" x="163.056022" y="626.991489" style="fill: #ffffff; stroke: #ffffff; stroke-width: 2"/>
    </g>
    <g clip-path="url(#p285c26bf96)">
     <use xlink:href="#C1_0_1e4f7c8282" x="163.056022" y="649.674737" style="fill: #ffffff; stroke: #ffffff; stroke-width: 2"/>
    </g>
    <g clip-path="url(#p285c26bf96)">
     <use xlink:href="#C1_0_1e4f7c8282" x="163.056022" y="675.451156" style="fill: #ffffff; stroke: #ffffff; stroke-width: 2"/>
    </g>
   </g>
   <g id="PathCollection_3">
    <defs>
     <path id="C2_0_c2e50e857e" d="M 3.288577 3.436273 
L 3.288577 0.847965 
L 1.158851 0.847965 
L 1.158851 -0.224127 
L 4.579632 -0.224127 
L 4.579632 3.915513 
Q 3.825656 4.450527 2.914687 4.725263 
Q 2.005784 5 0.972939 5 
Q -1.286924 5 -2.56352 3.680025 
Q -3.83805 2.357984 -3.83805 0.003099 
Q -3.83805 -2.36005 -2.56352 -3.680025 
Q -1.286924 -5 0.972939 -5 
Q 1.914894 -5 2.763892 -4.766577 
Q 3.61289 -4.53522 4.329684 -4.082834 
L 4.329684 -2.694691 
Q 3.606693 -3.308201 2.792811 -3.618054 
Q 1.97893 -3.927907 1.082421 -3.927907 
Q -0.687874 -3.927907 -1.576121 -2.940508 
Q -2.462301 -1.953109 -2.462301 0.003099 
Q -2.462301 1.953109 -1.576121 2.940508 
Q -0.687874 3.927907 1.082421 3.927907 
Q 1.772361 3.927907 2.313572 3.808098 
Q 2.856848 3.688288 3.288577 3.436273 
z
"/>
    </defs>
    <g clip-path="url(#p285c26bf96)">
     <use xlink:href="#C2_0_c2e50e857e" x="125.680584" y="649.674737" style="stroke: #000000"/>
    </g>
    <g clip-path="url(#p285c26bf96)">
     <use xlink:href="#C2_0_c2e50e857e" x="125.680584" y="604.30824" style="stroke: #000000"/>
    </g>
    <g clip-path="url(#p285c26bf96)">
     <use xlink:href="#C2_0_c2e50e857e" x="106.746974" y="545.538006" style="fill: #ffffff; stroke: #ffffff"/>
    </g>
    <g clip-path="url(#p285c26bf96)">
     <use xlink:href="#C2_0_c2e50e857e" x="84.002052" y="483.159072" style="fill: #ffffff; stroke: #ffffff"/>
    </g>
    <g clip-path="url(#p285c26bf96)">
     <use xlink:href="#C2_0_c2e50e857e" x="106.746974" y="443.978916" style="stroke: #000000"/>
    </g>
    <g clip-path="url(#p285c26bf96)">
     <use xlink:href="#C2_0_c2e50e857e" x="125.680584" y="298.728796" style="stroke: #000000"/>
    </g>
    <g clip-path="url(#p285c26bf96)">
     <use xlink:href="#C2_0_c2e50e857e" x="125.680584" y="253.3623" style="stroke: #000000"/>
    </g>
    <g clip-path="url(#p285c26bf96)">
     <use xlink:href="#C2_0_c2e50e857e" x="125.680584" y="230.679051" style="stroke: #000000"/>
    </g>
    <g clip-path="url(#p285c26bf96)">
     <use xlink:href="#C2_0_c2e50e857e" x="118.426798" y="161.469367" style="stroke: #000000"/>
    </g>
    <g clip-path="url(#p285c26bf96)">
     <use xlink:href="#C2_0_c2e50e857e" x="163.056022" y="185.312554" style="stroke: #000000"/>
    </g>
    <g clip-path="url(#p285c26bf96)">
     <use xlink:href="#C2_0_c2e50e857e" x="163.056022" y="207.995803" style="stroke: #000000"/>
    </g>
    <g clip-path="url(#p285c26bf96)">
     <use xlink:href="#C2_0_c2e50e857e" x="163.056022" y="276.045548" style="stroke: #000000"/>
    </g>
    <g clip-path="url(#p285c26bf96)">
     <use xlink:href="#C2_0_c2e50e857e" x="179.161886" y="365.103075" style="fill: #ffffff; stroke: #ffffff"/>
    </g>
    <g clip-path="url(#p285c26bf96)">
     <use xlink:href="#C2_0_c2e50e857e" x="163.056022" y="385.208681" style="fill: #ffffff; stroke: #ffffff"/>
    </g>
    <g clip-path="url(#p285c26bf96)">
     <use xlink:href="#C2_0_c2e50e857e" x="163.056022" y="581.624992" style="stroke: #000000"/>
    </g>
   </g>
   <g id="PathCollection_4">
    <defs>
     <path id="C3_0_635d99ff95" d="M -3.170065 -5 
L -1.83519 -5 
L -1.83519 0.959638 
Q -1.83519 2.536262 -1.265503 3.229977 
Q -0.693715 3.921589 0.588606 3.921589 
Q 1.862518 3.921589 2.434307 3.229977 
Q 3.006096 2.536262 3.006096 0.959638 
L 3.006096 -5 
L 4.338869 -5 
L 4.338869 1.123607 
Q 4.338869 3.040782 3.38869 4.020391 
Q 2.440614 5 0.588606 5 
Q -1.27181 5 -2.221989 4.020391 
Q -3.170065 3.040782 -3.170065 1.123607 
L -3.170065 -5 
z
"/>
    </defs>
    <g clip-path="url(#p285c26bf96)">
     <use xlink:href="#C3_0_635d99ff95" x="125.680584" y="581.624992" style="stroke: #000000"/>
    </g>
    <g clip-path="url(#p285c26bf96)">
     <use xlink:href="#C3_0_635d99ff95" x="125.680584" y="430.575178" style="stroke: #000000"/>
    </g>
    <g clip-path="url(#p285c26bf96)">
     <use xlink:href="#C3_0_635d99ff95" x="125.680584" y="407.89193" style="stroke: #000000"/>
    </g>
    <g clip-path="url(#p285c26bf96)">
     <use xlink:href="#C3_0_635d99ff95" x="163.056022" y="516.152888" style="fill: #ffffff; stroke: #ffffff"/>
    </g>
    <g clip-path="url(#p285c26bf96)">
     <use xlink:href="#C3_0_635d99ff95" x="163.056022" y="558.941743" style="fill: #ffffff; stroke: #ffffff"/>
    </g>
    <g clip-path="url(#p285c26bf96)">
     <use xlink:href="#C3_0_635d99ff95" x="163.056022" y="626.991489" style="stroke: #000000"/>
    </g>
   </g>
   <g id="PathCollection_5">
    <defs>
     <path id="C4_0_1a3fdf1c71" d="M 0.054651 -3.666952 
L -1.78204 1.309473 
L 1.895628 1.309473 
L 0.054651 -3.666952 
z
M -0.710459 -5 
L 0.824046 -5 
L 4.634591 5 
L 3.228676 5 
L 2.317831 2.434634 
L -2.189241 2.434634 
L -3.100086 5 
L -4.527432 5 
L -0.710459 -5 
z
"/>
    </defs>
    <g clip-path="url(#p285c26bf96)">
     <use xlink:href="#C4_0_1a3fdf1c71" x="125.680584" y="626.991489" style="stroke: #000000"/>
    </g>
    <g clip-path="url(#p285c26bf96)">
     <use xlink:href="#C4_0_1a3fdf1c71" x="125.680584" y="558.941743" style="fill: #ffffff; stroke: #ffffff"/>
    </g>
    <g clip-path="url(#p285c26bf96)">
     <use xlink:href="#C4_0_1a3fdf1c71" x="91.993511" y="528.138923" style="stroke: #000000"/>
    </g>
    <g clip-path="url(#p285c26bf96)">
     <use xlink:href="#C4_0_1a3fdf1c71" x="84.002052" y="506.357849" style="stroke: #000000"/>
    </g>
    <g clip-path="url(#p285c26bf96)">
     <use xlink:href="#C4_0_1a3fdf1c71" x="125.680584" y="341.904298" style="stroke: #000000"/>
    </g>
    <g clip-path="url(#p285c26bf96)">
     <use xlink:href="#C4_0_1a3fdf1c71" x="132.442588" y="141.36376" style="stroke: #000000"/>
    </g>
    <g clip-path="url(#p285c26bf96)">
     <use xlink:href="#C4_0_1a3fdf1c71" x="156.171073" y="141.36376" style="stroke: #000000"/>
    </g>
    <g clip-path="url(#p285c26bf96)">
     <use xlink:href="#C4_0_1a3fdf1c71" x="170.186863" y="161.469367" style="stroke: #000000"/>
    </g>
    <g clip-path="url(#p285c26bf96)">
     <use xlink:href="#C4_0_1a3fdf1c71" x="163.056022" y="407.89193" style="fill: #ffffff; stroke: #ffffff"/>
    </g>
    <g clip-path="url(#p285c26bf96)">
     <use xlink:href="#C4_0_1a3fdf1c71" x="163.056022" y="430.575178" style="fill: #ffffff; stroke: #ffffff"/>
    </g>
    <g clip-path="url(#p285c26bf96)">
     <use xlink:href="#C4_0_1a3fdf1c71" x="163.056022" y="473.364033" style="fill: #ffffff; stroke: #ffffff"/>
    </g>
   </g>
   <g id="PathCollection_6">
    <defs>
     <path id="C5_0_46dcb08a4f" d="M 4.257385 -4.082834 
L 4.257385 -2.709151 
Q 3.59843 -3.322661 2.852716 -3.624251 
Q 2.107003 -3.927907 1.268333 -3.927907 
Q -0.384218 -3.927907 -1.262136 -2.917786 
Q -2.140054 -1.907664 -2.140054 0.003099 
Q -2.140054 1.907664 -1.262136 2.917786 
Q -0.384218 3.927907 1.268333 3.927907 
Q 2.107003 3.927907 2.852716 3.624251 
Q 3.59843 3.320595 4.257385 2.707085 
L 4.257385 4.07044 
Q 3.573642 4.53522 2.807271 4.768643 
Q 2.042966 5 1.191902 5 
Q -0.997728 5 -2.257798 3.661434 
Q -3.515803 2.320801 -3.515803 0.003099 
Q -3.515803 -2.320801 -2.257798 -3.659368 
Q -0.997728 -5 1.191902 -5 
Q 2.05536 -5 2.819665 -4.770709 
Q 3.586036 -4.541417 4.257385 -4.082834 
z
"/>
    </defs>
    <g clip-path="url(#p285c26bf96)">
     <use xlink:href="#C5_0_46dcb08a4f" x="91.993511" y="461.377999" style="stroke: #000000"/>
    </g>
    <g clip-path="url(#p285c26bf96)">
     <use xlink:href="#C5_0_46dcb08a4f" x="125.680584" y="385.208681" style="stroke: #000000"/>
    </g>
    <g clip-path="url(#p285c26bf96)">
     <use xlink:href="#C5_0_46dcb08a4f" x="125.680584" y="276.045548" style="stroke: #000000"/>
    </g>
    <g clip-path="url(#p285c26bf96)">
     <use xlink:href="#C5_0_46dcb08a4f" x="125.680584" y="207.995803" style="stroke: #000000"/>
    </g>
    <g clip-path="url(#p285c26bf96)">
     <use xlink:href="#C5_0_46dcb08a4f" x="125.680584" y="185.312554" style="stroke: #000000"/>
    </g>
    <g clip-path="url(#p285c26bf96)">
     <use xlink:href="#C5_0_46dcb08a4f" x="163.056022" y="230.679051" style="stroke: #000000"/>
    </g>
    <g clip-path="url(#p285c26bf96)">
     <use xlink:href="#C5_0_46dcb08a4f" x="163.056022" y="253.3623" style="stroke: #000000"/>
    </g>
    <g clip-path="url(#p285c26bf96)">
     <use xlink:href="#C5_0_46dcb08a4f" x="163.056022" y="298.728796" style="stroke: #000000"/>
    </g>
    <g clip-path="url(#p285c26bf96)">
     <use xlink:href="#C5_0_46dcb08a4f" x="179.161886" y="318.834403" style="stroke: #000000"/>
    </g>
    <g clip-path="url(#p285c26bf96)">
     <use xlink:href="#C5_0_46dcb08a4f" x="185.555053" y="341.904298" style="stroke: #000000"/>
    </g>
    <g clip-path="url(#p285c26bf96)">
     <use xlink:href="#C5_0_46dcb08a4f" x="163.056022" y="604.30824" style="stroke: #000000"/>
    </g>
    <g clip-path="url(#p285c26bf96)">
     <use xlink:href="#C5_0_46dcb08a4f" x="163.056022" y="649.674737" style="stroke: #000000"/>
    </g>
    <g clip-path="url(#p285c26bf96)">
     <use xlink:href="#C5_0_46dcb08a4f" x="163.056022" y="675.451156" style="stroke: #000000"/>
    </g>
   </g>
   <g id="PathCollection_7"/>
   <g id="PathCollection_8"/>
   <g id="PathCollection_9"/>
   <g id="PathCollection_10"/>
  </g>
 </g>
 <defs>
  <clipPath id="p285c26bf96">
   <rect x="41.548964" y="75.479234" width="186.459177" height="665.856448"/>
  </clipPath>
 </defs>
</svg>
