<?xml version="1.0" encoding="utf-8" standalone="no"?>
<!DOCTYPE svg PUBLIC "-//W3C//DTD SVG 1.1//EN"
  "http://www.w3.org/Graphics/SVG/1.1/DTD/svg11.dtd">
<svg xmlns:xlink="http://www.w3.org/1999/xlink" width="248.350263pt" height="713.788816pt" viewBox="0 0 248.350263 713.788816" xmlns="http://www.w3.org/2000/svg" version="1.1">
 <metadata>
  <rdf:RDF xmlns:dc="http://purl.org/dc/elements/1.1/" xmlns:cc="http://creativecommons.org/ns#" xmlns:rdf="http://www.w3.org/1999/02/22-rdf-syntax-ns#">
   <cc:Work>
    <dc:type rdf:resource="http://purl.org/dc/dcmitype/StillImage"/>
    <dc:date>2023-10-13T16:40:49.719690</dc:date>
    <dc:format>image/svg+xml</dc:format>
    <dc:creator>
     <cc:Agent>
      <dc:title>Matplotlib v3.6.3, https://matplotlib.org/</dc:title>
     </cc:Agent>
    </dc:creator>
   </cc:Work>
  </rdf:RDF>
 </metadata>
 <defs>
  <style type="text/css">*{stroke-linejoin: round; stroke-linecap: butt}</style>
 </defs>
 <g id="figure_1">
  <g id="patch_1">
   <path d="M 0 713.788816 
L 248.350263 713.788816 
L 248.350263 0 
L 0 0 
z
" style="fill: #ffffff"/>
  </g>
  <g id="axes_1">
   <g id="line2d_1">
    <path d="M 133.672803 611.03892 
L 145.959153 611.03892 
" clip-path="url(#peaabe34459)" style="fill: none; stroke: #808080; stroke-width: 3; stroke-linecap: round"/>
   </g>
   <g id="line2d_2">
    <path d="M 133.672803 588.41018 
L 145.959153 588.41018 
" clip-path="url(#peaabe34459)" style="fill: none; stroke: #808080; stroke-width: 3; stroke-linecap: round"/>
   </g>
   <g id="line2d_3">
    <path d="M 133.672803 565.781439 
L 145.959153 565.781439 
" clip-path="url(#peaabe34459)" style="fill: none; stroke: #808080; stroke-width: 3; stroke-linecap: round"/>
   </g>
   <g id="line2d_4">
    <path d="M 133.672803 543.152698 
L 145.959153 543.152698 
" clip-path="url(#peaabe34459)" style="fill: none; stroke: #808080; stroke-width: 3; stroke-linecap: round"/>
   </g>
   <g id="line2d_5">
    <path d="M 133.672803 520.523957 
L 145.959153 520.523957 
" clip-path="url(#peaabe34459)" style="fill: none; stroke: #808080; stroke-width: 3; stroke-linecap: round"/>
   </g>
   <g id="line2d_6">
    <path d="M 133.672803 400.180199 
L 145.959153 400.180199 
" clip-path="url(#peaabe34459)" style="fill: none; stroke: #808080; stroke-width: 3; stroke-linecap: round"/>
   </g>
   <g id="line2d_7">
    <path d="M 133.672803 377.551458 
L 145.959153 377.551458 
" clip-path="url(#peaabe34459)" style="fill: none; stroke: #808080; stroke-width: 3; stroke-linecap: round"/>
   </g>
   <g id="line2d_8">
    <path d="M 133.672803 354.922718 
L 145.959153 354.922718 
" clip-path="url(#peaabe34459)" style="fill: none; stroke: #808080; stroke-width: 3; stroke-linecap: round"/>
   </g>
   <g id="line2d_9">
    <path d="M 133.672803 332.293977 
L 145.959153 332.293977 
" clip-path="url(#peaabe34459)" style="fill: none; stroke: #808080; stroke-width: 3; stroke-linecap: round"/>
   </g>
   <g id="line2d_10">
    <path d="M 133.672803 278.293573 
L 145.959153 278.293573 
" clip-path="url(#peaabe34459)" style="fill: none; stroke: #808080; stroke-width: 3; stroke-linecap: round"/>
   </g>
   <g id="line2d_11">
    <path d="M 133.672803 255.664832 
L 145.959153 255.664832 
" clip-path="url(#peaabe34459)" style="fill: none; stroke: #808080; stroke-width: 3; stroke-linecap: round"/>
   </g>
   <g id="line2d_12">
    <path d="M 133.672803 233.036091 
L 145.959153 233.036091 
" clip-path="url(#peaabe34459)" style="fill: none; stroke: #808080; stroke-width: 3; stroke-linecap: round"/>
   </g>
   <g id="line2d_13">
    <path d="M 133.672803 210.40735 
L 145.959153 210.40735 
" clip-path="url(#peaabe34459)" style="fill: none; stroke: #808080; stroke-width: 3; stroke-linecap: round"/>
   </g>
   <g id="line2d_14">
    <path d="M 133.672803 187.778609 
L 145.959153 187.778609 
" clip-path="url(#peaabe34459)" style="fill: none; stroke: #808080; stroke-width: 3; stroke-linecap: round"/>
   </g>
   <g id="LineCollection_1">
    <path d="M 121.386454 611.03892 
L 121.386454 599.72455 
L 121.386454 588.41018 
L 121.386454 577.095809 
L 121.386454 565.781439 
L 121.386454 554.467068 
L 121.386454 543.152698 
L 121.386454 531.838328 
L 121.386454 520.523957 
L 111.62608 512.809614 
L 101.865707 505.09527 
L 94.894012 494.938051 
L 87.922317 484.780833 
L 85.497379 472.566455 
L 83.072442 460.352078 
L 85.497379 448.073415 
L 87.922317 435.794752 
L 94.894012 425.701819 
L 101.865707 415.608886 
L 111.62608 407.894543 
L 121.386454 400.180199 
L 121.386454 388.865829 
L 121.386454 377.551458 
L 121.386454 366.237088 
L 121.386454 354.922718 
L 121.386454 343.608347 
L 121.386454 332.293977 
L 121.386454 305.293775 
L 121.386454 278.293573 
L 121.386454 266.979202 
L 121.386454 255.664832 
L 121.386454 244.350461 
L 121.386454 233.036091 
L 121.386454 221.721721 
L 121.386454 210.40735 
L 121.386454 199.09298 
L 121.386454 187.778609 
L 118.173411 174.792798 
L 114.960369 161.806986 
L 121.083336 150.171185 
L 127.206303 138.535384 
L 139.815978 138.535384 
L 152.425653 138.535384 
L 158.54862 150.171185 
L 164.671587 161.806986 
L 161.458545 174.792798 
L 158.245503 187.778609 
L 158.245503 199.09298 
L 158.245503 210.40735 
L 158.245503 221.721721 
L 158.245503 233.036091 
L 158.245503 244.350461 
L 158.245503 255.664832 
L 158.245503 266.979202 
L 158.245503 278.293573 
L 161.761662 291.793674 
L 165.277821 305.293775 
L 161.761662 318.793876 
L 158.245503 332.293977 
L 158.245503 343.608347 
L 158.245503 354.922718 
L 158.245503 366.237088 
L 158.245503 377.551458 
L 158.245503 388.865829 
L 158.245503 400.180199 
L 158.245503 460.352078 
L 158.245503 520.523957 
L 158.245503 531.838328 
L 158.245503 543.152698 
L 158.245503 554.467068 
L 158.245503 565.781439 
L 158.245503 577.095809 
L 158.245503 588.41018 
L 158.245503 599.72455 
L 158.245503 611.03892 
" clip-path="url(#peaabe34459)" style="fill: none; stroke: #808080; stroke-width: 3"/>
   </g>
   <g id="text_1">
    <text style="fill: #262626; font: 24px 'Arial', 'DejaVu Sans', 'Liberation Sans', 'Bitstream Vera Sans', sans-serif; text-anchor: middle" x="124.175132" y="69.8242" transform="rotate(-0 124.175132 69.8242)">2ktz</text>
   </g>
   <g id="PathCollection_1">
    <defs>
     <path id="C0_0_1c65060099" d="M 0 8 
C 2.121625 8 4.156639 7.15707 5.656854 5.656854 
C 7.15707 4.156639 8 2.121625 8 -0 
C 8 -2.121625 7.15707 -4.156639 5.656854 -5.656854 
C 4.156639 -7.15707 2.121625 -8 0 -8 
C -2.121625 -8 -4.156639 -7.15707 -5.656854 -5.656854 
C -7.15707 -4.156639 -8 -2.121625 -8 0 
C -8 2.121625 -7.15707 4.156639 -5.656854 5.656854 
C -4.156639 7.15707 -2.121625 8 0 8 
z
"/>
    </defs>
    <g clip-path="url(#peaabe34459)">
     <use xlink:href="#C0_0_1c65060099" x="121.386454" y="611.03892" style="fill: #ffffff; stroke: #ffffff; stroke-width: 2"/>
    </g>
    <g clip-path="url(#peaabe34459)">
     <use xlink:href="#C0_0_1c65060099" x="121.386454" y="588.41018" style="fill: #bf5ca3; stroke: #bf5ca3; stroke-width: 2"/>
    </g>
    <g clip-path="url(#peaabe34459)">
     <use xlink:href="#C0_0_1c65060099" x="121.386454" y="565.781439" style="fill: #bf5ca3; stroke: #bf5ca3; stroke-width: 2"/>
    </g>
    <g clip-path="url(#peaabe34459)">
     <use xlink:href="#C0_0_1c65060099" x="121.386454" y="543.152698" style="fill: #f66c00; stroke: #f66c00; stroke-width: 2"/>
    </g>
    <g clip-path="url(#peaabe34459)">
     <use xlink:href="#C0_0_1c65060099" x="121.386454" y="520.523957" style="fill: #f66c00; stroke: #f66c00; stroke-width: 2"/>
    </g>
    <g clip-path="url(#peaabe34459)">
     <use xlink:href="#C0_0_1c65060099" x="101.865707" y="505.09527" style="fill: #f66c00; stroke: #f66c00; stroke-width: 2"/>
    </g>
    <g clip-path="url(#peaabe34459)">
     <use xlink:href="#C0_0_1c65060099" x="87.922317" y="484.780833" style="fill: #f66c00; stroke: #f66c00; stroke-width: 2"/>
    </g>
    <g clip-path="url(#peaabe34459)">
     <use xlink:href="#C0_0_1c65060099" x="83.072442" y="460.352078" style="fill: #ffffff; stroke: #ffffff; stroke-width: 2"/>
    </g>
    <g clip-path="url(#peaabe34459)">
     <use xlink:href="#C0_0_1c65060099" x="87.922317" y="435.794752" style="fill: #f66c00; stroke: #f66c00; stroke-width: 2"/>
    </g>
    <g clip-path="url(#peaabe34459)">
     <use xlink:href="#C0_0_1c65060099" x="101.865707" y="415.608886" style="fill: #f66c00; stroke: #f66c00; stroke-width: 2"/>
    </g>
    <g clip-path="url(#peaabe34459)">
     <use xlink:href="#C0_0_1c65060099" x="121.386454" y="400.180199" style="fill: #f66c00; stroke: #f66c00; stroke-width: 2"/>
    </g>
    <g clip-path="url(#peaabe34459)">
     <use xlink:href="#C0_0_1c65060099" x="121.386454" y="377.551458" style="fill: #ffffff; stroke: #ffffff; stroke-width: 2"/>
    </g>
    <g clip-path="url(#peaabe34459)">
     <use xlink:href="#C0_0_1c65060099" x="121.386454" y="354.922718" style="fill: #ffffff; stroke: #ffffff; stroke-width: 2"/>
    </g>
    <g clip-path="url(#peaabe34459)">
     <use xlink:href="#C0_0_1c65060099" x="121.386454" y="332.293977" style="fill: #ffffff; stroke: #ffffff; stroke-width: 2"/>
    </g>
    <g clip-path="url(#peaabe34459)">
     <use xlink:href="#C0_0_1c65060099" x="121.386454" y="278.293573" style="fill: #ffffff; stroke: #ffffff; stroke-width: 2"/>
    </g>
    <g clip-path="url(#peaabe34459)">
     <use xlink:href="#C0_0_1c65060099" x="121.386454" y="255.664832" style="fill: #ffffff; stroke: #ffffff; stroke-width: 2"/>
    </g>
    <g clip-path="url(#peaabe34459)">
     <use xlink:href="#C0_0_1c65060099" x="121.386454" y="233.036091" style="fill: #ffffff; stroke: #ffffff; stroke-width: 2"/>
    </g>
    <g clip-path="url(#peaabe34459)">
     <use xlink:href="#C0_0_1c65060099" x="121.386454" y="210.40735" style="fill: #ffffff; stroke: #ffffff; stroke-width: 2"/>
    </g>
    <g clip-path="url(#peaabe34459)">
     <use xlink:href="#C0_0_1c65060099" x="121.386454" y="187.778609" style="fill: #1c6f2e; stroke: #1c6f2e; stroke-width: 2"/>
    </g>
    <g clip-path="url(#peaabe34459)">
     <use xlink:href="#C0_0_1c65060099" x="114.960369" y="161.806986" style="fill: #1c6f2e; stroke: #1c6f2e; stroke-width: 2"/>
    </g>
    <g clip-path="url(#peaabe34459)">
     <use xlink:href="#C0_0_1c65060099" x="127.206303" y="138.535384" style="fill: #1c6f2e; stroke: #1c6f2e; stroke-width: 2"/>
    </g>
    <g clip-path="url(#peaabe34459)">
     <use xlink:href="#C0_0_1c65060099" x="152.425653" y="138.535384" style="fill: #ffffff; stroke: #ffffff; stroke-width: 2"/>
    </g>
    <g clip-path="url(#peaabe34459)">
     <use xlink:href="#C0_0_1c65060099" x="164.671587" y="161.806986" style="fill: #1c6f2e; stroke: #1c6f2e; stroke-width: 2"/>
    </g>
    <g clip-path="url(#peaabe34459)">
     <use xlink:href="#C0_0_1c65060099" x="158.245503" y="187.778609" style="fill: #1c6f2e; stroke: #1c6f2e; stroke-width: 2"/>
    </g>
    <g clip-path="url(#peaabe34459)">
     <use xlink:href="#C0_0_1c65060099" x="158.245503" y="210.40735" style="fill: #ffffff; stroke: #ffffff; stroke-width: 2"/>
    </g>
    <g clip-path="url(#peaabe34459)">
     <use xlink:href="#C0_0_1c65060099" x="158.245503" y="233.036091" style="fill: #ffffff; stroke: #ffffff; stroke-width: 2"/>
    </g>
    <g clip-path="url(#peaabe34459)">
     <use xlink:href="#C0_0_1c65060099" x="158.245503" y="255.664832" style="fill: #ffffff; stroke: #ffffff; stroke-width: 2"/>
    </g>
    <g clip-path="url(#peaabe34459)">
     <use xlink:href="#C0_0_1c65060099" x="158.245503" y="278.293573" style="fill: #ffffff; stroke: #ffffff; stroke-width: 2"/>
    </g>
    <g clip-path="url(#peaabe34459)">
     <use xlink:href="#C0_0_1c65060099" x="165.277821" y="305.293775" style="fill: #ffffff; stroke: #ffffff; stroke-width: 2"/>
    </g>
    <g clip-path="url(#peaabe34459)">
     <use xlink:href="#C0_0_1c65060099" x="158.245503" y="332.293977" style="fill: #ffffff; stroke: #ffffff; stroke-width: 2"/>
    </g>
    <g clip-path="url(#peaabe34459)">
     <use xlink:href="#C0_0_1c65060099" x="158.245503" y="354.922718" style="fill: #ffffff; stroke: #ffffff; stroke-width: 2"/>
    </g>
    <g clip-path="url(#peaabe34459)">
     <use xlink:href="#C0_0_1c65060099" x="158.245503" y="377.551458" style="fill: #ffffff; stroke: #ffffff; stroke-width: 2"/>
    </g>
    <g clip-path="url(#peaabe34459)">
     <use xlink:href="#C0_0_1c65060099" x="158.245503" y="400.180199" style="fill: #f66c00; stroke: #f66c00; stroke-width: 2"/>
    </g>
    <g clip-path="url(#peaabe34459)">
     <use xlink:href="#C0_0_1c65060099" x="158.245503" y="520.523957" style="fill: #f66c00; stroke: #f66c00; stroke-width: 2"/>
    </g>
    <g clip-path="url(#peaabe34459)">
     <use xlink:href="#C0_0_1c65060099" x="158.245503" y="543.152698" style="fill: #ffffff; stroke: #ffffff; stroke-width: 2"/>
    </g>
    <g clip-path="url(#peaabe34459)">
     <use xlink:href="#C0_0_1c65060099" x="158.245503" y="565.781439" style="fill: #bf5ca3; stroke: #bf5ca3; stroke-width: 2"/>
    </g>
    <g clip-path="url(#peaabe34459)">
     <use xlink:href="#C0_0_1c65060099" x="158.245503" y="588.41018" style="fill: #bf5ca3; stroke: #bf5ca3; stroke-width: 2"/>
    </g>
    <g clip-path="url(#peaabe34459)">
     <use xlink:href="#C0_0_1c65060099" x="158.245503" y="611.03892" style="fill: #ffffff; stroke: #ffffff; stroke-width: 2"/>
    </g>
   </g>
   <g id="PathCollection_2">
    <defs>
     <path id="C1_0_9dfd5ca0f6" d="M 0 10 
C 2.652031 10 5.195799 8.946337 7.071068 7.071068 
C 8.946337 5.195799 10 2.652031 10 -0 
C 10 -2.652031 8.946337 -5.195799 7.071068 -7.071068 
C 5.195799 -8.946337 2.652031 -10 0 -10 
C -2.652031 -10 -5.195799 -8.946337 -7.071068 -7.071068 
C -8.946337 -5.195799 -10 -2.652031 -10 0 
C -10 2.652031 -8.946337 5.195799 -7.071068 7.071068 
C -5.195799 8.946337 -2.652031 10 0 10 
z
"/>
    </defs>
    <g clip-path="url(#peaabe34459)">
     <use xlink:href="#C1_0_9dfd5ca0f6" x="121.386454" y="611.03892" style="fill: #ffffff; stroke: #ffffff; stroke-width: 2"/>
    </g>
    <g clip-path="url(#peaabe34459)">
     <use xlink:href="#C1_0_9dfd5ca0f6" x="121.386454" y="588.41018" style="fill: #bf5ca3; stroke: #bf5ca3; stroke-width: 2"/>
    </g>
    <g clip-path="url(#peaabe34459)">
     <use xlink:href="#C1_0_9dfd5ca0f6" x="121.386454" y="565.781439" style="fill: #bf5ca3; stroke: #bf5ca3; stroke-width: 2"/>
    </g>
    <g clip-path="url(#peaabe34459)">
     <use xlink:href="#C1_0_9dfd5ca0f6" x="121.386454" y="543.152698" style="fill: #f66c00; stroke: #f66c00; stroke-width: 2"/>
    </g>
    <g clip-path="url(#peaabe34459)">
     <use xlink:href="#C1_0_9dfd5ca0f6" x="121.386454" y="520.523957" style="fill: #f66c00; stroke: #f66c00; stroke-width: 2"/>
    </g>
    <g clip-path="url(#peaabe34459)">
     <use xlink:href="#C1_0_9dfd5ca0f6" x="101.865707" y="505.09527" style="fill: #f66c00; stroke: #f66c00; stroke-width: 2"/>
    </g>
    <g clip-path="url(#peaabe34459)">
     <use xlink:href="#C1_0_9dfd5ca0f6" x="87.922317" y="484.780833" style="fill: #f66c00; stroke: #f66c00; stroke-width: 2"/>
    </g>
    <g clip-path="url(#peaabe34459)">
     <use xlink:href="#C1_0_9dfd5ca0f6" x="83.072442" y="460.352078" style="fill: #ffffff; stroke: #ffffff; stroke-width: 2"/>
    </g>
    <g clip-path="url(#peaabe34459)">
     <use xlink:href="#C1_0_9dfd5ca0f6" x="87.922317" y="435.794752" style="fill: #f66c00; stroke: #f66c00; stroke-width: 2"/>
    </g>
    <g clip-path="url(#peaabe34459)">
     <use xlink:href="#C1_0_9dfd5ca0f6" x="101.865707" y="415.608886" style="fill: #f66c00; stroke: #f66c00; stroke-width: 2"/>
    </g>
    <g clip-path="url(#peaabe34459)">
     <use xlink:href="#C1_0_9dfd5ca0f6" x="121.386454" y="400.180199" style="fill: #f66c00; stroke: #f66c00; stroke-width: 2"/>
    </g>
    <g clip-path="url(#peaabe34459)">
     <use xlink:href="#C1_0_9dfd5ca0f6" x="121.386454" y="377.551458" style="fill: #ffffff; stroke: #ffffff; stroke-width: 2"/>
    </g>
    <g clip-path="url(#peaabe34459)">
     <use xlink:href="#C1_0_9dfd5ca0f6" x="121.386454" y="354.922718" style="fill: #ffffff; stroke: #ffffff; stroke-width: 2"/>
    </g>
    <g clip-path="url(#peaabe34459)">
     <use xlink:href="#C1_0_9dfd5ca0f6" x="121.386454" y="332.293977" style="fill: #ffffff; stroke: #ffffff; stroke-width: 2"/>
    </g>
    <g clip-path="url(#peaabe34459)">
     <use xlink:href="#C1_0_9dfd5ca0f6" x="121.386454" y="278.293573" style="fill: #ffffff; stroke: #ffffff; stroke-width: 2"/>
    </g>
    <g clip-path="url(#peaabe34459)">
     <use xlink:href="#C1_0_9dfd5ca0f6" x="121.386454" y="255.664832" style="fill: #ffffff; stroke: #ffffff; stroke-width: 2"/>
    </g>
    <g clip-path="url(#peaabe34459)">
     <use xlink:href="#C1_0_9dfd5ca0f6" x="121.386454" y="233.036091" style="fill: #ffffff; stroke: #ffffff; stroke-width: 2"/>
    </g>
    <g clip-path="url(#peaabe34459)">
     <use xlink:href="#C1_0_9dfd5ca0f6" x="121.386454" y="210.40735" style="fill: #ffffff; stroke: #ffffff; stroke-width: 2"/>
    </g>
    <g clip-path="url(#peaabe34459)">
     <use xlink:href="#C1_0_9dfd5ca0f6" x="121.386454" y="187.778609" style="fill: #1c6f2e; stroke: #1c6f2e; stroke-width: 2"/>
    </g>
    <g clip-path="url(#peaabe34459)">
     <use xlink:href="#C1_0_9dfd5ca0f6" x="114.960369" y="161.806986" style="fill: #1c6f2e; stroke: #1c6f2e; stroke-width: 2"/>
    </g>
    <g clip-path="url(#peaabe34459)">
     <use xlink:href="#C1_0_9dfd5ca0f6" x="127.206303" y="138.535384" style="fill: #1c6f2e; stroke: #1c6f2e; stroke-width: 2"/>
    </g>
    <g clip-path="url(#peaabe34459)">
     <use xlink:href="#C1_0_9dfd5ca0f6" x="152.425653" y="138.535384" style="fill: #ffffff; stroke: #ffffff; stroke-width: 2"/>
    </g>
    <g clip-path="url(#peaabe34459)">
     <use xlink:href="#C1_0_9dfd5ca0f6" x="164.671587" y="161.806986" style="fill: #1c6f2e; stroke: #1c6f2e; stroke-width: 2"/>
    </g>
    <g clip-path="url(#peaabe34459)">
     <use xlink:href="#C1_0_9dfd5ca0f6" x="158.245503" y="187.778609" style="fill: #1c6f2e; stroke: #1c6f2e; stroke-width: 2"/>
    </g>
    <g clip-path="url(#peaabe34459)">
     <use xlink:href="#C1_0_9dfd5ca0f6" x="158.245503" y="210.40735" style="fill: #ffffff; stroke: #ffffff; stroke-width: 2"/>
    </g>
    <g clip-path="url(#peaabe34459)">
     <use xlink:href="#C1_0_9dfd5ca0f6" x="158.245503" y="233.036091" style="fill: #ffffff; stroke: #ffffff; stroke-width: 2"/>
    </g>
    <g clip-path="url(#peaabe34459)">
     <use xlink:href="#C1_0_9dfd5ca0f6" x="158.245503" y="255.664832" style="fill: #ffffff; stroke: #ffffff; stroke-width: 2"/>
    </g>
    <g clip-path="url(#peaabe34459)">
     <use xlink:href="#C1_0_9dfd5ca0f6" x="158.245503" y="278.293573" style="fill: #ffffff; stroke: #ffffff; stroke-width: 2"/>
    </g>
    <g clip-path="url(#peaabe34459)">
     <use xlink:href="#C1_0_9dfd5ca0f6" x="165.277821" y="305.293775" style="fill: #ffffff; stroke: #ffffff; stroke-width: 2"/>
    </g>
    <g clip-path="url(#peaabe34459)">
     <use xlink:href="#C1_0_9dfd5ca0f6" x="158.245503" y="332.293977" style="fill: #ffffff; stroke: #ffffff; stroke-width: 2"/>
    </g>
    <g clip-path="url(#peaabe34459)">
     <use xlink:href="#C1_0_9dfd5ca0f6" x="158.245503" y="354.922718" style="fill: #ffffff; stroke: #ffffff; stroke-width: 2"/>
    </g>
    <g clip-path="url(#peaabe34459)">
     <use xlink:href="#C1_0_9dfd5ca0f6" x="158.245503" y="377.551458" style="fill: #ffffff; stroke: #ffffff; stroke-width: 2"/>
    </g>
    <g clip-path="url(#peaabe34459)">
     <use xlink:href="#C1_0_9dfd5ca0f6" x="158.245503" y="400.180199" style="fill: #f66c00; stroke: #f66c00; stroke-width: 2"/>
    </g>
    <g clip-path="url(#peaabe34459)">
     <use xlink:href="#C1_0_9dfd5ca0f6" x="158.245503" y="520.523957" style="fill: #f66c00; stroke: #f66c00; stroke-width: 2"/>
    </g>
    <g clip-path="url(#peaabe34459)">
     <use xlink:href="#C1_0_9dfd5ca0f6" x="158.245503" y="543.152698" style="fill: #ffffff; stroke: #ffffff; stroke-width: 2"/>
    </g>
    <g clip-path="url(#peaabe34459)">
     <use xlink:href="#C1_0_9dfd5ca0f6" x="158.245503" y="565.781439" style="fill: #bf5ca3; stroke: #bf5ca3; stroke-width: 2"/>
    </g>
    <g clip-path="url(#peaabe34459)">
     <use xlink:href="#C1_0_9dfd5ca0f6" x="158.245503" y="588.41018" style="fill: #bf5ca3; stroke: #bf5ca3; stroke-width: 2"/>
    </g>
    <g clip-path="url(#peaabe34459)">
     <use xlink:href="#C1_0_9dfd5ca0f6" x="158.245503" y="611.03892" style="fill: #ffffff; stroke: #ffffff; stroke-width: 2"/>
    </g>
   </g>
   <g id="PathCollection_3">
    <defs>
     <path id="C2_0_6571bd6c88" d="M 3.288577 3.436273 
L 3.288577 0.847965 
L 1.158851 0.847965 
L 1.158851 -0.224127 
L 4.579632 -0.224127 
L 4.579632 3.915513 
Q 3.825656 4.450527 2.914687 4.725263 
Q 2.005784 5 0.972939 5 
Q -1.286924 5 -2.56352 3.680025 
Q -3.83805 2.357984 -3.83805 0.003099 
Q -3.83805 -2.36005 -2.56352 -3.680025 
Q -1.286924 -5 0.972939 -5 
Q 1.914894 -5 2.763892 -4.766577 
Q 3.61289 -4.53522 4.329684 -4.082834 
L 4.329684 -2.694691 
Q 3.606693 -3.308201 2.792811 -3.618054 
Q 1.97893 -3.927907 1.082421 -3.927907 
Q -0.687874 -3.927907 -1.576121 -2.940508 
Q -2.462301 -1.953109 -2.462301 0.003099 
Q -2.462301 1.953109 -1.576121 2.940508 
Q -0.687874 3.927907 1.082421 3.927907 
Q 1.772361 3.927907 2.313572 3.808098 
Q 2.856848 3.688288 3.288577 3.436273 
z
"/>
    </defs>
    <g clip-path="url(#peaabe34459)">
     <use xlink:href="#C2_0_6571bd6c88" x="121.386454" y="611.03892" style="stroke: #000000"/>
    </g>
    <g clip-path="url(#peaabe34459)">
     <use xlink:href="#C2_0_6571bd6c88" x="121.386454" y="588.41018" style="fill: #ffffff; stroke: #ffffff"/>
    </g>
    <g clip-path="url(#peaabe34459)">
     <use xlink:href="#C2_0_6571bd6c88" x="121.386454" y="543.152698" style="fill: #ffffff; stroke: #ffffff"/>
    </g>
    <g clip-path="url(#peaabe34459)">
     <use xlink:href="#C2_0_6571bd6c88" x="121.386454" y="520.523957" style="fill: #ffffff; stroke: #ffffff"/>
    </g>
    <g clip-path="url(#peaabe34459)">
     <use xlink:href="#C2_0_6571bd6c88" x="121.386454" y="354.922718" style="stroke: #000000"/>
    </g>
    <g clip-path="url(#peaabe34459)">
     <use xlink:href="#C2_0_6571bd6c88" x="164.671587" y="161.806986" style="fill: #ffffff; stroke: #ffffff"/>
    </g>
    <g clip-path="url(#peaabe34459)">
     <use xlink:href="#C2_0_6571bd6c88" x="158.245503" y="187.778609" style="fill: #ffffff; stroke: #ffffff"/>
    </g>
    <g clip-path="url(#peaabe34459)">
     <use xlink:href="#C2_0_6571bd6c88" x="158.245503" y="210.40735" style="stroke: #000000"/>
    </g>
    <g clip-path="url(#peaabe34459)">
     <use xlink:href="#C2_0_6571bd6c88" x="158.245503" y="278.293573" style="stroke: #000000"/>
    </g>
    <g clip-path="url(#peaabe34459)">
     <use xlink:href="#C2_0_6571bd6c88" x="158.245503" y="332.293977" style="stroke: #000000"/>
    </g>
    <g clip-path="url(#peaabe34459)">
     <use xlink:href="#C2_0_6571bd6c88" x="158.245503" y="400.180199" style="fill: #ffffff; stroke: #ffffff"/>
    </g>
   </g>
   <g id="PathCollection_4">
    <defs>
     <path id="C3_0_401115057e" d="M -3.170065 -5 
L -1.83519 -5 
L -1.83519 0.959638 
Q -1.83519 2.536262 -1.265503 3.229977 
Q -0.693715 3.921589 0.588606 3.921589 
Q 1.862518 3.921589 2.434307 3.229977 
Q 3.006096 2.536262 3.006096 0.959638 
L 3.006096 -5 
L 4.338869 -5 
L 4.338869 1.123607 
Q 4.338869 3.040782 3.38869 4.020391 
Q 2.440614 5 0.588606 5 
Q -1.27181 5 -2.221989 4.020391 
Q -3.170065 3.040782 -3.170065 1.123607 
L -3.170065 -5 
z
"/>
    </defs>
    <g clip-path="url(#peaabe34459)">
     <use xlink:href="#C3_0_401115057e" x="87.922317" y="435.794752" style="fill: #ffffff; stroke: #ffffff"/>
    </g>
    <g clip-path="url(#peaabe34459)">
     <use xlink:href="#C3_0_401115057e" x="121.386454" y="377.551458" style="stroke: #000000"/>
    </g>
    <g clip-path="url(#peaabe34459)">
     <use xlink:href="#C3_0_401115057e" x="121.386454" y="332.293977" style="stroke: #000000"/>
    </g>
    <g clip-path="url(#peaabe34459)">
     <use xlink:href="#C3_0_401115057e" x="121.386454" y="255.664832" style="stroke: #000000"/>
    </g>
    <g clip-path="url(#peaabe34459)">
     <use xlink:href="#C3_0_401115057e" x="121.386454" y="233.036091" style="stroke: #000000"/>
    </g>
    <g clip-path="url(#peaabe34459)">
     <use xlink:href="#C3_0_401115057e" x="114.960369" y="161.806986" style="fill: #ffffff; stroke: #ffffff"/>
    </g>
    <g clip-path="url(#peaabe34459)">
     <use xlink:href="#C3_0_401115057e" x="127.206303" y="138.535384" style="fill: #ffffff; stroke: #ffffff"/>
    </g>
    <g clip-path="url(#peaabe34459)">
     <use xlink:href="#C3_0_401115057e" x="158.245503" y="233.036091" style="stroke: #000000"/>
    </g>
    <g clip-path="url(#peaabe34459)">
     <use xlink:href="#C3_0_401115057e" x="165.277821" y="305.293775" style="stroke: #000000"/>
    </g>
    <g clip-path="url(#peaabe34459)">
     <use xlink:href="#C3_0_401115057e" x="158.245503" y="565.781439" style="fill: #ffffff; stroke: #ffffff"/>
    </g>
   </g>
   <g id="PathCollection_5">
    <defs>
     <path id="C4_0_3be525c98c" d="M 0.054651 -3.666952 
L -1.78204 1.309473 
L 1.895628 1.309473 
L 0.054651 -3.666952 
z
M -0.710459 -5 
L 0.824046 -5 
L 4.634591 5 
L 3.228676 5 
L 2.317831 2.434634 
L -2.189241 2.434634 
L -3.100086 5 
L -4.527432 5 
L -0.710459 -5 
z
"/>
    </defs>
    <g clip-path="url(#peaabe34459)">
     <use xlink:href="#C4_0_3be525c98c" x="121.386454" y="565.781439" style="fill: #ffffff; stroke: #ffffff"/>
    </g>
    <g clip-path="url(#peaabe34459)">
     <use xlink:href="#C4_0_3be525c98c" x="101.865707" y="505.09527" style="fill: #ffffff; stroke: #ffffff"/>
    </g>
    <g clip-path="url(#peaabe34459)">
     <use xlink:href="#C4_0_3be525c98c" x="87.922317" y="484.780833" style="fill: #ffffff; stroke: #ffffff"/>
    </g>
    <g clip-path="url(#peaabe34459)">
     <use xlink:href="#C4_0_3be525c98c" x="101.865707" y="415.608886" style="fill: #ffffff; stroke: #ffffff"/>
    </g>
    <g clip-path="url(#peaabe34459)">
     <use xlink:href="#C4_0_3be525c98c" x="158.245503" y="377.551458" style="stroke: #000000"/>
    </g>
   </g>
   <g id="PathCollection_6">
    <defs>
     <path id="C5_0_09f349f835" d="M 4.257385 -4.082834 
L 4.257385 -2.709151 
Q 3.59843 -3.322661 2.852716 -3.624251 
Q 2.107003 -3.927907 1.268333 -3.927907 
Q -0.384218 -3.927907 -1.262136 -2.917786 
Q -2.140054 -1.907664 -2.140054 0.003099 
Q -2.140054 1.907664 -1.262136 2.917786 
Q -0.384218 3.927907 1.268333 3.927907 
Q 2.107003 3.927907 2.852716 3.624251 
Q 3.59843 3.320595 4.257385 2.707085 
L 4.257385 4.07044 
Q 3.573642 4.53522 2.807271 4.768643 
Q 2.042966 5 1.191902 5 
Q -0.997728 5 -2.257798 3.661434 
Q -3.515803 2.320801 -3.515803 0.003099 
Q -3.515803 -2.320801 -2.257798 -3.659368 
Q -0.997728 -5 1.191902 -5 
Q 2.05536 -5 2.819665 -4.770709 
Q 3.586036 -4.541417 4.257385 -4.082834 
z
"/>
    </defs>
    <g clip-path="url(#peaabe34459)">
     <use xlink:href="#C5_0_09f349f835" x="83.072442" y="460.352078" style="stroke: #000000"/>
    </g>
    <g clip-path="url(#peaabe34459)">
     <use xlink:href="#C5_0_09f349f835" x="121.386454" y="400.180199" style="fill: #ffffff; stroke: #ffffff"/>
    </g>
    <g clip-path="url(#peaabe34459)">
     <use xlink:href="#C5_0_09f349f835" x="121.386454" y="278.293573" style="stroke: #000000"/>
    </g>
    <g clip-path="url(#peaabe34459)">
     <use xlink:href="#C5_0_09f349f835" x="121.386454" y="210.40735" style="stroke: #000000"/>
    </g>
    <g clip-path="url(#peaabe34459)">
     <use xlink:href="#C5_0_09f349f835" x="121.386454" y="187.778609" style="fill: #ffffff; stroke: #ffffff"/>
    </g>
    <g clip-path="url(#peaabe34459)">
     <use xlink:href="#C5_0_09f349f835" x="152.425653" y="138.535384" style="stroke: #000000"/>
    </g>
    <g clip-path="url(#peaabe34459)">
     <use xlink:href="#C5_0_09f349f835" x="158.245503" y="255.664832" style="stroke: #000000"/>
    </g>
    <g clip-path="url(#peaabe34459)">
     <use xlink:href="#C5_0_09f349f835" x="158.245503" y="354.922718" style="stroke: #000000"/>
    </g>
    <g clip-path="url(#peaabe34459)">
     <use xlink:href="#C5_0_09f349f835" x="158.245503" y="520.523957" style="fill: #ffffff; stroke: #ffffff"/>
    </g>
    <g clip-path="url(#peaabe34459)">
     <use xlink:href="#C5_0_09f349f835" x="158.245503" y="543.152698" style="stroke: #000000"/>
    </g>
    <g clip-path="url(#peaabe34459)">
     <use xlink:href="#C5_0_09f349f835" x="158.245503" y="588.41018" style="fill: #ffffff; stroke: #ffffff"/>
    </g>
    <g clip-path="url(#peaabe34459)">
     <use xlink:href="#C5_0_09f349f835" x="158.245503" y="611.03892" style="stroke: #000000"/>
    </g>
   </g>
   <g id="PathCollection_7"/>
   <g id="PathCollection_8"/>
   <g id="PathCollection_9"/>
   <g id="PathCollection_10"/>
  </g>
 </g>
 <defs>
  <clipPath id="peaabe34459">
   <rect x="42.103124" y="75.8242" width="164.144015" height="597.925904"/>
  </clipPath>
 </defs>
</svg>
