<?xml version="1.0" encoding="utf-8" standalone="no"?>
<!DOCTYPE svg PUBLIC "-//W3C//DTD SVG 1.1//EN"
  "http://www.w3.org/Graphics/SVG/1.1/DTD/svg11.dtd">
<svg xmlns:xlink="http://www.w3.org/1999/xlink" width="433.766842pt" height="590.416579pt" viewBox="0 0 433.766842 590.416579" xmlns="http://www.w3.org/2000/svg" version="1.1">
 <metadata>
  <rdf:RDF xmlns:dc="http://purl.org/dc/elements/1.1/" xmlns:cc="http://creativecommons.org/ns#" xmlns:rdf="http://www.w3.org/1999/02/22-rdf-syntax-ns#">
   <cc:Work>
    <dc:type rdf:resource="http://purl.org/dc/dcmitype/StillImage"/>
    <dc:date>2023-10-13T16:35:42.195583</dc:date>
    <dc:format>image/svg+xml</dc:format>
    <dc:creator>
     <cc:Agent>
      <dc:title>Matplotlib v3.6.3, https://matplotlib.org/</dc:title>
     </cc:Agent>
    </dc:creator>
   </cc:Work>
  </rdf:RDF>
 </metadata>
 <defs>
  <style type="text/css">*{stroke-linejoin: round; stroke-linecap: butt}</style>
 </defs>
 <g id="figure_1">
  <g id="patch_1">
   <path d="M 0 590.416579 
L 433.766842 590.416579 
L 433.766842 0 
L 0 0 
z
" style="fill: #ffffff"/>
  </g>
  <g id="axes_1">
   <g id="line2d_1">
    <path d="M 182.772282 247.178207 
L 202.897854 247.178207 
" clip-path="url(#pe9c14d8805)" style="fill: none; stroke: #808080; stroke-width: 3; stroke-linecap: round"/>
   </g>
   <g id="line2d_2">
    <path d="M 182.900111 269.21422 
L 191.769182 269.181681 
" clip-path="url(#pe9c14d8805)" style="fill: none; stroke: #808080; stroke-width: 3; stroke-linecap: round"/>
   </g>
   <g id="line2d_3">
    <path d="M 182.772282 293.643057 
L 191.769095 293.643057 
" clip-path="url(#pe9c14d8805)" style="fill: none; stroke: #808080; stroke-width: 3; stroke-linecap: round"/>
   </g>
   <g id="line2d_4">
    <path d="M 182.772232 315.507256 
L 202.897904 315.563044 
" clip-path="url(#pe9c14d8805)" style="fill: none; stroke: #808080; stroke-width: 3; stroke-linecap: round"/>
   </g>
   <g id="line2d_5">
    <path d="M 249.289004 472.609321 
L 262.251237 472.609321 
" clip-path="url(#pe9c14d8805)" style="fill: none; stroke: #808080; stroke-width: 3; stroke-linecap: round"/>
   </g>
   <g id="line2d_6">
    <path d="M 249.289004 450.1428 
L 262.251237 450.1428 
" clip-path="url(#pe9c14d8805)" style="fill: none; stroke: #808080; stroke-width: 3; stroke-linecap: round"/>
   </g>
   <g id="line2d_7">
    <path d="M 249.289004 401.252587 
L 262.251237 401.252587 
" clip-path="url(#pe9c14d8805)" style="fill: none; stroke: #808080; stroke-width: 3; stroke-linecap: round"/>
   </g>
   <g id="line2d_8">
    <path d="M 249.289004 378.786066 
L 262.251237 378.786066 
" clip-path="url(#pe9c14d8805)" style="fill: none; stroke: #808080; stroke-width: 3; stroke-linecap: round"/>
   </g>
   <g id="line2d_9">
    <path d="M 249.289004 356.319545 
L 262.251237 356.319545 
" clip-path="url(#pe9c14d8805)" style="fill: none; stroke: #808080; stroke-width: 3; stroke-linecap: round"/>
   </g>
   <g id="line2d_10">
    <path d="M 249.289004 333.853024 
L 262.251237 333.853024 
" clip-path="url(#pe9c14d8805)" style="fill: none; stroke: #808080; stroke-width: 3; stroke-linecap: round"/>
   </g>
   <g id="line2d_11">
    <path d="M 249.289004 228.924159 
L 262.251237 228.924159 
" clip-path="url(#pe9c14d8805)" style="fill: none; stroke: #808080; stroke-width: 3; stroke-linecap: round"/>
   </g>
   <g id="line2d_12">
    <path d="M 249.289004 206.457638 
L 262.251237 206.457638 
" clip-path="url(#pe9c14d8805)" style="fill: none; stroke: #808080; stroke-width: 3; stroke-linecap: round"/>
   </g>
   <g id="LineCollection_1">
    <path d="M 169.810049 247.178207 
L 169.874007 258.219992 
L 169.937965 269.261776 
L 169.874007 281.452417 
L 169.810049 293.643057 
L 169.810049 304.557191 
L 169.810049 315.471325 
L 159.128998 318.024339 
L 148.447948 320.577352 
L 138.726273 325.68338 
L 129.004598 330.789407 
L 120.817925 338.193147 
L 112.631251 345.596887 
L 106.491246 354.660086 
L 100.351241 363.723285 
L 96.641654 374.126816 
L 92.932068 384.530347 
L 91.844775 395.44448 
L 90.757483 406.358614 
L 92.484359 417.208922 
L 94.211236 428.059231 
L 98.496448 438.143635 
L 102.78166 448.228039 
L 109.369373 457.035937 
L 115.957087 465.843834 
L 124.591469 472.673146 
L 133.225852 479.502458 
L 143.20336 484.097882 
L 153.180868 488.693307 
L 163.989835 490.671893 
L 174.798803 492.650478 
L 185.799645 491.884574 
L 196.800488 491.11867 
L 207.289663 487.735927 
L 217.778838 484.353184 
L 227.052805 478.481252 
L 236.326771 472.609321 
L 236.326771 461.37606 
L 236.326771 450.1428 
L 236.326771 425.697693 
L 236.326771 401.252587 
L 236.326771 390.019326 
L 236.326771 378.786066 
L 236.326771 367.552805 
L 236.326771 356.319545 
L 236.326771 345.086284 
L 236.326771 333.853024 
L 226.093429 324.726 
L 215.860087 315.598976 
L 210.295707 304.621017 
L 204.731328 293.643057 
L 204.731328 281.388591 
L 204.731328 269.134126 
L 210.295707 258.156166 
L 215.860087 247.178207 
L 226.093429 238.051183 
L 236.326771 228.924159 
L 236.326771 217.690899 
L 236.326771 206.457638 
L 228.01218 197.011487 
L 219.69759 187.565337 
L 218.802173 175.055569 
L 217.906755 162.545802 
L 224.878219 152.078446 
L 231.849683 141.611089 
L 243.809902 137.526267 
L 255.77012 133.441445 
L 267.730338 137.526267 
L 279.690557 141.611089 
L 286.662021 152.078446 
L 293.633485 162.545802 
L 292.738067 175.055569 
L 291.84265 187.565337 
L 283.52806 197.011487 
L 275.21347 206.457638 
L 275.21347 217.690899 
L 275.21347 228.924159 
L 286.534104 239.32769 
L 297.854738 249.731221 
L 303.163284 265.559906 
L 308.47183 281.388591 
L 303.163284 297.153451 
L 297.854738 312.918311 
L 286.534104 323.385667 
L 275.21347 333.853024 
L 275.21347 345.086284 
L 275.21347 356.319545 
L 275.21347 367.552805 
L 275.21347 378.786066 
L 275.21347 390.019326 
L 275.21347 401.252587 
L 277.771805 413.507052 
L 280.33014 425.761518 
L 277.771805 437.952159 
L 275.21347 450.1428 
L 275.21347 461.37606 
L 275.21347 472.609321 
L 286.534104 472.609321 
L 297.854738 472.609321 
L 309.111414 472.609321 
L 320.36809 472.609321 
L 331.688725 472.609321 
L 343.009359 472.609321 
" clip-path="url(#pe9c14d8805)" style="fill: none; stroke: #808080; stroke-width: 3"/>
   </g>
   <g id="text_1">
    <text style="fill: #262626; font: 24px 'Arial', 'DejaVu Sans', 'Liberation Sans', 'Bitstream Vera Sans', sans-serif; text-anchor: middle" x="216.883421" y="70.675185" transform="rotate(-0 216.883421 70.675185)">6fz0</text>
   </g>
   <g id="PathCollection_1">
    <defs>
     <path id="C0_0_55b4d6ee8a" d="M 0 8 
C 2.121625 8 4.156639 7.15707 5.656854 5.656854 
C 7.15707 4.156639 8 2.121625 8 -0 
C 8 -2.121625 7.15707 -4.156639 5.656854 -5.656854 
C 4.156639 -7.15707 2.121625 -8 0 -8 
C -2.121625 -8 -4.156639 -7.15707 -5.656854 -5.656854 
C -7.15707 -4.156639 -8 -2.121625 -8 0 
C -8 2.121625 -7.15707 4.156639 -5.656854 5.656854 
C -4.156639 7.15707 -2.121625 8 0 8 
z
"/>
    </defs>
    <g clip-path="url(#pe9c14d8805)">
     <use xlink:href="#C0_0_55b4d6ee8a" x="169.810049" y="247.178207" style="fill: #ffffff; stroke: #ffffff; stroke-width: 2"/>
    </g>
    <g clip-path="url(#pe9c14d8805)">
     <use xlink:href="#C0_0_55b4d6ee8a" x="169.937965" y="269.261776" style="fill: #ffffff; stroke: #ffffff; stroke-width: 2"/>
    </g>
    <g clip-path="url(#pe9c14d8805)">
     <use xlink:href="#C0_0_55b4d6ee8a" x="169.810049" y="293.643057" style="fill: #ffffff; stroke: #ffffff; stroke-width: 2"/>
    </g>
    <g clip-path="url(#pe9c14d8805)">
     <use xlink:href="#C0_0_55b4d6ee8a" x="169.810049" y="315.471325" style="fill: #ffffff; stroke: #ffffff; stroke-width: 2"/>
    </g>
    <g clip-path="url(#pe9c14d8805)">
     <use xlink:href="#C0_0_55b4d6ee8a" x="148.447948" y="320.577352" style="fill: #ffffff; stroke: #ffffff; stroke-width: 2"/>
    </g>
    <g clip-path="url(#pe9c14d8805)">
     <use xlink:href="#C0_0_55b4d6ee8a" x="129.004598" y="330.789407" style="fill: #ffffff; stroke: #ffffff; stroke-width: 2"/>
    </g>
    <g clip-path="url(#pe9c14d8805)">
     <use xlink:href="#C0_0_55b4d6ee8a" x="112.631251" y="345.596887" style="fill: #f66c00; stroke: #f66c00; stroke-width: 2"/>
    </g>
    <g clip-path="url(#pe9c14d8805)">
     <use xlink:href="#C0_0_55b4d6ee8a" x="100.351241" y="363.723285" style="fill: #f66c00; stroke: #f66c00; stroke-width: 2"/>
    </g>
    <g clip-path="url(#pe9c14d8805)">
     <use xlink:href="#C0_0_55b4d6ee8a" x="92.932068" y="384.530347" style="fill: #f66c00; stroke: #f66c00; stroke-width: 2"/>
    </g>
    <g clip-path="url(#pe9c14d8805)">
     <use xlink:href="#C0_0_55b4d6ee8a" x="90.757483" y="406.358614" style="fill: #1c6f2e; stroke: #1c6f2e; stroke-width: 2"/>
    </g>
    <g clip-path="url(#pe9c14d8805)">
     <use xlink:href="#C0_0_55b4d6ee8a" x="94.211236" y="428.059231" style="fill: #1c6f2e; stroke: #1c6f2e; stroke-width: 2"/>
    </g>
    <g clip-path="url(#pe9c14d8805)">
     <use xlink:href="#C0_0_55b4d6ee8a" x="102.78166" y="448.228039" style="fill: #ffffff; stroke: #ffffff; stroke-width: 2"/>
    </g>
    <g clip-path="url(#pe9c14d8805)">
     <use xlink:href="#C0_0_55b4d6ee8a" x="115.957087" y="465.843834" style="fill: #ffffff; stroke: #ffffff; stroke-width: 2"/>
    </g>
    <g clip-path="url(#pe9c14d8805)">
     <use xlink:href="#C0_0_55b4d6ee8a" x="133.225852" y="479.502458" style="fill: #ffffff; stroke: #ffffff; stroke-width: 2"/>
    </g>
    <g clip-path="url(#pe9c14d8805)">
     <use xlink:href="#C0_0_55b4d6ee8a" x="153.180868" y="488.693307" style="fill: #1c6f2e; stroke: #1c6f2e; stroke-width: 2"/>
    </g>
    <g clip-path="url(#pe9c14d8805)">
     <use xlink:href="#C0_0_55b4d6ee8a" x="174.798803" y="492.650478" style="fill: #1c6f2e; stroke: #1c6f2e; stroke-width: 2"/>
    </g>
    <g clip-path="url(#pe9c14d8805)">
     <use xlink:href="#C0_0_55b4d6ee8a" x="196.800488" y="491.11867" style="fill: #1c6f2e; stroke: #1c6f2e; stroke-width: 2"/>
    </g>
    <g clip-path="url(#pe9c14d8805)">
     <use xlink:href="#C0_0_55b4d6ee8a" x="217.778838" y="484.353184" style="fill: #1c6f2e; stroke: #1c6f2e; stroke-width: 2"/>
    </g>
    <g clip-path="url(#pe9c14d8805)">
     <use xlink:href="#C0_0_55b4d6ee8a" x="236.326771" y="472.609321" style="fill: #1c6f2e; stroke: #1c6f2e; stroke-width: 2"/>
    </g>
    <g clip-path="url(#pe9c14d8805)">
     <use xlink:href="#C0_0_55b4d6ee8a" x="236.326771" y="450.1428" style="fill: #f66c00; stroke: #f66c00; stroke-width: 2"/>
    </g>
    <g clip-path="url(#pe9c14d8805)">
     <use xlink:href="#C0_0_55b4d6ee8a" x="236.326771" y="401.252587" style="fill: #f66c00; stroke: #f66c00; stroke-width: 2"/>
    </g>
    <g clip-path="url(#pe9c14d8805)">
     <use xlink:href="#C0_0_55b4d6ee8a" x="236.326771" y="378.786066" style="fill: #ffffff; stroke: #ffffff; stroke-width: 2"/>
    </g>
    <g clip-path="url(#pe9c14d8805)">
     <use xlink:href="#C0_0_55b4d6ee8a" x="236.326771" y="356.319545" style="fill: #ffffff; stroke: #ffffff; stroke-width: 2"/>
    </g>
    <g clip-path="url(#pe9c14d8805)">
     <use xlink:href="#C0_0_55b4d6ee8a" x="236.326771" y="333.853024" style="fill: #ffffff; stroke: #ffffff; stroke-width: 2"/>
    </g>
    <g clip-path="url(#pe9c14d8805)">
     <use xlink:href="#C0_0_55b4d6ee8a" x="215.860087" y="315.598976" style="fill: #ffffff; stroke: #ffffff; stroke-width: 2"/>
    </g>
    <g clip-path="url(#pe9c14d8805)">
     <use xlink:href="#C0_0_55b4d6ee8a" x="204.731328" y="293.643057" style="fill: #ffffff; stroke: #ffffff; stroke-width: 2"/>
    </g>
    <g clip-path="url(#pe9c14d8805)">
     <use xlink:href="#C0_0_55b4d6ee8a" x="204.731328" y="269.134126" style="fill: #ffffff; stroke: #ffffff; stroke-width: 2"/>
    </g>
    <g clip-path="url(#pe9c14d8805)">
     <use xlink:href="#C0_0_55b4d6ee8a" x="215.860087" y="247.178207" style="fill: #ffffff; stroke: #ffffff; stroke-width: 2"/>
    </g>
    <g clip-path="url(#pe9c14d8805)">
     <use xlink:href="#C0_0_55b4d6ee8a" x="236.326771" y="228.924159" style="fill: #ffffff; stroke: #ffffff; stroke-width: 2"/>
    </g>
    <g clip-path="url(#pe9c14d8805)">
     <use xlink:href="#C0_0_55b4d6ee8a" x="236.326771" y="206.457638" style="fill: #ffffff; stroke: #ffffff; stroke-width: 2"/>
    </g>
    <g clip-path="url(#pe9c14d8805)">
     <use xlink:href="#C0_0_55b4d6ee8a" x="219.69759" y="187.565337" style="fill: #ffffff; stroke: #ffffff; stroke-width: 2"/>
    </g>
    <g clip-path="url(#pe9c14d8805)">
     <use xlink:href="#C0_0_55b4d6ee8a" x="217.906755" y="162.545802" style="fill: #ffffff; stroke: #ffffff; stroke-width: 2"/>
    </g>
    <g clip-path="url(#pe9c14d8805)">
     <use xlink:href="#C0_0_55b4d6ee8a" x="231.849683" y="141.611089" style="fill: #ffffff; stroke: #ffffff; stroke-width: 2"/>
    </g>
    <g clip-path="url(#pe9c14d8805)">
     <use xlink:href="#C0_0_55b4d6ee8a" x="255.77012" y="133.441445" style="fill: #ffffff; stroke: #ffffff; stroke-width: 2"/>
    </g>
    <g clip-path="url(#pe9c14d8805)">
     <use xlink:href="#C0_0_55b4d6ee8a" x="279.690557" y="141.611089" style="fill: #ffffff; stroke: #ffffff; stroke-width: 2"/>
    </g>
    <g clip-path="url(#pe9c14d8805)">
     <use xlink:href="#C0_0_55b4d6ee8a" x="293.633485" y="162.545802" style="fill: #ffffff; stroke: #ffffff; stroke-width: 2"/>
    </g>
    <g clip-path="url(#pe9c14d8805)">
     <use xlink:href="#C0_0_55b4d6ee8a" x="291.84265" y="187.565337" style="fill: #ffffff; stroke: #ffffff; stroke-width: 2"/>
    </g>
    <g clip-path="url(#pe9c14d8805)">
     <use xlink:href="#C0_0_55b4d6ee8a" x="275.21347" y="206.457638" style="fill: #ffffff; stroke: #ffffff; stroke-width: 2"/>
    </g>
    <g clip-path="url(#pe9c14d8805)">
     <use xlink:href="#C0_0_55b4d6ee8a" x="275.21347" y="228.924159" style="fill: #ffffff; stroke: #ffffff; stroke-width: 2"/>
    </g>
    <g clip-path="url(#pe9c14d8805)">
     <use xlink:href="#C0_0_55b4d6ee8a" x="297.854738" y="249.731221" style="fill: #ffffff; stroke: #ffffff; stroke-width: 2"/>
    </g>
    <g clip-path="url(#pe9c14d8805)">
     <use xlink:href="#C0_0_55b4d6ee8a" x="308.47183" y="281.388591" style="fill: #ffffff; stroke: #ffffff; stroke-width: 2"/>
    </g>
    <g clip-path="url(#pe9c14d8805)">
     <use xlink:href="#C0_0_55b4d6ee8a" x="297.854738" y="312.918311" style="fill: #ffffff; stroke: #ffffff; stroke-width: 2"/>
    </g>
    <g clip-path="url(#pe9c14d8805)">
     <use xlink:href="#C0_0_55b4d6ee8a" x="275.21347" y="333.853024" style="fill: #ffffff; stroke: #ffffff; stroke-width: 2"/>
    </g>
    <g clip-path="url(#pe9c14d8805)">
     <use xlink:href="#C0_0_55b4d6ee8a" x="275.21347" y="356.319545" style="fill: #ffffff; stroke: #ffffff; stroke-width: 2"/>
    </g>
    <g clip-path="url(#pe9c14d8805)">
     <use xlink:href="#C0_0_55b4d6ee8a" x="275.21347" y="378.786066" style="fill: #ffffff; stroke: #ffffff; stroke-width: 2"/>
    </g>
    <g clip-path="url(#pe9c14d8805)">
     <use xlink:href="#C0_0_55b4d6ee8a" x="275.21347" y="401.252587" style="fill: #ffffff; stroke: #ffffff; stroke-width: 2"/>
    </g>
    <g clip-path="url(#pe9c14d8805)">
     <use xlink:href="#C0_0_55b4d6ee8a" x="280.33014" y="425.761518" style="fill: #f66c00; stroke: #f66c00; stroke-width: 2"/>
    </g>
    <g clip-path="url(#pe9c14d8805)">
     <use xlink:href="#C0_0_55b4d6ee8a" x="275.21347" y="450.1428" style="fill: #f66c00; stroke: #f66c00; stroke-width: 2"/>
    </g>
    <g clip-path="url(#pe9c14d8805)">
     <use xlink:href="#C0_0_55b4d6ee8a" x="275.21347" y="472.609321" style="fill: #1c6f2e; stroke: #1c6f2e; stroke-width: 2"/>
    </g>
    <g clip-path="url(#pe9c14d8805)">
     <use xlink:href="#C0_0_55b4d6ee8a" x="297.854738" y="472.609321" style="fill: #1c6f2e; stroke: #1c6f2e; stroke-width: 2"/>
    </g>
    <g clip-path="url(#pe9c14d8805)">
     <use xlink:href="#C0_0_55b4d6ee8a" x="320.36809" y="472.609321" style="fill: #ffffff; stroke: #ffffff; stroke-width: 2"/>
    </g>
    <g clip-path="url(#pe9c14d8805)">
     <use xlink:href="#C0_0_55b4d6ee8a" x="343.009359" y="472.609321" style="fill: #ffffff; stroke: #ffffff; stroke-width: 2"/>
    </g>
   </g>
   <g id="PathCollection_2">
    <defs>
     <path id="C1_0_e64f3eb420" d="M 0 10 
C 2.652031 10 5.195799 8.946337 7.071068 7.071068 
C 8.946337 5.195799 10 2.652031 10 -0 
C 10 -2.652031 8.946337 -5.195799 7.071068 -7.071068 
C 5.195799 -8.946337 2.652031 -10 0 -10 
C -2.652031 -10 -5.195799 -8.946337 -7.071068 -7.071068 
C -8.946337 -5.195799 -10 -2.652031 -10 0 
C -10 2.652031 -8.946337 5.195799 -7.071068 7.071068 
C -5.195799 8.946337 -2.652031 10 0 10 
z
"/>
    </defs>
    <g clip-path="url(#pe9c14d8805)">
     <use xlink:href="#C1_0_e64f3eb420" x="169.810049" y="247.178207" style="fill: #ffffff; stroke: #ffffff; stroke-width: 2"/>
    </g>
    <g clip-path="url(#pe9c14d8805)">
     <use xlink:href="#C1_0_e64f3eb420" x="169.937965" y="269.261776" style="fill: #ffffff; stroke: #ffffff; stroke-width: 2"/>
    </g>
    <g clip-path="url(#pe9c14d8805)">
     <use xlink:href="#C1_0_e64f3eb420" x="169.810049" y="293.643057" style="fill: #ffffff; stroke: #ffffff; stroke-width: 2"/>
    </g>
    <g clip-path="url(#pe9c14d8805)">
     <use xlink:href="#C1_0_e64f3eb420" x="169.810049" y="315.471325" style="fill: #ffffff; stroke: #ffffff; stroke-width: 2"/>
    </g>
    <g clip-path="url(#pe9c14d8805)">
     <use xlink:href="#C1_0_e64f3eb420" x="148.447948" y="320.577352" style="fill: #ffffff; stroke: #ffffff; stroke-width: 2"/>
    </g>
    <g clip-path="url(#pe9c14d8805)">
     <use xlink:href="#C1_0_e64f3eb420" x="129.004598" y="330.789407" style="fill: #ffffff; stroke: #ffffff; stroke-width: 2"/>
    </g>
    <g clip-path="url(#pe9c14d8805)">
     <use xlink:href="#C1_0_e64f3eb420" x="112.631251" y="345.596887" style="fill: #f66c00; stroke: #f66c00; stroke-width: 2"/>
    </g>
    <g clip-path="url(#pe9c14d8805)">
     <use xlink:href="#C1_0_e64f3eb420" x="100.351241" y="363.723285" style="fill: #f66c00; stroke: #f66c00; stroke-width: 2"/>
    </g>
    <g clip-path="url(#pe9c14d8805)">
     <use xlink:href="#C1_0_e64f3eb420" x="92.932068" y="384.530347" style="fill: #f66c00; stroke: #f66c00; stroke-width: 2"/>
    </g>
    <g clip-path="url(#pe9c14d8805)">
     <use xlink:href="#C1_0_e64f3eb420" x="90.757483" y="406.358614" style="fill: #1c6f2e; stroke: #1c6f2e; stroke-width: 2"/>
    </g>
    <g clip-path="url(#pe9c14d8805)">
     <use xlink:href="#C1_0_e64f3eb420" x="94.211236" y="428.059231" style="fill: #1c6f2e; stroke: #1c6f2e; stroke-width: 2"/>
    </g>
    <g clip-path="url(#pe9c14d8805)">
     <use xlink:href="#C1_0_e64f3eb420" x="102.78166" y="448.228039" style="fill: #ffffff; stroke: #ffffff; stroke-width: 2"/>
    </g>
    <g clip-path="url(#pe9c14d8805)">
     <use xlink:href="#C1_0_e64f3eb420" x="115.957087" y="465.843834" style="fill: #ffffff; stroke: #ffffff; stroke-width: 2"/>
    </g>
    <g clip-path="url(#pe9c14d8805)">
     <use xlink:href="#C1_0_e64f3eb420" x="133.225852" y="479.502458" style="fill: #ffffff; stroke: #ffffff; stroke-width: 2"/>
    </g>
    <g clip-path="url(#pe9c14d8805)">
     <use xlink:href="#C1_0_e64f3eb420" x="153.180868" y="488.693307" style="fill: #1c6f2e; stroke: #1c6f2e; stroke-width: 2"/>
    </g>
    <g clip-path="url(#pe9c14d8805)">
     <use xlink:href="#C1_0_e64f3eb420" x="174.798803" y="492.650478" style="fill: #1c6f2e; stroke: #1c6f2e; stroke-width: 2"/>
    </g>
    <g clip-path="url(#pe9c14d8805)">
     <use xlink:href="#C1_0_e64f3eb420" x="196.800488" y="491.11867" style="fill: #1c6f2e; stroke: #1c6f2e; stroke-width: 2"/>
    </g>
    <g clip-path="url(#pe9c14d8805)">
     <use xlink:href="#C1_0_e64f3eb420" x="217.778838" y="484.353184" style="fill: #1c6f2e; stroke: #1c6f2e; stroke-width: 2"/>
    </g>
    <g clip-path="url(#pe9c14d8805)">
     <use xlink:href="#C1_0_e64f3eb420" x="236.326771" y="472.609321" style="fill: #1c6f2e; stroke: #1c6f2e; stroke-width: 2"/>
    </g>
    <g clip-path="url(#pe9c14d8805)">
     <use xlink:href="#C1_0_e64f3eb420" x="236.326771" y="450.1428" style="fill: #f66c00; stroke: #f66c00; stroke-width: 2"/>
    </g>
    <g clip-path="url(#pe9c14d8805)">
     <use xlink:href="#C1_0_e64f3eb420" x="236.326771" y="401.252587" style="fill: #f66c00; stroke: #f66c00; stroke-width: 2"/>
    </g>
    <g clip-path="url(#pe9c14d8805)">
     <use xlink:href="#C1_0_e64f3eb420" x="236.326771" y="378.786066" style="fill: #ffffff; stroke: #ffffff; stroke-width: 2"/>
    </g>
    <g clip-path="url(#pe9c14d8805)">
     <use xlink:href="#C1_0_e64f3eb420" x="236.326771" y="356.319545" style="fill: #ffffff; stroke: #ffffff; stroke-width: 2"/>
    </g>
    <g clip-path="url(#pe9c14d8805)">
     <use xlink:href="#C1_0_e64f3eb420" x="236.326771" y="333.853024" style="fill: #ffffff; stroke: #ffffff; stroke-width: 2"/>
    </g>
    <g clip-path="url(#pe9c14d8805)">
     <use xlink:href="#C1_0_e64f3eb420" x="215.860087" y="315.598976" style="fill: #ffffff; stroke: #ffffff; stroke-width: 2"/>
    </g>
    <g clip-path="url(#pe9c14d8805)">
     <use xlink:href="#C1_0_e64f3eb420" x="204.731328" y="293.643057" style="fill: #ffffff; stroke: #ffffff; stroke-width: 2"/>
    </g>
    <g clip-path="url(#pe9c14d8805)">
     <use xlink:href="#C1_0_e64f3eb420" x="204.731328" y="269.134126" style="fill: #ffffff; stroke: #ffffff; stroke-width: 2"/>
    </g>
    <g clip-path="url(#pe9c14d8805)">
     <use xlink:href="#C1_0_e64f3eb420" x="215.860087" y="247.178207" style="fill: #ffffff; stroke: #ffffff; stroke-width: 2"/>
    </g>
    <g clip-path="url(#pe9c14d8805)">
     <use xlink:href="#C1_0_e64f3eb420" x="236.326771" y="228.924159" style="fill: #ffffff; stroke: #ffffff; stroke-width: 2"/>
    </g>
    <g clip-path="url(#pe9c14d8805)">
     <use xlink:href="#C1_0_e64f3eb420" x="236.326771" y="206.457638" style="fill: #ffffff; stroke: #ffffff; stroke-width: 2"/>
    </g>
    <g clip-path="url(#pe9c14d8805)">
     <use xlink:href="#C1_0_e64f3eb420" x="219.69759" y="187.565337" style="fill: #ffffff; stroke: #ffffff; stroke-width: 2"/>
    </g>
    <g clip-path="url(#pe9c14d8805)">
     <use xlink:href="#C1_0_e64f3eb420" x="217.906755" y="162.545802" style="fill: #ffffff; stroke: #ffffff; stroke-width: 2"/>
    </g>
    <g clip-path="url(#pe9c14d8805)">
     <use xlink:href="#C1_0_e64f3eb420" x="231.849683" y="141.611089" style="fill: #ffffff; stroke: #ffffff; stroke-width: 2"/>
    </g>
    <g clip-path="url(#pe9c14d8805)">
     <use xlink:href="#C1_0_e64f3eb420" x="255.77012" y="133.441445" style="fill: #ffffff; stroke: #ffffff; stroke-width: 2"/>
    </g>
    <g clip-path="url(#pe9c14d8805)">
     <use xlink:href="#C1_0_e64f3eb420" x="279.690557" y="141.611089" style="fill: #ffffff; stroke: #ffffff; stroke-width: 2"/>
    </g>
    <g clip-path="url(#pe9c14d8805)">
     <use xlink:href="#C1_0_e64f3eb420" x="293.633485" y="162.545802" style="fill: #ffffff; stroke: #ffffff; stroke-width: 2"/>
    </g>
    <g clip-path="url(#pe9c14d8805)">
     <use xlink:href="#C1_0_e64f3eb420" x="291.84265" y="187.565337" style="fill: #ffffff; stroke: #ffffff; stroke-width: 2"/>
    </g>
    <g clip-path="url(#pe9c14d8805)">
     <use xlink:href="#C1_0_e64f3eb420" x="275.21347" y="206.457638" style="fill: #ffffff; stroke: #ffffff; stroke-width: 2"/>
    </g>
    <g clip-path="url(#pe9c14d8805)">
     <use xlink:href="#C1_0_e64f3eb420" x="275.21347" y="228.924159" style="fill: #ffffff; stroke: #ffffff; stroke-width: 2"/>
    </g>
    <g clip-path="url(#pe9c14d8805)">
     <use xlink:href="#C1_0_e64f3eb420" x="297.854738" y="249.731221" style="fill: #ffffff; stroke: #ffffff; stroke-width: 2"/>
    </g>
    <g clip-path="url(#pe9c14d8805)">
     <use xlink:href="#C1_0_e64f3eb420" x="308.47183" y="281.388591" style="fill: #ffffff; stroke: #ffffff; stroke-width: 2"/>
    </g>
    <g clip-path="url(#pe9c14d8805)">
     <use xlink:href="#C1_0_e64f3eb420" x="297.854738" y="312.918311" style="fill: #ffffff; stroke: #ffffff; stroke-width: 2"/>
    </g>
    <g clip-path="url(#pe9c14d8805)">
     <use xlink:href="#C1_0_e64f3eb420" x="275.21347" y="333.853024" style="fill: #ffffff; stroke: #ffffff; stroke-width: 2"/>
    </g>
    <g clip-path="url(#pe9c14d8805)">
     <use xlink:href="#C1_0_e64f3eb420" x="275.21347" y="356.319545" style="fill: #ffffff; stroke: #ffffff; stroke-width: 2"/>
    </g>
    <g clip-path="url(#pe9c14d8805)">
     <use xlink:href="#C1_0_e64f3eb420" x="275.21347" y="378.786066" style="fill: #ffffff; stroke: #ffffff; stroke-width: 2"/>
    </g>
    <g clip-path="url(#pe9c14d8805)">
     <use xlink:href="#C1_0_e64f3eb420" x="275.21347" y="401.252587" style="fill: #ffffff; stroke: #ffffff; stroke-width: 2"/>
    </g>
    <g clip-path="url(#pe9c14d8805)">
     <use xlink:href="#C1_0_e64f3eb420" x="280.33014" y="425.761518" style="fill: #f66c00; stroke: #f66c00; stroke-width: 2"/>
    </g>
    <g clip-path="url(#pe9c14d8805)">
     <use xlink:href="#C1_0_e64f3eb420" x="275.21347" y="450.1428" style="fill: #f66c00; stroke: #f66c00; stroke-width: 2"/>
    </g>
    <g clip-path="url(#pe9c14d8805)">
     <use xlink:href="#C1_0_e64f3eb420" x="275.21347" y="472.609321" style="fill: #1c6f2e; stroke: #1c6f2e; stroke-width: 2"/>
    </g>
    <g clip-path="url(#pe9c14d8805)">
     <use xlink:href="#C1_0_e64f3eb420" x="297.854738" y="472.609321" style="fill: #1c6f2e; stroke: #1c6f2e; stroke-width: 2"/>
    </g>
    <g clip-path="url(#pe9c14d8805)">
     <use xlink:href="#C1_0_e64f3eb420" x="320.36809" y="472.609321" style="fill: #ffffff; stroke: #ffffff; stroke-width: 2"/>
    </g>
    <g clip-path="url(#pe9c14d8805)">
     <use xlink:href="#C1_0_e64f3eb420" x="343.009359" y="472.609321" style="fill: #ffffff; stroke: #ffffff; stroke-width: 2"/>
    </g>
   </g>
   <g id="PathCollection_3">
    <defs>
     <path id="C2_0_ae75a49961" d="M 3.288577 3.436273 
L 3.288577 0.847965 
L 1.158851 0.847965 
L 1.158851 -0.224127 
L 4.579632 -0.224127 
L 4.579632 3.915513 
Q 3.825656 4.450527 2.914687 4.725263 
Q 2.005784 5 0.972939 5 
Q -1.286924 5 -2.56352 3.680025 
Q -3.83805 2.357984 -3.83805 0.003099 
Q -3.83805 -2.36005 -2.56352 -3.680025 
Q -1.286924 -5 0.972939 -5 
Q 1.914894 -5 2.763892 -4.766577 
Q 3.61289 -4.53522 4.329684 -4.082834 
L 4.329684 -2.694691 
Q 3.606693 -3.308201 2.792811 -3.618054 
Q 1.97893 -3.927907 1.082421 -3.927907 
Q -0.687874 -3.927907 -1.576121 -2.940508 
Q -2.462301 -1.953109 -2.462301 0.003099 
Q -2.462301 1.953109 -1.576121 2.940508 
Q -0.687874 3.927907 1.082421 3.927907 
Q 1.772361 3.927907 2.313572 3.808098 
Q 2.856848 3.688288 3.288577 3.436273 
z
"/>
    </defs>
    <g clip-path="url(#pe9c14d8805)">
     <use xlink:href="#C2_0_ae75a49961" x="169.937965" y="269.261776" style="stroke: #000000"/>
    </g>
    <g clip-path="url(#pe9c14d8805)">
     <use xlink:href="#C2_0_ae75a49961" x="169.810049" y="293.643057" style="stroke: #000000"/>
    </g>
    <g clip-path="url(#pe9c14d8805)">
     <use xlink:href="#C2_0_ae75a49961" x="148.447948" y="320.577352" style="stroke: #000000"/>
    </g>
    <g clip-path="url(#pe9c14d8805)">
     <use xlink:href="#C2_0_ae75a49961" x="94.211236" y="428.059231" style="fill: #ffffff; stroke: #ffffff"/>
    </g>
    <g clip-path="url(#pe9c14d8805)">
     <use xlink:href="#C2_0_ae75a49961" x="174.798803" y="492.650478" style="fill: #ffffff; stroke: #ffffff"/>
    </g>
    <g clip-path="url(#pe9c14d8805)">
     <use xlink:href="#C2_0_ae75a49961" x="236.326771" y="401.252587" style="fill: #ffffff; stroke: #ffffff"/>
    </g>
    <g clip-path="url(#pe9c14d8805)">
     <use xlink:href="#C2_0_ae75a49961" x="215.860087" y="315.598976" style="stroke: #000000"/>
    </g>
    <g clip-path="url(#pe9c14d8805)">
     <use xlink:href="#C2_0_ae75a49961" x="236.326771" y="206.457638" style="stroke: #000000"/>
    </g>
    <g clip-path="url(#pe9c14d8805)">
     <use xlink:href="#C2_0_ae75a49961" x="291.84265" y="187.565337" style="stroke: #000000"/>
    </g>
    <g clip-path="url(#pe9c14d8805)">
     <use xlink:href="#C2_0_ae75a49961" x="275.21347" y="333.853024" style="stroke: #000000"/>
    </g>
   </g>
   <g id="PathCollection_4">
    <defs>
     <path id="C3_0_4414c23a26" d="M -3.170065 -5 
L -1.83519 -5 
L -1.83519 0.959638 
Q -1.83519 2.536262 -1.265503 3.229977 
Q -0.693715 3.921589 0.588606 3.921589 
Q 1.862518 3.921589 2.434307 3.229977 
Q 3.006096 2.536262 3.006096 0.959638 
L 3.006096 -5 
L 4.338869 -5 
L 4.338869 1.123607 
Q 4.338869 3.040782 3.38869 4.020391 
Q 2.440614 5 0.588606 5 
Q -1.27181 5 -2.221989 4.020391 
Q -3.170065 3.040782 -3.170065 1.123607 
L -3.170065 -5 
z
"/>
    </defs>
    <g clip-path="url(#pe9c14d8805)">
     <use xlink:href="#C3_0_4414c23a26" x="100.351241" y="363.723285" style="fill: #ffffff; stroke: #ffffff"/>
    </g>
    <g clip-path="url(#pe9c14d8805)">
     <use xlink:href="#C3_0_4414c23a26" x="92.932068" y="384.530347" style="fill: #ffffff; stroke: #ffffff"/>
    </g>
    <g clip-path="url(#pe9c14d8805)">
     <use xlink:href="#C3_0_4414c23a26" x="90.757483" y="406.358614" style="fill: #ffffff; stroke: #ffffff"/>
    </g>
    <g clip-path="url(#pe9c14d8805)">
     <use xlink:href="#C3_0_4414c23a26" x="153.180868" y="488.693307" style="fill: #ffffff; stroke: #ffffff"/>
    </g>
    <g clip-path="url(#pe9c14d8805)">
     <use xlink:href="#C3_0_4414c23a26" x="196.800488" y="491.11867" style="fill: #ffffff; stroke: #ffffff"/>
    </g>
    <g clip-path="url(#pe9c14d8805)">
     <use xlink:href="#C3_0_4414c23a26" x="236.326771" y="472.609321" style="fill: #ffffff; stroke: #ffffff"/>
    </g>
    <g clip-path="url(#pe9c14d8805)">
     <use xlink:href="#C3_0_4414c23a26" x="236.326771" y="450.1428" style="fill: #ffffff; stroke: #ffffff"/>
    </g>
    <g clip-path="url(#pe9c14d8805)">
     <use xlink:href="#C3_0_4414c23a26" x="236.326771" y="378.786066" style="stroke: #000000"/>
    </g>
    <g clip-path="url(#pe9c14d8805)">
     <use xlink:href="#C3_0_4414c23a26" x="215.860087" y="247.178207" style="stroke: #000000"/>
    </g>
    <g clip-path="url(#pe9c14d8805)">
     <use xlink:href="#C3_0_4414c23a26" x="236.326771" y="228.924159" style="stroke: #000000"/>
    </g>
    <g clip-path="url(#pe9c14d8805)">
     <use xlink:href="#C3_0_4414c23a26" x="231.849683" y="141.611089" style="stroke: #000000"/>
    </g>
    <g clip-path="url(#pe9c14d8805)">
     <use xlink:href="#C3_0_4414c23a26" x="275.21347" y="356.319545" style="stroke: #000000"/>
    </g>
    <g clip-path="url(#pe9c14d8805)">
     <use xlink:href="#C3_0_4414c23a26" x="280.33014" y="425.761518" style="fill: #ffffff; stroke: #ffffff"/>
    </g>
   </g>
   <g id="PathCollection_5">
    <defs>
     <path id="C4_0_773e23f4eb" d="M 0.054651 -3.666952 
L -1.78204 1.309473 
L 1.895628 1.309473 
L 0.054651 -3.666952 
z
M -0.710459 -5 
L 0.824046 -5 
L 4.634591 5 
L 3.228676 5 
L 2.317831 2.434634 
L -2.189241 2.434634 
L -3.100086 5 
L -4.527432 5 
L -0.710459 -5 
z
"/>
    </defs>
    <g clip-path="url(#pe9c14d8805)">
     <use xlink:href="#C4_0_773e23f4eb" x="169.810049" y="247.178207" style="stroke: #000000"/>
    </g>
    <g clip-path="url(#pe9c14d8805)">
     <use xlink:href="#C4_0_773e23f4eb" x="112.631251" y="345.596887" style="fill: #ffffff; stroke: #ffffff"/>
    </g>
    <g clip-path="url(#pe9c14d8805)">
     <use xlink:href="#C4_0_773e23f4eb" x="102.78166" y="448.228039" style="stroke: #000000"/>
    </g>
    <g clip-path="url(#pe9c14d8805)">
     <use xlink:href="#C4_0_773e23f4eb" x="115.957087" y="465.843834" style="stroke: #000000"/>
    </g>
    <g clip-path="url(#pe9c14d8805)">
     <use xlink:href="#C4_0_773e23f4eb" x="217.778838" y="484.353184" style="fill: #ffffff; stroke: #ffffff"/>
    </g>
    <g clip-path="url(#pe9c14d8805)">
     <use xlink:href="#C4_0_773e23f4eb" x="236.326771" y="356.319545" style="stroke: #000000"/>
    </g>
    <g clip-path="url(#pe9c14d8805)">
     <use xlink:href="#C4_0_773e23f4eb" x="217.906755" y="162.545802" style="stroke: #000000"/>
    </g>
    <g clip-path="url(#pe9c14d8805)">
     <use xlink:href="#C4_0_773e23f4eb" x="255.77012" y="133.441445" style="stroke: #000000"/>
    </g>
    <g clip-path="url(#pe9c14d8805)">
     <use xlink:href="#C4_0_773e23f4eb" x="279.690557" y="141.611089" style="stroke: #000000"/>
    </g>
    <g clip-path="url(#pe9c14d8805)">
     <use xlink:href="#C4_0_773e23f4eb" x="293.633485" y="162.545802" style="stroke: #000000"/>
    </g>
    <g clip-path="url(#pe9c14d8805)">
     <use xlink:href="#C4_0_773e23f4eb" x="275.21347" y="228.924159" style="stroke: #000000"/>
    </g>
    <g clip-path="url(#pe9c14d8805)">
     <use xlink:href="#C4_0_773e23f4eb" x="297.854738" y="249.731221" style="stroke: #000000"/>
    </g>
    <g clip-path="url(#pe9c14d8805)">
     <use xlink:href="#C4_0_773e23f4eb" x="308.47183" y="281.388591" style="stroke: #000000"/>
    </g>
    <g clip-path="url(#pe9c14d8805)">
     <use xlink:href="#C4_0_773e23f4eb" x="297.854738" y="312.918311" style="stroke: #000000"/>
    </g>
    <g clip-path="url(#pe9c14d8805)">
     <use xlink:href="#C4_0_773e23f4eb" x="275.21347" y="378.786066" style="stroke: #000000"/>
    </g>
    <g clip-path="url(#pe9c14d8805)">
     <use xlink:href="#C4_0_773e23f4eb" x="275.21347" y="450.1428" style="fill: #ffffff; stroke: #ffffff"/>
    </g>
    <g clip-path="url(#pe9c14d8805)">
     <use xlink:href="#C4_0_773e23f4eb" x="275.21347" y="472.609321" style="fill: #ffffff; stroke: #ffffff"/>
    </g>
    <g clip-path="url(#pe9c14d8805)">
     <use xlink:href="#C4_0_773e23f4eb" x="297.854738" y="472.609321" style="fill: #ffffff; stroke: #ffffff"/>
    </g>
    <g clip-path="url(#pe9c14d8805)">
     <use xlink:href="#C4_0_773e23f4eb" x="320.36809" y="472.609321" style="stroke: #000000"/>
    </g>
    <g clip-path="url(#pe9c14d8805)">
     <use xlink:href="#C4_0_773e23f4eb" x="343.009359" y="472.609321" style="stroke: #000000"/>
    </g>
   </g>
   <g id="PathCollection_6">
    <defs>
     <path id="C5_0_908d22e262" d="M 4.257385 -4.082834 
L 4.257385 -2.709151 
Q 3.59843 -3.322661 2.852716 -3.624251 
Q 2.107003 -3.927907 1.268333 -3.927907 
Q -0.384218 -3.927907 -1.262136 -2.917786 
Q -2.140054 -1.907664 -2.140054 0.003099 
Q -2.140054 1.907664 -1.262136 2.917786 
Q -0.384218 3.927907 1.268333 3.927907 
Q 2.107003 3.927907 2.852716 3.624251 
Q 3.59843 3.320595 4.257385 2.707085 
L 4.257385 4.07044 
Q 3.573642 4.53522 2.807271 4.768643 
Q 2.042966 5 1.191902 5 
Q -0.997728 5 -2.257798 3.661434 
Q -3.515803 2.320801 -3.515803 0.003099 
Q -3.515803 -2.320801 -2.257798 -3.659368 
Q -0.997728 -5 1.191902 -5 
Q 2.05536 -5 2.819665 -4.770709 
Q 3.586036 -4.541417 4.257385 -4.082834 
z
"/>
    </defs>
    <g clip-path="url(#pe9c14d8805)">
     <use xlink:href="#C5_0_908d22e262" x="169.810049" y="315.471325" style="stroke: #000000"/>
    </g>
    <g clip-path="url(#pe9c14d8805)">
     <use xlink:href="#C5_0_908d22e262" x="129.004598" y="330.789407" style="stroke: #000000"/>
    </g>
    <g clip-path="url(#pe9c14d8805)">
     <use xlink:href="#C5_0_908d22e262" x="133.225852" y="479.502458" style="stroke: #000000"/>
    </g>
    <g clip-path="url(#pe9c14d8805)">
     <use xlink:href="#C5_0_908d22e262" x="236.326771" y="333.853024" style="stroke: #000000"/>
    </g>
    <g clip-path="url(#pe9c14d8805)">
     <use xlink:href="#C5_0_908d22e262" x="204.731328" y="293.643057" style="stroke: #000000"/>
    </g>
    <g clip-path="url(#pe9c14d8805)">
     <use xlink:href="#C5_0_908d22e262" x="204.731328" y="269.134126" style="stroke: #000000"/>
    </g>
    <g clip-path="url(#pe9c14d8805)">
     <use xlink:href="#C5_0_908d22e262" x="219.69759" y="187.565337" style="stroke: #000000"/>
    </g>
    <g clip-path="url(#pe9c14d8805)">
     <use xlink:href="#C5_0_908d22e262" x="275.21347" y="206.457638" style="stroke: #000000"/>
    </g>
    <g clip-path="url(#pe9c14d8805)">
     <use xlink:href="#C5_0_908d22e262" x="275.21347" y="401.252587" style="stroke: #000000"/>
    </g>
   </g>
   <g id="PathCollection_7"/>
   <g id="PathCollection_8"/>
   <g id="PathCollection_9"/>
   <g id="PathCollection_10"/>
  </g>
 </g>
 <defs>
  <clipPath id="pe9c14d8805">
   <rect x="39.25819" y="76.675185" width="355.250462" height="472.741554"/>
  </clipPath>
 </defs>
</svg>
